STARTFONT 2.3
FONT -FontForge-STIX Two Math-Book-R-Normal--9-90-72-72-P-61-ISO10646-1
SIZE 9 72 72  4
FONTBOUNDINGBOX 37 39 -9 -15
COMMENT "Generated by fontforge, http://fontforge.sourceforge.net"
COMMENT "Copyright 2001-2021 The STIX Fonts Project Authors (https://github.com/stipub/stixfonts)"
STARTPROPERTIES 41
FOUNDRY "FontForge"
FAMILY_NAME "STIX Two Math"
WEIGHT_NAME "Book"
SLANT "R"
SETWIDTH_NAME "Normal"
ADD_STYLE_NAME ""
PIXEL_SIZE 9
POINT_SIZE 90
RESOLUTION_X 72
RESOLUTION_Y 72
SPACING "P"
AVERAGE_WIDTH 61
CHARSET_REGISTRY "ISO10646"
CHARSET_ENCODING "1"
FONTNAME_REGISTRY ""
CHARSET_COLLECTIONS "ASCII ISOLatin1Encoding ISO8859-2 ISO8859-5 ISO8859-7 ISO8859-9 ISO8859-4 ISO10646-1"
BITS_PER_PIXEL 4
FONT_NAME "STIXTwoMath-Regular"
FACE_NAME "STIX Two Math Regular"
COPYRIGHT "Copyright 2001-2021 The STIX Fonts Project Authors (https://github.com/stipub/stixfonts)"
FONT_VERSION "2.12 b168a"
FONT_ASCENT 7
FONT_DESCENT 2
UNDERLINE_POSITION -1
UNDERLINE_THICKNESS 1
X_HEIGHT 4
CAP_HEIGHT 6
RAW_ASCENT 762
RAW_DESCENT 238
NORM_SPACE 2
RELATIVE_WEIGHT 40
RELATIVE_SETWIDTH 50
SUPERSCRIPT_X 0
SUPERSCRIPT_Y 4
SUPERSCRIPT_SIZE 4
SUBSCRIPT_X 0
SUBSCRIPT_Y 2
SUBSCRIPT_SIZE 4
FIGURE_WIDTH 4
AVG_LOWERCASE_WIDTH 44
AVG_UPPERCASE_WIDTH 61
ENDPROPERTIES
CHARS 6611
STARTCHAR space
ENCODING 32
SWIDTH 235 0
DWIDTH 2 0
BBX 1 1 0 0
BITMAP
00
ENDCHAR
STARTCHAR exclam
ENCODING 33
SWIDTH 283 0
DWIDTH 3 0
BBX 2 7 0 0
BITMAP
2A
2B
19
08
06
02
3A
ENDCHAR
STARTCHAR quotedbl
ENCODING 34
SWIDTH 334 0
DWIDTH 3 0
BBX 3 2 0 5
BITMAP
8680
7340
ENDCHAR
STARTCHAR numbersign
ENCODING 35
SWIDTH 702 0
DWIDTH 6 0
BBX 6 7 0 0
BITMAP
008080
008080
28B7B6
035170
4A99A4
071530
080710
ENDCHAR
STARTCHAR dollar
ENCODING 36
SWIDTH 495 0
DWIDTH 4 0
BBX 5 8 0 -1
BITMAP
38A800
926600
6B6000
07E500
008D00
606A20
77A700
006000
ENDCHAR
STARTCHAR percent
ENCODING 37
SWIDTH 692 0
DWIDTH 6 0
BBX 6 7 0 0
BITMAP
184061
726560
816410
262563
005735
015905
060663
ENDCHAR
STARTCHAR ampersand
ENCODING 38
SWIDTH 736 0
DWIDTH 7 0
BBX 7 7 0 0
BITMAP
04780000
08380000
04B37800
18B26200
93496000
A30C5010
5C95C910
ENDCHAR
STARTCHAR quotesingle
ENCODING 39
SWIDTH 187 0
DWIDTH 2 0
BBX 2 2 0 5
BITMAP
83
70
ENDCHAR
STARTCHAR parenleft
ENCODING 40
SWIDTH 357 0
DWIDTH 3 0
BBX 3 9 0 -2
BITMAP
0040
0720
2700
7300
8200
7300
3600
0810
0050
ENDCHAR
STARTCHAR parenright
ENCODING 41
SWIDTH 357 0
DWIDTH 3 0
BBX 3 9 0 -2
BITMAP
3000
1800
0450
00A0
00B0
00A0
0360
0810
4100
ENDCHAR
STARTCHAR asterisk
ENCODING 42
SWIDTH 410 0
DWIDTH 4 0
BBX 4 4 0 3
BITMAP
3631
4A82
6983
0520
ENDCHAR
STARTCHAR plus
ENCODING 43
SWIDTH 720 0
DWIDTH 6 0
BBX 6 7 0 -1
BITMAP
001600
001800
001800
5ABDAA
001800
001800
000300
ENDCHAR
STARTCHAR comma
ENCODING 44
SWIDTH 245 0
DWIDTH 2 0
BBX 2 4 0 -2
BITMAP
01
6A
06
20
ENDCHAR
STARTCHAR hyphen
ENCODING 45
SWIDTH 315 0
DWIDTH 3 0
BBX 3 1 0 2
BITMAP
6A40
ENDCHAR
STARTCHAR period
ENCODING 46
SWIDTH 245 0
DWIDTH 2 0
BBX 2 2 0 0
BITMAP
11
58
ENDCHAR
STARTCHAR slash
ENCODING 47
SWIDTH 386 0
DWIDTH 3 0
BBX 4 8 0 -1
BITMAP
0071
0080
0160
0620
0800
0700
4400
7000
ENDCHAR
STARTCHAR zero
ENCODING 48
SWIDTH 495 0
DWIDTH 4 0
BBX 5 7 0 0
BITMAP
187500
750B00
A20B20
B20A30
A20B20
750B00
197400
ENDCHAR
STARTCHAR one
ENCODING 49
SWIDTH 495 0
DWIDTH 4 0
BBX 4 7 0 0
BITMAP
28A0
02A0
02A0
02A0
02A0
02A0
18D4
ENDCHAR
STARTCHAR two
ENCODING 50
SWIDTH 495 0
DWIDTH 4 0
BBX 5 7 0 0
BITMAP
19B500
401C00
001C00
005500
018000
081210
7DCD00
ENDCHAR
STARTCHAR three
ENCODING 51
SWIDTH 495 0
DWIDTH 4 0
BBX 4 7 0 0
BITMAP
19C4
2039
0054
04C4
001D
000A
5A63
ENDCHAR
STARTCHAR four
ENCODING 52
SWIDTH 495 0
DWIDTH 4 0
BBX 5 7 0 0
BITMAP
006600
01C600
067600
166600
616600
BBCD40
006600
ENDCHAR
STARTCHAR five
ENCODING 53
SWIDTH 495 0
DWIDTH 4 0
BBX 4 7 0 0
BITMAP
09DB
0600
1EC3
003B
000A
0009
5A63
ENDCHAR
STARTCHAR six
ENCODING 54
SWIDTH 495 0
DWIDTH 4 0
BBX 5 7 0 0
BITMAP
028400
1A1000
5AA500
860C00
840A10
660B00
195600
ENDCHAR
STARTCHAR seven
ENCODING 55
SWIDTH 495 0
DWIDTH 4 0
BBX 5 7 0 0
BITMAP
5DDD20
400800
001700
006300
009000
028000
073000
ENDCHAR
STARTCHAR eight
ENCODING 56
SWIDTH 495 0
DWIDTH 4 0
BBX 4 7 0 0
BITMAP
1755
640A
3B46
09E2
499C
820C
3756
ENDCHAR
STARTCHAR nine
ENCODING 57
SWIDTH 495 0
DWIDTH 4 0
BBX 4 7 0 0
BITMAP
2875
830B
920C
760D
198B
0057
1670
ENDCHAR
STARTCHAR colon
ENCODING 58
SWIDTH 245 0
DWIDTH 2 0
BBX 2 5 0 0
BITMAP
11
58
00
11
58
ENDCHAR
STARTCHAR semicolon
ENCODING 59
SWIDTH 245 0
DWIDTH 2 0
BBX 2 7 0 -2
BITMAP
11
58
00
01
6A
06
20
ENDCHAR
STARTCHAR less
ENCODING 60
SWIDTH 720 0
DWIDTH 6 0
BBX 6 6 0 -1
BITMAP
000048
004950
1C6000
028810
000287
000001
ENDCHAR
STARTCHAR equal
ENCODING 61
SWIDTH 720 0
DWIDTH 6 0
BBX 6 3 0 1
BITMAP
5AAAAA
000000
5AAAAA
ENDCHAR
STARTCHAR greater
ENCODING 62
SWIDTH 720 0
DWIDTH 6 0
BBX 6 6 0 -1
BITMAP
371000
029810
0002C6
004950
295000
100000
ENDCHAR
STARTCHAR question
ENCODING 63
SWIDTH 411 0
DWIDTH 4 0
BBX 4 7 0 0
BITMAP
5692
A166
1083
0090
0420
0200
0840
ENDCHAR
STARTCHAR at
ENCODING 64
SWIDTH 905 0
DWIDTH 8 0
BBX 8 9 0 -2
BITMAP
00488710
065002A0
18065655
54732918
73B01908
54B12936
295A6B91
08500010
00587620
ENDCHAR
STARTCHAR A
ENCODING 65
SWIDTH 718 0
DWIDTH 6 0
BBX 7 7 0 0
BITMAP
00380000
007C0000
00794000
0434A000
0866E100
17009600
98009D20
ENDCHAR
STARTCHAR B
ENCODING 66
SWIDTH 618 0
DWIDTH 6 0
BBX 6 7 0 0
BITMAP
3E6960
0C00D0
0C01A0
0C6B40
0C01D1
0C00B3
4E5680
ENDCHAR
STARTCHAR C
ENCODING 67
SWIDTH 670 0
DWIDTH 6 0
BBX 6 7 0 0
BITMAP
0487C7
2B0027
670002
860000
780000
2D1003
05B981
ENDCHAR
STARTCHAR D
ENCODING 68
SWIDTH 730 0
DWIDTH 7 0
BBX 7 7 0 0
BITMAP
3E779100
0C005A00
0C000E10
0C000D20
0C000D00
0C003A00
3E678100
ENDCHAR
STARTCHAR E
ENCODING 69
SWIDTH 626 0
DWIDTH 6 0
BBX 6 7 0 0
BITMAP
3E77C1
0C0031
0C0050
0C7960
0C0020
0C0024
3E77C3
ENDCHAR
STARTCHAR F
ENCODING 70
SWIDTH 588 0
DWIDTH 5 0
BBX 6 7 0 0
BITMAP
4E77B2
0C0022
0C0050
0C7950
0C0020
0C0000
3E6000
ENDCHAR
STARTCHAR G
ENCODING 71
SWIDTH 720 0
DWIDTH 6 0
BBX 7 7 0 0
BITMAP
0487C700
2B001700
67000200
86008910
68004800
2C004800
05979400
ENDCHAR
STARTCHAR H
ENCODING 72
SWIDTH 777 0
DWIDTH 7 0
BBX 7 7 0 0
BITMAP
3D804E50
0A200C00
0A200C00
0A866D00
0A200C00
0A200C00
3D804E50
ENDCHAR
STARTCHAR I
ENCODING 73
SWIDTH 357 0
DWIDTH 3 0
BBX 3 7 0 0
BITMAP
4E60
0C00
0C00
0C00
0C00
0C00
4E60
ENDCHAR
STARTCHAR J
ENCODING 74
SWIDTH 396 0
DWIDTH 4 0
BBX 4 7 0 0
BITMAP
19C2
0480
0480
0480
0480
2480
B830
ENDCHAR
STARTCHAR K
ENCODING 75
SWIDTH 702 0
DWIDTH 6 0
BBX 7 7 0 0
BITMAP
4E62E600
0C054000
0C350000
0CC10000
0C4C1000
0C06A000
4E62EA10
ENDCHAR
STARTCHAR L
ENCODING 76
SWIDTH 585 0
DWIDTH 5 0
BBX 6 7 0 0
BITMAP
3E6000
0C1000
0C0000
0C0000
0C0000
0C0051
3E87C0
ENDCHAR
STARTCHAR M
ENCODING 77
SWIDTH 895 0
DWIDTH 8 0
BBX 8 7 0 0
BITMAP
4F4004E4
0BA007C0
07D107C0
079543C0
073A70C0
070C60C0
4C2724E4
ENDCHAR
STARTCHAR N
ENCODING 78
SWIDTH 742 0
DWIDTH 7 0
BBX 7 7 0 0
BITMAP
5E204C20
0BB00700
07A60700
071D2700
0705A700
0700A900
4C201800
ENDCHAR
STARTCHAR O
ENCODING 79
SWIDTH 738 0
DWIDTH 7 0
BBX 7 7 0 0
BITMAP
04869200
2C002B00
68000D10
86000C20
78000D10
2C002B00
05868100
ENDCHAR
STARTCHAR P
ENCODING 80
SWIDTH 569 0
DWIDTH 5 0
BBX 5 7 0 0
BITMAP
3E7950
0C01C0
0C02A0
0C6710
0C0000
0C1000
3E6000
ENDCHAR
STARTCHAR Q
ENCODING 81
SWIDTH 737 0
DWIDTH 7 0
BBX 7 9 0 -2
BITMAP
04879200
2C003B00
67000E10
86000C20
67000D00
2B002A00
05869200
00099000
00007720
ENDCHAR
STARTCHAR R
ENCODING 82
SWIDTH 659 0
DWIDTH 6 0
BBX 6 7 0 0
BITMAP
3E6850
0C01D0
0C03A0
0C8A10
0C1C20
0C15A0
3E60C7
ENDCHAR
STARTCHAR S
ENCODING 83
SWIDTH 504 0
DWIDTH 5 0
BBX 5 7 0 0
BITMAP
287D00
740600
5C2000
07E500
103E10
700A20
9A7800
ENDCHAR
STARTCHAR T
ENCODING 84
SWIDTH 603 0
DWIDTH 5 0
BBX 6 7 0 0
BITMAP
B7D8B4
50B214
00B200
00B200
00B200
00B200
03D700
ENDCHAR
STARTCHAR U
ENCODING 85
SWIDTH 752 0
DWIDTH 7 0
BBX 7 7 0 0
BITMAP
5F403D30
0D000800
0C000800
0C000800
0C000700
0B201700
03B99100
ENDCHAR
STARTCHAR V
ENCODING 86
SWIDTH 680 0
DWIDTH 6 0
BBX 7 7 0 0
BITMAP
AD205B10
1D005300
0B407000
05917000
01D52000
009A0000
00470000
ENDCHAR
STARTCHAR W
ENCODING 87
SWIDTH 944 0
DWIDTH 9 0
BBX 9 7 0 0
BITMAP
AC19C12C30
1D01C00700
0B30E22400
0684876000
01D71C7000
00B70B6000
0062062000
ENDCHAR
STARTCHAR X
ENCODING 88
SWIDTH 664 0
DWIDTH 6 0
BBX 6 7 0 0
BITMAP
5F51C6
087260
01D700
009800
026C20
0805A0
8A03F7
ENDCHAR
STARTCHAR Y
ENCODING 89
SWIDTH 647 0
DWIDTH 6 0
BBX 6 7 0 0
BITMAP
9D20B6
0C3070
05A520
00C700
007500
007500
02BA10
ENDCHAR
STARTCHAR Z
ENCODING 90
SWIDTH 594 0
DWIDTH 5 0
BBX 6 7 0 0
BITMAP
6A79D0
400A50
004B00
00C300
079000
1D1051
9B78C0
ENDCHAR
STARTCHAR bracketleft
ENCODING 91
SWIDTH 349 0
DWIDTH 3 0
BBX 3 10 0 -2
BITMAP
2840
3800
3800
3800
3800
3800
3800
3800
3800
3A40
ENDCHAR
STARTCHAR backslash
ENCODING 92
SWIDTH 385 0
DWIDTH 3 0
BBX 4 8 0 -1
BITMAP
7000
4400
0700
0800
0620
0160
0080
0071
ENDCHAR
STARTCHAR bracketright
ENCODING 93
SWIDTH 349 0
DWIDTH 3 0
BBX 3 10 0 -2
BITMAP
3730
0650
0650
0650
0650
0650
0650
0650
0650
3950
ENDCHAR
STARTCHAR asciicircum
ENCODING 94
SWIDTH 480 0
DWIDTH 4 0
BBX 4 4 0 3
BITMAP
0490
0871
2626
7108
ENDCHAR
STARTCHAR underscore
ENCODING 95
SWIDTH 512 0
DWIDTH 5 0
BBX 5 1 0 -2
BITMAP
888850
ENDCHAR
STARTCHAR grave
ENCODING 96
SWIDTH 222 0
DWIDTH 2 0
BBX 2 2 0 5
BITMAP
51
27
ENDCHAR
STARTCHAR a
ENCODING 97
SWIDTH 480 0
DWIDTH 4 0
BBX 5 5 0 0
BITMAP
379300
425700
168700
834700
6B8B10
ENDCHAR
STARTCHAR b
ENCODING 98
SWIDTH 522 0
DWIDTH 5 0
BBX 5 7 0 0
BITMAP
770000
470000
49AB00
480940
470750
470930
3A6700
ENDCHAR
STARTCHAR c
ENCODING 99
SWIDTH 446 0
DWIDTH 4 0
BBX 4 5 0 0
BITMAP
1796
8114
A100
8503
2CB4
ENDCHAR
STARTCHAR d
ENCODING 100
SWIDTH 539 0
DWIDTH 5 0
BBX 5 7 0 0
BITMAP
002C00
000B00
187E00
730C00
A20B00
940B00
2D8C40
ENDCHAR
STARTCHAR e
ENCODING 101
SWIDTH 464 0
DWIDTH 4 0
BBX 4 5 0 0
BITMAP
2785
8768
A100
8603
1CB4
ENDCHAR
STARTCHAR f
ENCODING 102
SWIDTH 307 0
DWIDTH 3 0
BBX 4 7 0 0
BITMAP
0794
1A00
6C50
1A00
1A00
1A00
6D30
ENDCHAR
STARTCHAR g
ENCODING 103
SWIDTH 484 0
DWIDTH 4 0
BBX 5 7 0 -2
BITMAP
289B20
752A00
497200
430000
6DB900
700720
8A8600
ENDCHAR
STARTCHAR h
ENCODING 104
SWIDTH 577 0
DWIDTH 5 0
BBX 5 7 0 0
BITMAP
590000
1A0000
1B8C10
1A0750
1A0650
1A0650
5C2A90
ENDCHAR
STARTCHAR i
ENCODING 105
SWIDTH 285 0
DWIDTH 3 0
BBX 3 7 0 0
BITMAP
2A00
0100
5A00
1A00
1A00
1A00
5C10
ENDCHAR
STARTCHAR j
ENCODING 106
SWIDTH 263 0
DWIDTH 2 0
BBX 3 9 -1 -2
BITMAP
02A0
0010
0590
01A0
01A0
01A0
01A0
1280
A830
ENDCHAR
STARTCHAR k
ENCODING 107
SWIDTH 542 0
DWIDTH 5 0
BBX 5 7 0 0
BITMAP
590000
1A0000
1A3C30
1A7100
1CA000
1A8700
5C2E60
ENDCHAR
STARTCHAR l
ENCODING 108
SWIDTH 283 0
DWIDTH 3 0
BBX 3 7 0 0
BITMAP
5900
1A00
1A00
1A00
1A00
1A00
5C20
ENDCHAR
STARTCHAR m
ENCODING 109
SWIDTH 852 0
DWIDTH 8 0
BBX 8 5 0 0
BITMAP
5B7B6A70
1B0840B0
1A0740B0
1A0740B0
5C2B83E2
ENDCHAR
STARTCHAR n
ENCODING 110
SWIDTH 576 0
DWIDTH 5 0
BBX 5 5 0 0
BITMAP
6B8C10
1B0740
1A0650
1A0650
5C2A90
ENDCHAR
STARTCHAR o
ENCODING 111
SWIDTH 514 0
DWIDTH 5 0
BBX 5 5 0 0
BITMAP
186800
740A20
A20840
840920
196700
ENDCHAR
STARTCHAR p
ENCODING 112
SWIDTH 537 0
DWIDTH 5 0
BBX 5 7 0 -2
BITMAP
6A9C10
2A0760
290570
290650
2D6800
290000
6C2000
ENDCHAR
STARTCHAR q
ENCODING 113
SWIDTH 521 0
DWIDTH 5 0
BBX 5 7 0 -2
BITMAP
187C00
730B00
A20B00
940B00
3D8C00
000B00
003E30
ENDCHAR
STARTCHAR r
ENCODING 114
SWIDTH 380 0
DWIDTH 3 0
BBX 4 5 0 0
BITMAP
5AB4
1C00
1A00
1A00
5D20
ENDCHAR
STARTCHAR s
ENCODING 115
SWIDTH 395 0
DWIDTH 4 0
BBX 4 5 0 0
BITMAP
56A1
9530
2C90
40A4
8691
ENDCHAR
STARTCHAR t
ENCODING 116
SWIDTH 315 0
DWIDTH 3 0
BBX 3 7 0 0
BITMAP
0200
2800
6B40
3900
3900
3900
1C50
ENDCHAR
STARTCHAR u
ENCODING 117
SWIDTH 570 0
DWIDTH 5 0
BBX 5 5 0 0
BITMAP
781B30
380840
380840
290840
0B8A70
ENDCHAR
STARTCHAR v
ENCODING 118
SWIDTH 481 0
DWIDTH 4 0
BBX 5 5 0 0
BITMAP
B70A30
490700
0C2400
089000
039000
ENDCHAR
STARTCHAR w
ENCODING 119
SWIDTH 749 0
DWIDTH 7 0
BBX 8 5 -1 0
BITMAP
1B73D168
0490C161
00C29660
00891B50
00380B10
ENDCHAR
STARTCHAR x
ENCODING 120
SWIDTH 479 0
DWIDTH 4 0
BBX 5 5 0 0
BITMAP
8C2B10
0B6100
05A000
079400
945D20
ENDCHAR
STARTCHAR y
ENCODING 121
SWIDTH 483 0
DWIDTH 4 0
BBX 5 7 0 -2
BITMAP
B80A20
3A0700
0B3300
06B000
018000
043000
B70000
ENDCHAR
STARTCHAR z
ENCODING 122
SWIDTH 458 0
DWIDTH 4 0
BBX 4 5 0 0
BITMAP
8799
20C2
0670
1C04
9A7A
ENDCHAR
STARTCHAR braceleft
ENCODING 123
SWIDTH 327 0
DWIDTH 3 0
BBX 3 10 0 -2
BITMAP
0530
1900
1900
0A00
2700
7300
0900
1900
2800
0830
ENDCHAR
STARTCHAR bar
ENCODING 124
SWIDTH 267 0
DWIDTH 2 0
BBX 2 9 0 -2
BITMAP
17
17
17
17
17
17
17
17
17
ENDCHAR
STARTCHAR braceright
ENCODING 125
SWIDTH 327 0
DWIDTH 3 0
BBX 3 10 0 -2
BITMAP
3400
0A10
0A10
0A00
0710
0460
0900
0A00
0910
3800
ENDCHAR
STARTCHAR asciitilde
ENCODING 126
SWIDTH 557 0
DWIDTH 5 0
BBX 5 2 0 2
BITMAP
3B8480
706C30
ENDCHAR
STARTCHAR uni00A0
ENCODING 160
SWIDTH 235 0
DWIDTH 2 0
BBX 1 1 0 0
BITMAP
00
ENDCHAR
STARTCHAR exclamdown
ENCODING 161
SWIDTH 282 0
DWIDTH 3 0
BBX 2 7 0 -2
BITMAP
2A
02
06
08
19
2B
2A
ENDCHAR
STARTCHAR cent
ENCODING 162
SWIDTH 495 0
DWIDTH 4 0
BBX 4 7 0 0
BITMAP
0060
17AA
6364
8360
6863
09D5
0060
ENDCHAR
STARTCHAR sterling
ENCODING 163
SWIDTH 495 0
DWIDTH 4 0
BBX 5 7 0 0
BITMAP
028B10
090300
0B0000
4D8200
092000
5B1120
68C800
ENDCHAR
STARTCHAR currency
ENCODING 164
SWIDTH 617 0
DWIDTH 6 0
BBX 6 7 0 -1
BITMAP
400031
2B9A90
080170
260080
090370
488891
100010
ENDCHAR
STARTCHAR yen
ENCODING 165
SWIDTH 495 0
DWIDTH 4 0
BBX 5 7 0 0
BITMAP
870820
5A0700
0D2500
08A100
28D600
28C600
06D200
ENDCHAR
STARTCHAR brokenbar
ENCODING 166
SWIDTH 267 0
DWIDTH 2 0
BBX 2 7 0 0
BITMAP
17
17
17
00
17
17
17
ENDCHAR
STARTCHAR section
ENCODING 167
SWIDTH 491 0
DWIDTH 4 0
BBX 4 9 0 -2
BITMAP
0655
0916
0A60
15B4
3619
0C45
02C1
3446
2762
ENDCHAR
STARTCHAR dieresis
ENCODING 168
SWIDTH 392 0
DWIDTH 4 0
BBX 4 1 0 6
BITMAP
6271
ENDCHAR
STARTCHAR copyright
ENCODING 169
SWIDTH 781 0
DWIDTH 7 0
BBX 7 8 0 0
BITMAP
00555000
06000600
42758240
51901050
51A01050
42695140
06000600
00555100
ENDCHAR
STARTCHAR ordfeminine
ENCODING 170
SWIDTH 410 0
DWIDTH 4 0
BBX 4 4 0 2
BITMAP
5690
22B0
64A0
78B3
ENDCHAR
STARTCHAR guillemotleft
ENCODING 171
SWIDTH 517 0
DWIDTH 5 0
BBX 5 4 0 0
BITMAP
051600
657300
374600
031410
ENDCHAR
STARTCHAR logicalnot
ENCODING 172
SWIDTH 720 0
DWIDTH 6 0
BBX 6 4 0 0
BITMAP
5BBBB9
00000A
00000A
000003
ENDCHAR
STARTCHAR uni00AD
ENCODING 173
SWIDTH 315 0
DWIDTH 3 0
BBX 3 1 0 2
BITMAP
6A40
ENDCHAR
STARTCHAR registered
ENCODING 174
SWIDTH 413 0
DWIDTH 4 0
BBX 4 4 0 3
BITMAP
0530
2752
3543
1330
ENDCHAR
STARTCHAR macron
ENCODING 175
SWIDTH 350 0
DWIDTH 3 0
BBX 3 1 0 6
BITMAP
6870
ENDCHAR
STARTCHAR degree
ENCODING 176
SWIDTH 409 0
DWIDTH 4 0
BBX 4 4 0 4
BITMAP
1860
7162
7162
1860
ENDCHAR
STARTCHAR plusminus
ENCODING 177
SWIDTH 720 0
DWIDTH 6 0
BBX 6 7 0 0
BITMAP
000100
001800
001800
4AADA9
001800
001600
4AAAA9
ENDCHAR
STARTCHAR twosuperior
ENCODING 178
SWIDTH 373 0
DWIDTH 3 0
BBX 4 5 0 2
BITMAP
4890
10B0
0180
0811
9AB1
ENDCHAR
STARTCHAR threesuperior
ENCODING 179
SWIDTH 374 0
DWIDTH 3 0
BBX 3 5 0 2
BITMAP
4980
0090
0960
00A0
6560
ENDCHAR
STARTCHAR acute
ENCODING 180
SWIDTH 222 0
DWIDTH 2 0
BBX 2 2 0 5
BITMAP
15
72
ENDCHAR
STARTCHAR uni00B5
ENCODING 181
SWIDTH 556 0
DWIDTH 5 0
BBX 5 8 0 -3
BITMAP
570B10
550900
530900
553A00
7A9780
820000
930000
100000
ENDCHAR
STARTCHAR paragraph
ENCODING 182
SWIDTH 605 0
DWIDTH 5 0
BBX 5 9 0 -2
BITMAP
18BA70
649810
749810
28A810
00A810
009810
009810
00A820
025340
ENDCHAR
STARTCHAR periodcentered
ENCODING 183
SWIDTH 282 0
DWIDTH 3 0
BBX 2 2 0 1
BITMAP
3A
01
ENDCHAR
STARTCHAR cedilla
ENCODING 184
SWIDTH 247 0
DWIDTH 2 0
BBX 2 3 0 -2
BITMAP
10
36
46
ENDCHAR
STARTCHAR onesuperior
ENCODING 185
SWIDTH 343 0
DWIDTH 3 0
BBX 3 5 0 2
BITMAP
3C00
0A00
0A00
0A00
2D30
ENDCHAR
STARTCHAR ordmasculine
ENCODING 186
SWIDTH 432 0
DWIDTH 4 0
BBX 4 4 0 2
BITMAP
3782
A028
A128
3772
ENDCHAR
STARTCHAR guillemotright
ENCODING 187
SWIDTH 517 0
DWIDTH 5 0
BBX 5 4 0 0
BITMAP
334200
083920
092910
314000
ENDCHAR
STARTCHAR onequarter
ENCODING 188
SWIDTH 861 0
DWIDTH 8 0
BBX 8 8 0 0
BITMAP
02000100
3B000700
0A005200
0A016070
0A0615C0
39461790
007069D5
01400060
ENDCHAR
STARTCHAR onehalf
ENCODING 189
SWIDTH 889 0
DWIDTH 8 0
BBX 8 8 0 0
BITMAP
01000100
3B000700
0A005200
0A0075A3
0A061338
39360064
00700342
01501CB8
ENDCHAR
STARTCHAR threequarters
ENCODING 190
SWIDTH 861 0
DWIDTH 8 0
BBX 8 8 0 0
BITMAP
00000100
39600700
20905200
09616000
10A612B0
66561790
007069D5
01400060
ENDCHAR
STARTCHAR questiondown
ENCODING 191
SWIDTH 411 0
DWIDTH 4 0
BBX 4 7 0 -2
BITMAP
0850
0100
0600
1800
8300
A256
4882
ENDCHAR
STARTCHAR Agrave
ENCODING 192
SWIDTH 718 0
DWIDTH 6 0
BBX 7 9 0 0
BITMAP
00520000
00280000
00380000
007C0000
00794000
0434A000
0866E100
17009600
98009D20
ENDCHAR
STARTCHAR Aacute
ENCODING 193
SWIDTH 718 0
DWIDTH 6 0
BBX 7 9 0 0
BITMAP
00071000
00550000
00380000
007C0000
00794000
0434A000
0866E100
17009600
98009D20
ENDCHAR
STARTCHAR Acircumflex
ENCODING 194
SWIDTH 718 0
DWIDTH 6 0
BBX 7 9 0 0
BITMAP
00250000
00873000
00380000
007C0000
00794000
0434A000
0866E100
17009600
98009D20
ENDCHAR
STARTCHAR Atilde
ENCODING 195
SWIDTH 718 0
DWIDTH 6 0
BBX 7 8 0 0
BITMAP
01894000
00380000
007C0000
00794000
0434A000
0866E100
17009600
98009D20
ENDCHAR
STARTCHAR Adieresis
ENCODING 196
SWIDTH 718 0
DWIDTH 6 0
BBX 7 8 0 0
BITMAP
03838000
00381000
007C0000
00794000
0434A000
0866E100
17009600
98009D20
ENDCHAR
STARTCHAR Aring
ENCODING 197
SWIDTH 718 0
DWIDTH 6 0
BBX 7 10 0 0
BITMAP
00460000
00651000
00460000
00380000
007C0000
00794000
0434A000
0866E100
17009600
98009D20
ENDCHAR
STARTCHAR AE
ENCODING 198
SWIDTH 894 0
DWIDTH 8 0
BBX 9 7 -1 0
BITMAP
0002DB7970
0003780040
0006480200
00399B7A00
0070480500
0250480040
1B619B7890
ENDCHAR
STARTCHAR Ccedilla
ENCODING 199
SWIDTH 670 0
DWIDTH 6 0
BBX 6 9 0 -2
BITMAP
0487C7
2B0027
670002
860000
780000
2D1003
05CA81
002700
003700
ENDCHAR
STARTCHAR Egrave
ENCODING 200
SWIDTH 626 0
DWIDTH 6 0
BBX 6 9 0 0
BITMAP
007000
004600
3E77C1
0C0031
0C0050
0C7960
0C0020
0C0024
3E77C3
ENDCHAR
STARTCHAR Eacute
ENCODING 201
SWIDTH 626 0
DWIDTH 6 0
BBX 6 9 0 0
BITMAP
001600
008200
3E77C1
0C0031
0C0050
0C7960
0C0020
0C0024
3E77C3
ENDCHAR
STARTCHAR Ecircumflex
ENCODING 202
SWIDTH 626 0
DWIDTH 6 0
BBX 6 9 0 0
BITMAP
005300
027800
3E77C1
0C0031
0C0050
0C7960
0C0020
0C0024
3E77C3
ENDCHAR
STARTCHAR Edieresis
ENCODING 203
SWIDTH 626 0
DWIDTH 6 0
BBX 6 8 0 0
BITMAP
074840
3F77C1
0C0031
0C0050
0C7960
0C0020
0C0024
3E77C3
ENDCHAR
STARTCHAR Igrave
ENCODING 204
SWIDTH 357 0
DWIDTH 3 0
BBX 3 9 0 0
BITMAP
2500
0730
4E60
0C00
0C00
0C00
0C00
0C00
4E60
ENDCHAR
STARTCHAR Iacute
ENCODING 205
SWIDTH 357 0
DWIDTH 3 0
BBX 3 9 0 0
BITMAP
0340
1910
4E60
0C00
0C00
0C00
0C00
0C00
4E60
ENDCHAR
STARTCHAR Icircumflex
ENCODING 206
SWIDTH 357 0
DWIDTH 3 0
BBX 3 9 0 0
BITMAP
0610
5670
4E60
0C00
0C00
0C00
0C00
0C00
4E60
ENDCHAR
STARTCHAR Idieresis
ENCODING 207
SWIDTH 357 0
DWIDTH 3 0
BBX 4 8 0 0
BITMAP
B1B1
4E70
0C00
0C00
0C00
0C00
0C00
4E60
ENDCHAR
STARTCHAR Eth
ENCODING 208
SWIDTH 737 0
DWIDTH 7 0
BBX 7 7 0 0
BITMAP
3E779100
0C105B00
0C100E10
5D850D20
0C100D10
0C103B00
3E779100
ENDCHAR
STARTCHAR Ntilde
ENCODING 209
SWIDTH 742 0
DWIDTH 7 0
BBX 7 8 0 0
BITMAP
00796000
5E204C20
0BB00700
07A60700
071D2700
0705A700
0700A900
4C201800
ENDCHAR
STARTCHAR Ograve
ENCODING 210
SWIDTH 738 0
DWIDTH 7 0
BBX 7 9 0 0
BITMAP
00430000
00190000
04869200
2C002B00
68000D10
86000C20
78000D10
2C002B00
05868100
ENDCHAR
STARTCHAR Oacute
ENCODING 211
SWIDTH 738 0
DWIDTH 7 0
BBX 7 9 0 0
BITMAP
00062000
00370000
04869200
2C002B00
68000D10
86000C20
78000D10
2C002B00
05868100
ENDCHAR
STARTCHAR Ocircumflex
ENCODING 212
SWIDTH 738 0
DWIDTH 7 0
BBX 7 9 0 0
BITMAP
00160000
00764000
04869200
2C002B00
68000D10
86000C20
78000D10
2C002B00
05868100
ENDCHAR
STARTCHAR Otilde
ENCODING 213
SWIDTH 738 0
DWIDTH 7 0
BBX 7 8 0 0
BITMAP
00795000
04869200
2C002B00
68000D10
86000C20
78000D10
2C002B00
05868100
ENDCHAR
STARTCHAR Odieresis
ENCODING 214
SWIDTH 738 0
DWIDTH 7 0
BBX 7 8 0 0
BITMAP
01A1A000
0496A200
2C002B00
68000D10
86000C20
78000D10
2C002B00
05868100
ENDCHAR
STARTCHAR multiply
ENCODING 215
SWIDTH 720 0
DWIDTH 6 0
BBX 6 6 0 -1
BITMAP
170027
0672A1
007D10
02A670
1A1067
010001
ENDCHAR
STARTCHAR Oslash
ENCODING 216
SWIDTH 737 0
DWIDTH 7 0
BBX 7 7 0 0
BITMAP
05869600
2B008B00
67052D10
86150C20
67600D10
2D202A00
28868100
ENDCHAR
STARTCHAR Ugrave
ENCODING 217
SWIDTH 752 0
DWIDTH 7 0
BBX 7 9 0 0
BITMAP
00250000
00082000
5F403D30
0D000800
0C000800
0C000800
0C000700
0B201700
03B99100
ENDCHAR
STARTCHAR Uacute
ENCODING 218
SWIDTH 752 0
DWIDTH 7 0
BBX 7 9 0 0
BITMAP
00044000
00190000
5F403D30
0D000800
0C000800
0C000800
0C000700
0B201700
03B99100
ENDCHAR
STARTCHAR Ucircumflex
ENCODING 219
SWIDTH 752 0
DWIDTH 7 0
BBX 7 9 0 0
BITMAP
00071000
00567000
5F403D30
0D000800
0C000800
0C000800
0C000700
0B201700
03B99100
ENDCHAR
STARTCHAR Udieresis
ENCODING 220
SWIDTH 752 0
DWIDTH 7 0
BBX 7 8 0 0
BITMAP
00B0B000
5F504D30
0D000800
0C000800
0C000800
0C000700
0B201700
03B99100
ENDCHAR
STARTCHAR Yacute
ENCODING 221
SWIDTH 647 0
DWIDTH 6 0
BBX 6 9 0 0
BITMAP
000700
006400
9D20B6
0C3070
05A520
00C700
007500
007500
02BA10
ENDCHAR
STARTCHAR Thorn
ENCODING 222
SWIDTH 572 0
DWIDTH 5 0
BBX 5 7 0 0
BITMAP
4E7000
0C6810
0C03A0
0C01C0
0C0490
0C7710
4E6000
ENDCHAR
STARTCHAR germandbls
ENCODING 223
SWIDTH 563 0
DWIDTH 5 0
BBX 5 7 0 0
BITMAP
075910
0A0920
5A6600
1A1A40
1A03A0
1A21B0
6AA740
ENDCHAR
STARTCHAR agrave
ENCODING 224
SWIDTH 480 0
DWIDTH 4 0
BBX 5 7 0 0
BITMAP
060000
045000
379300
425700
168700
834700
6B8B10
ENDCHAR
STARTCHAR aacute
ENCODING 225
SWIDTH 480 0
DWIDTH 4 0
BBX 5 7 0 0
BITMAP
006000
036000
379300
425700
168700
834700
6B8B10
ENDCHAR
STARTCHAR acircumflex
ENCODING 226
SWIDTH 480 0
DWIDTH 4 0
BBX 5 7 0 0
BITMAP
034000
076100
379300
425700
168700
834700
6B8B10
ENDCHAR
STARTCHAR atilde
ENCODING 227
SWIDTH 480 0
DWIDTH 4 0
BBX 5 6 0 0
BITMAP
189300
379300
425700
168700
834700
6B8B10
ENDCHAR
STARTCHAR adieresis
ENCODING 228
SWIDTH 480 0
DWIDTH 4 0
BBX 5 7 0 0
BITMAP
353500
000000
379300
425700
168700
834700
6B8B10
ENDCHAR
STARTCHAR aring
ENCODING 229
SWIDTH 480 0
DWIDTH 4 0
BBX 5 8 0 0
BITMAP
056000
066000
056000
379300
425700
168700
834700
6B8B10
ENDCHAR
STARTCHAR ae
ENCODING 230
SWIDTH 709 0
DWIDTH 6 0
BBX 6 5 0 0
BITMAP
479878
119A6A
386600
935A03
6A6AB6
ENDCHAR
STARTCHAR ccedilla
ENCODING 231
SWIDTH 446 0
DWIDTH 4 0
BBX 4 7 0 -2
BITMAP
1796
8215
A100
9403
2CB4
0180
0390
ENDCHAR
STARTCHAR egrave
ENCODING 232
SWIDTH 464 0
DWIDTH 4 0
BBX 4 7 0 0
BITMAP
0510
0360
2785
8768
A100
8603
1CB4
ENDCHAR
STARTCHAR eacute
ENCODING 233
SWIDTH 464 0
DWIDTH 4 0
BBX 4 7 0 0
BITMAP
0061
0270
2785
8768
A100
8603
1CB4
ENDCHAR
STARTCHAR ecircumflex
ENCODING 234
SWIDTH 464 0
DWIDTH 4 0
BBX 4 7 0 0
BITMAP
0250
0762
2785
8768
A100
8603
1CB4
ENDCHAR
STARTCHAR edieresis
ENCODING 235
SWIDTH 464 0
DWIDTH 4 0
BBX 4 7 0 0
BITMAP
2626
0000
2785
8768
A100
8603
1CB4
ENDCHAR
STARTCHAR igrave
ENCODING 236
SWIDTH 285 0
DWIDTH 3 0
BBX 3 7 0 0
BITMAP
6100
3500
5A00
1A00
1A00
1A00
5C10
ENDCHAR
STARTCHAR iacute
ENCODING 237
SWIDTH 285 0
DWIDTH 3 0
BBX 3 7 0 0
BITMAP
0600
2600
5A00
1A00
1A00
1A00
5C10
ENDCHAR
STARTCHAR icircumflex
ENCODING 238
SWIDTH 285 0
DWIDTH 3 0
BBX 3 7 0 0
BITMAP
6900
4210
5A00
1A00
1A00
1A00
5C10
ENDCHAR
STARTCHAR idieresis
ENCODING 239
SWIDTH 285 0
DWIDTH 3 0
BBX 4 7 -1 0
BITMAP
2966
0100
05A0
01A0
01A0
01A0
05C1
ENDCHAR
STARTCHAR eth
ENCODING 240
SWIDTH 532 0
DWIDTH 5 0
BBX 5 7 0 0
BITMAP
169610
014A00
186C20
840940
A20850
840A20
296700
ENDCHAR
STARTCHAR ntilde
ENCODING 241
SWIDTH 576 0
DWIDTH 5 0
BBX 5 6 0 0
BITMAP
049800
6B8C10
1B0740
1A0650
1A0650
5C2A90
ENDCHAR
STARTCHAR ograve
ENCODING 242
SWIDTH 514 0
DWIDTH 5 0
BBX 5 7 0 0
BITMAP
042000
017000
186800
740A20
A20840
840920
196700
ENDCHAR
STARTCHAR oacute
ENCODING 243
SWIDTH 514 0
DWIDTH 5 0
BBX 5 7 0 0
BITMAP
005200
008000
186800
740A20
A20840
840920
196700
ENDCHAR
STARTCHAR ocircumflex
ENCODING 244
SWIDTH 514 0
DWIDTH 5 0
BBX 5 7 0 0
BITMAP
016000
065400
186800
740A20
A20840
840920
196700
ENDCHAR
STARTCHAR otilde
ENCODING 245
SWIDTH 514 0
DWIDTH 5 0
BBX 5 6 0 0
BITMAP
079500
186800
740A20
A20840
840920
196700
ENDCHAR
STARTCHAR odieresis
ENCODING 246
SWIDTH 514 0
DWIDTH 5 0
BBX 5 7 0 0
BITMAP
181700
000000
186800
740A20
A20840
840920
196700
ENDCHAR
STARTCHAR divide
ENCODING 247
SWIDTH 720 0
DWIDTH 6 0
BBX 6 6 0 0
BITMAP
002900
000100
000000
5AAAAA
000000
002900
ENDCHAR
STARTCHAR oslash
ENCODING 248
SWIDTH 514 0
DWIDTH 5 0
BBX 5 5 0 0
BITMAP
187B00
745B20
A44840
890920
596700
ENDCHAR
STARTCHAR ugrave
ENCODING 249
SWIDTH 570 0
DWIDTH 5 0
BBX 5 7 0 0
BITMAP
033000
018000
781B30
380840
380840
290840
0B8A70
ENDCHAR
STARTCHAR uacute
ENCODING 250
SWIDTH 570 0
DWIDTH 5 0
BBX 5 7 0 0
BITMAP
004300
008000
781B30
380840
380840
290840
0B8A70
ENDCHAR
STARTCHAR ucircumflex
ENCODING 251
SWIDTH 570 0
DWIDTH 5 0
BBX 5 7 0 0
BITMAP
007000
065500
781B30
380840
380840
290840
0B8A70
ENDCHAR
STARTCHAR udieresis
ENCODING 252
SWIDTH 570 0
DWIDTH 5 0
BBX 5 7 0 0
BITMAP
080800
000000
781B30
380840
380840
290840
0B8A70
ENDCHAR
STARTCHAR yacute
ENCODING 253
SWIDTH 483 0
DWIDTH 4 0
BBX 5 9 0 -2
BITMAP
005200
008000
B80A20
3A0700
0B3300
06B000
018000
043000
B70000
ENDCHAR
STARTCHAR thorn
ENCODING 254
SWIDTH 524 0
DWIDTH 5 0
BBX 5 9 0 -2
BITMAP
770000
470000
4A9B00
480940
470760
470830
4C6700
470000
8B1000
ENDCHAR
STARTCHAR ydieresis
ENCODING 255
SWIDTH 483 0
DWIDTH 4 0
BBX 5 9 0 -2
BITMAP
181700
000000
B80A20
3A0700
0B3300
06B000
018000
043000
B70000
ENDCHAR
STARTCHAR Amacron
ENCODING 256
SWIDTH 718 0
DWIDTH 6 0
BBX 7 8 0 0
BITMAP
01884000
00380000
007C0000
00794000
0434A000
0866E100
17009600
98009D20
ENDCHAR
STARTCHAR amacron
ENCODING 257
SWIDTH 480 0
DWIDTH 4 0
BBX 5 7 0 0
BITMAP
288300
000000
379300
425700
168700
834700
6B8B10
ENDCHAR
STARTCHAR Abreve
ENCODING 258
SWIDTH 718 0
DWIDTH 6 0
BBX 7 9 0 0
BITMAP
01303000
008A2000
00380000
007C0000
00794000
0434A000
0866E100
17009600
98009D20
ENDCHAR
STARTCHAR abreve
ENCODING 259
SWIDTH 480 0
DWIDTH 4 0
BBX 5 7 0 0
BITMAP
221300
0AB100
379300
425700
168700
834700
6B8B10
ENDCHAR
STARTCHAR Aogonek
ENCODING 260
SWIDTH 719 0
DWIDTH 6 0
BBX 7 9 0 -2
BITMAP
00380000
007D0000
00795000
0444A000
0866E100
07008600
8801AD20
00081000
00096000
ENDCHAR
STARTCHAR aogonek
ENCODING 261
SWIDTH 480 0
DWIDTH 4 0
BBX 5 7 0 -2
BITMAP
379300
425700
168700
834700
6B8B10
004300
007810
ENDCHAR
STARTCHAR Cacute
ENCODING 262
SWIDTH 670 0
DWIDTH 6 0
BBX 6 9 0 0
BITMAP
000520
003700
0487C7
2B0027
670002
860000
780000
2D1003
05B981
ENDCHAR
STARTCHAR cacute
ENCODING 263
SWIDTH 446 0
DWIDTH 4 0
BBX 4 7 0 0
BITMAP
0061
0270
1796
8114
A100
8503
2CB4
ENDCHAR
STARTCHAR Ccircumflex
ENCODING 264
SWIDTH 670 0
DWIDTH 6 0
BBX 6 9 0 0
BITMAP
001700
007650
0487C7
2B0027
670002
860000
780000
2D1003
05B981
ENDCHAR
STARTCHAR ccircumflex
ENCODING 265
SWIDTH 446 0
DWIDTH 4 0
BBX 4 7 0 0
BITMAP
0250
0762
1796
8114
A100
8503
2CB4
ENDCHAR
STARTCHAR Cdotaccent
ENCODING 266
SWIDTH 670 0
DWIDTH 6 0
BBX 6 8 0 0
BITMAP
000B00
0488C7
2B0027
670002
860000
780000
2D1003
05B981
ENDCHAR
STARTCHAR cdotaccent
ENCODING 267
SWIDTH 446 0
DWIDTH 4 0
BBX 4 7 0 0
BITMAP
0260
0000
1796
8114
A100
8503
2CB4
ENDCHAR
STARTCHAR Ccaron
ENCODING 268
SWIDTH 670 0
DWIDTH 6 0
BBX 6 9 0 0
BITMAP
004030
004C20
0487C7
2B0027
670002
860000
780000
2D1003
05B981
ENDCHAR
STARTCHAR ccaron
ENCODING 269
SWIDTH 446 0
DWIDTH 4 0
BBX 4 7 0 0
BITMAP
0312
0690
1796
8114
A100
8503
2CB4
ENDCHAR
STARTCHAR Dcaron
ENCODING 270
SWIDTH 730 0
DWIDTH 7 0
BBX 7 9 0 0
BITMAP
01322000
00890000
3E779100
0C005A00
0C000E10
0C000D20
0C000D00
0C003A00
3E678100
ENDCHAR
STARTCHAR dcaron
ENCODING 271
SWIDTH 626 0
DWIDTH 6 0
BBX 6 7 0 0
BITMAP
002C56
000B52
187E00
730C00
A20B00
940B00
2D8C40
ENDCHAR
STARTCHAR Dcroat
ENCODING 272
SWIDTH 733 0
DWIDTH 7 0
BBX 7 7 0 0
BITMAP
3E678100
0C006A00
0C000E10
5E840D20
0C000E00
0C004A00
4E679100
ENDCHAR
STARTCHAR dcroat
ENCODING 273
SWIDTH 540 0
DWIDTH 5 0
BBX 5 7 0 0
BITMAP
002D00
016D40
187E00
730C00
A20C00
940C00
2D8C40
ENDCHAR
STARTCHAR Emacron
ENCODING 274
SWIDTH 626 0
DWIDTH 6 0
BBX 6 8 0 0
BITMAP
048820
3E77C1
0C0031
0C0050
0C7960
0C0020
0C0024
3E77C3
ENDCHAR
STARTCHAR emacron
ENCODING 275
SWIDTH 464 0
DWIDTH 4 0
BBX 4 7 0 0
BITMAP
1884
0000
2785
8768
A100
8603
1CB4
ENDCHAR
STARTCHAR Ebreve
ENCODING 276
SWIDTH 626 0
DWIDTH 6 0
BBX 6 9 0 0
BITMAP
030210
01A900
3E77C1
0C0031
0C0050
0C7960
0C0020
0C0024
3E77C3
ENDCHAR
STARTCHAR ebreve
ENCODING 277
SWIDTH 464 0
DWIDTH 4 0
BBX 4 7 0 0
BITMAP
1203
09B2
2785
8768
A100
8603
1CB4
ENDCHAR
STARTCHAR Edotaccent
ENCODING 278
SWIDTH 626 0
DWIDTH 6 0
BBX 6 8 0 0
BITMAP
008400
3E87C1
0C0031
0C0050
0C7960
0C0020
0C0024
3E77C3
ENDCHAR
STARTCHAR edotaccent
ENCODING 279
SWIDTH 464 0
DWIDTH 4 0
BBX 4 7 0 0
BITMAP
0260
0000
2785
8768
A100
8603
1CB4
ENDCHAR
STARTCHAR Eogonek
ENCODING 280
SWIDTH 625 0
DWIDTH 6 0
BBX 6 9 0 -2
BITMAP
3E77C1
0C0031
0C0050
0C7950
0C0020
0C0014
3E77B3
000430
000681
ENDCHAR
STARTCHAR eogonek
ENCODING 281
SWIDTH 464 0
DWIDTH 4 0
BBX 4 7 0 -2
BITMAP
2785
8768
A100
8603
1CB3
0230
0492
ENDCHAR
STARTCHAR Ecaron
ENCODING 282
SWIDTH 626 0
DWIDTH 6 0
BBX 6 9 0 0
BITMAP
022300
00A700
3E77C1
0C0031
0C0050
0C7960
0C0020
0C0024
3E77C3
ENDCHAR
STARTCHAR ecaron
ENCODING 283
SWIDTH 464 0
DWIDTH 4 0
BBX 4 7 0 0
BITMAP
0312
0690
2785
8768
A100
8603
1CB4
ENDCHAR
STARTCHAR Gcircumflex
ENCODING 284
SWIDTH 720 0
DWIDTH 6 0
BBX 7 9 0 0
BITMAP
00170000
00765000
0487C700
2B001700
67000200
86008910
68004800
2C004800
05979400
ENDCHAR
STARTCHAR gcircumflex
ENCODING 285
SWIDTH 484 0
DWIDTH 4 0
BBX 5 9 0 -2
BITMAP
025000
076200
289B20
752A00
497200
430000
6DB900
700720
8A8600
ENDCHAR
STARTCHAR Gbreve
ENCODING 286
SWIDTH 720 0
DWIDTH 6 0
BBX 7 9 0 0
BITMAP
00404000
006A4000
0487C700
2B001700
67000200
86008910
68004800
2C004800
05979400
ENDCHAR
STARTCHAR gbreve
ENCODING 287
SWIDTH 484 0
DWIDTH 4 0
BBX 5 9 0 -2
BITMAP
120300
09B200
289B20
752A00
497200
430000
6DB900
700720
8A8600
ENDCHAR
STARTCHAR Gdotaccent
ENCODING 288
SWIDTH 720 0
DWIDTH 6 0
BBX 7 8 0 0
BITMAP
001B0000
0488C700
2B001700
67000200
86008910
68004800
2C004800
05979400
ENDCHAR
STARTCHAR gdotaccent
ENCODING 289
SWIDTH 484 0
DWIDTH 4 0
BBX 5 9 0 -2
BITMAP
026000
000000
289B20
752A00
497200
430000
6DB900
700720
8A8600
ENDCHAR
STARTCHAR Gcommaaccent
ENCODING 290
SWIDTH 720 0
DWIDTH 6 0
BBX 7 10 0 -3
BITMAP
0487C700
2B001700
67000200
86008910
68004800
2C004800
05979400
00000000
00290000
00160000
ENDCHAR
STARTCHAR gcommaaccent
ENCODING 291
SWIDTH 484 0
DWIDTH 4 0
BBX 5 9 0 -2
BITMAP
034000
047000
289B20
752A00
497200
430000
6DB900
700720
8A8600
ENDCHAR
STARTCHAR Hcircumflex
ENCODING 292
SWIDTH 777 0
DWIDTH 7 0
BBX 7 9 0 0
BITMAP
00070000
00666000
4E606E40
0C100C00
0C000C00
0C766C00
0C000C00
0C100C00
3E606E30
ENDCHAR
STARTCHAR hcircumflex
ENCODING 293
SWIDTH 577 0
DWIDTH 5 0
BBX 5 9 0 0
BITMAP
007000
066500
590000
1A0000
1B8C10
1A0750
1A0650
1A0650
5C2A90
ENDCHAR
STARTCHAR Hbar
ENCODING 294
SWIDTH 788 0
DWIDTH 7 0
BBX 7 7 0 0
BITMAP
3E706F40
0C100D00
4D666D40
0C666D00
0C100C00
0C100D00
3E705E40
ENDCHAR
STARTCHAR hbar
ENCODING 295
SWIDTH 579 0
DWIDTH 5 0
BBX 5 7 0 0
BITMAP
5A0000
6C6100
1B8C10
1B0750
1A0650
1A0650
5D2A90
ENDCHAR
STARTCHAR Itilde
ENCODING 296
SWIDTH 357 0
DWIDTH 3 0
BBX 3 8 0 0
BITMAP
5980
4E60
0C00
0C00
0C00
0C00
0C00
4E60
ENDCHAR
STARTCHAR itilde
ENCODING 297
SWIDTH 285 0
DWIDTH 3 0
BBX 4 7 -1 0
BITMAP
0934
1292
05A0
01A0
01A0
01A0
05C1
ENDCHAR
STARTCHAR Imacron
ENCODING 298
SWIDTH 357 0
DWIDTH 3 0
BBX 3 8 0 0
BITMAP
6880
4E60
0C00
0C00
0C00
0C00
0C00
4E60
ENDCHAR
STARTCHAR imacron
ENCODING 299
SWIDTH 285 0
DWIDTH 3 0
BBX 3 7 0 0
BITMAP
8820
0000
5A00
1A00
1A00
1A00
5C10
ENDCHAR
STARTCHAR Ibreve
ENCODING 300
SWIDTH 357 0
DWIDTH 3 0
BBX 3 9 0 0
BITMAP
4040
4A60
4E60
0C00
0C00
0C00
0C00
0C00
4E60
ENDCHAR
STARTCHAR ibreve
ENCODING 301
SWIDTH 285 0
DWIDTH 3 0
BBX 3 7 0 0
BITMAP
5230
7900
5A00
1A00
1A00
1A00
5C10
ENDCHAR
STARTCHAR Iogonek
ENCODING 302
SWIDTH 357 0
DWIDTH 3 0
BBX 3 9 0 -2
BITMAP
4E60
0C00
0C00
0C00
0C00
0C00
4E60
0700
2A40
ENDCHAR
STARTCHAR iogonek
ENCODING 303
SWIDTH 285 0
DWIDTH 3 0
BBX 3 9 0 -2
BITMAP
2A00
0100
5A00
1A00
1A00
1A00
5C10
4300
7810
ENDCHAR
STARTCHAR Idotaccent
ENCODING 304
SWIDTH 357 0
DWIDTH 3 0
BBX 3 8 0 0
BITMAP
0B10
4F60
0C00
0C00
0C00
0C00
0C00
4E60
ENDCHAR
STARTCHAR dotlessi
ENCODING 305
SWIDTH 285 0
DWIDTH 3 0
BBX 3 5 0 0
BITMAP
5A00
1A00
1A00
1A00
5C10
ENDCHAR
STARTCHAR IJ
ENCODING 306
SWIDTH 753 0
DWIDTH 7 0
BBX 7 7 0 0
BITMAP
4E607E30
0C001C00
0C001C00
0C001C00
0C001C00
0C021B00
4E698600
ENDCHAR
STARTCHAR ij
ENCODING 307
SWIDTH 548 0
DWIDTH 5 0
BBX 5 9 0 -2
BITMAP
2A0930
010100
5A1B30
1A0830
1A0830
1A0830
5C1830
001820
02B700
ENDCHAR
STARTCHAR Jcircumflex
ENCODING 308
SWIDTH 396 0
DWIDTH 4 0
BBX 4 9 0 0
BITMAP
0350
0872
19C2
0480
0480
0480
0480
2480
B830
ENDCHAR
STARTCHAR jcircumflex
ENCODING 309
SWIDTH 263 0
DWIDTH 2 0
BBX 4 9 -1 -2
BITMAP
0250
0762
0590
01A0
01A0
01A0
01A0
1280
A830
ENDCHAR
STARTCHAR Kcommaaccent
ENCODING 310
SWIDTH 702 0
DWIDTH 6 0
BBX 7 10 0 -3
BITMAP
4E62E600
0C054000
0C350000
0CC10000
0C4C1000
0C06A000
4E62EA10
00000000
00380000
00160000
ENDCHAR
STARTCHAR kcommaaccent
ENCODING 311
SWIDTH 542 0
DWIDTH 5 0
BBX 5 10 0 -3
BITMAP
590000
1A0000
1A3C30
1A7100
1CA000
1A8700
5C2E60
000000
00A000
007000
ENDCHAR
STARTCHAR kgreenlandic
ENCODING 312
SWIDTH 542 0
DWIDTH 5 0
BBX 5 5 0 0
BITMAP
5A2C40
1A6200
1D9000
1A8600
5C2E60
ENDCHAR
STARTCHAR Lacute
ENCODING 313
SWIDTH 585 0
DWIDTH 5 0
BBX 6 9 0 0
BITMAP
016000
073000
3E6000
0C1000
0C0000
0C0000
0C0000
0C0051
3E87C0
ENDCHAR
STARTCHAR lacute
ENCODING 314
SWIDTH 283 0
DWIDTH 3 0
BBX 3 9 0 0
BITMAP
0520
3700
5900
1A00
1A00
1A00
1A00
1A00
5C20
ENDCHAR
STARTCHAR Lcommaaccent
ENCODING 315
SWIDTH 585 0
DWIDTH 5 0
BBX 6 10 0 -3
BITMAP
3E6000
0C1000
0C0000
0C0000
0C0000
0C0051
3E87C0
000000
009200
006100
ENDCHAR
STARTCHAR lcommaaccent
ENCODING 316
SWIDTH 283 0
DWIDTH 3 0
BBX 3 10 0 -3
BITMAP
5900
1A00
1A00
1A00
1A00
1A00
5C20
0000
2900
1600
ENDCHAR
STARTCHAR Lcaron
ENCODING 317
SWIDTH 585 0
DWIDTH 5 0
BBX 6 7 0 0
BITMAP
3E6380
0C1430
0C0000
0C0000
0C0000
0C0051
3E87C0
ENDCHAR
STARTCHAR lcaron
ENCODING 318
SWIDTH 366 0
DWIDTH 3 0
BBX 4 7 0 0
BITMAP
59A1
1A70
1A00
1A00
1A00
1A00
5C20
ENDCHAR
STARTCHAR Ldot
ENCODING 319
SWIDTH 605 0
DWIDTH 5 0
BBX 6 7 0 0
BITMAP
3E6000
0C1000
0C0170
0C0000
0C0000
0C0051
3E87C0
ENDCHAR
STARTCHAR ldot
ENCODING 320
SWIDTH 357 0
DWIDTH 3 0
BBX 4 7 0 0
BITMAP
5900
1A00
1A53
1A00
1A00
1A00
5C20
ENDCHAR
STARTCHAR Lslash
ENCODING 321
SWIDTH 590 0
DWIDTH 5 0
BBX 6 7 0 0
BITMAP
3E7000
0C1000
0C5400
1D3000
4C1000
0C1051
3E87C0
ENDCHAR
STARTCHAR lslash
ENCODING 322
SWIDTH 290 0
DWIDTH 3 0
BBX 3 7 0 0
BITMAP
5A00
1A00
1C30
5B00
3A00
1A00
5C20
ENDCHAR
STARTCHAR Nacute
ENCODING 323
SWIDTH 742 0
DWIDTH 7 0
BBX 7 9 0 0
BITMAP
00052000
00280000
5E204C20
0BB00700
07A60700
071D2700
0705A700
0700A900
4C201800
ENDCHAR
STARTCHAR nacute
ENCODING 324
SWIDTH 576 0
DWIDTH 5 0
BBX 5 7 0 0
BITMAP
002500
007200
6B8C10
1B0740
1A0650
1A0650
5C2A90
ENDCHAR
STARTCHAR Ncommaaccent
ENCODING 325
SWIDTH 742 0
DWIDTH 7 0
BBX 7 10 0 -3
BITMAP
5E204C20
0BB00700
07A60700
071D2700
0705A700
0700A900
4C201800
00000000
00290000
00160000
ENDCHAR
STARTCHAR ncommaaccent
ENCODING 326
SWIDTH 576 0
DWIDTH 5 0
BBX 5 8 0 -3
BITMAP
6B8C10
1B0740
1A0650
1A0650
5C2A90
000000
00A100
007000
ENDCHAR
STARTCHAR Ncaron
ENCODING 327
SWIDTH 742 0
DWIDTH 7 0
BBX 7 9 0 0
BITMAP
00403000
004C2000
5E204C20
0BB00700
07A60700
071D2700
0705A700
0700A900
4C201800
ENDCHAR
STARTCHAR ncaron
ENCODING 328
SWIDTH 576 0
DWIDTH 5 0
BBX 5 7 0 0
BITMAP
031300
01A500
6B8C10
1B0740
1A0650
1A0650
5C2A90
ENDCHAR
STARTCHAR napostrophe
ENCODING 329
SWIDTH 576 0
DWIDTH 5 0
BBX 7 7 -2 0
BITMAP
4B000000
07000000
126B8C10
001B0740
001A0650
001A0650
005C2A90
ENDCHAR
STARTCHAR Eng
ENCODING 330
SWIDTH 742 0
DWIDTH 7 0
BBX 7 9 0 -2
BITMAP
5E204C20
0BB00700
07B60700
072D1700
07069700
0700C900
4C203900
00010600
000B8300
ENDCHAR
STARTCHAR eng
ENCODING 331
SWIDTH 559 0
DWIDTH 5 0
BBX 5 7 0 -2
BITMAP
6B8C10
1B0750
1A0650
1A0650
5C2650
001740
01B800
ENDCHAR
STARTCHAR Omacron
ENCODING 332
SWIDTH 738 0
DWIDTH 7 0
BBX 7 8 0 0
BITMAP
00885000
04869200
2C002B00
68000D10
86000C20
78000D10
2C002B00
05868100
ENDCHAR
STARTCHAR omacron
ENCODING 333
SWIDTH 514 0
DWIDTH 5 0
BBX 5 7 0 0
BITMAP
088500
000000
186800
740A20
A20840
840920
196700
ENDCHAR
STARTCHAR Obreve
ENCODING 334
SWIDTH 738 0
DWIDTH 7 0
BBX 7 9 0 0
BITMAP
00404000
007A3000
04869200
2C002B00
68000D10
86000C20
78000D10
2C002B00
05868100
ENDCHAR
STARTCHAR obreve
ENCODING 335
SWIDTH 514 0
DWIDTH 5 0
BBX 5 7 0 0
BITMAP
030400
07B400
186800
740A20
A20840
840920
196700
ENDCHAR
STARTCHAR Ohungarumlaut
ENCODING 336
SWIDTH 738 0
DWIDTH 7 0
BBX 7 9 0 0
BITMAP
00011000
0039A100
04A7A200
2C002B00
68000D10
86000C20
78000D10
2C002B00
05868100
ENDCHAR
STARTCHAR ohungarumlaut
ENCODING 337
SWIDTH 514 0
DWIDTH 5 0
BBX 5 7 0 0
BITMAP
019A00
055500
186800
740A20
A20840
840920
196700
ENDCHAR
STARTCHAR OE
ENCODING 338
SWIDTH 945 0
DWIDTH 9 0
BBX 9 7 0 0
BITMAP
0487F77C00
2B00C00400
6800C02400
8600D69400
7700C00200
2B00D00330
0587F66C10
ENDCHAR
STARTCHAR oe
ENCODING 339
SWIDTH 807 0
DWIDTH 7 0
BBX 7 5 0 0
BITMAP
19687770
840B8690
A2094000
840A8030
1966AB50
ENDCHAR
STARTCHAR Racute
ENCODING 340
SWIDTH 659 0
DWIDTH 6 0
BBX 6 9 0 0
BITMAP
002500
008200
3E6850
0C01D0
0C03A0
0C8A10
0C1C20
0C15A0
3E60C7
ENDCHAR
STARTCHAR racute
ENCODING 341
SWIDTH 380 0
DWIDTH 3 0
BBX 4 7 0 0
BITMAP
0150
0620
5AB4
1C00
1A00
1A00
5D20
ENDCHAR
STARTCHAR Rcommaaccent
ENCODING 342
SWIDTH 659 0
DWIDTH 6 0
BBX 6 10 0 -3
BITMAP
3E6850
0C01D0
0C03A0
0C8A10
0C1C20
0C15A0
3E60C7
000000
005600
003500
ENDCHAR
STARTCHAR rcommaaccent
ENCODING 343
SWIDTH 380 0
DWIDTH 3 0
BBX 4 8 0 -3
BITMAP
5AB4
1C00
1A00
1A00
5D20
0000
1A00
0700
ENDCHAR
STARTCHAR Rcaron
ENCODING 344
SWIDTH 659 0
DWIDTH 6 0
BBX 6 9 0 0
BITMAP
021300
00A600
3E6850
0C01D0
0C03A0
0C8A10
0C1C20
0C15A0
3E60C7
ENDCHAR
STARTCHAR rcaron
ENCODING 345
SWIDTH 380 0
DWIDTH 3 0
BBX 4 7 0 0
BITMAP
2130
0A60
5AB4
1C00
1A00
1A00
5D20
ENDCHAR
STARTCHAR Sacute
ENCODING 346
SWIDTH 504 0
DWIDTH 5 0
BBX 5 9 0 0
BITMAP
006100
046000
287D00
740600
5C2000
07E500
103E10
700A20
9A7800
ENDCHAR
STARTCHAR sacute
ENCODING 347
SWIDTH 394 0
DWIDTH 4 0
BBX 4 7 0 0
BITMAP
0150
0620
56A1
9530
2C90
40A4
8691
ENDCHAR
STARTCHAR Scircumflex
ENCODING 348
SWIDTH 504 0
DWIDTH 5 0
BBX 5 9 0 0
BITMAP
026000
086300
287D00
740600
5C2000
07E500
103E10
700A20
9A7800
ENDCHAR
STARTCHAR scircumflex
ENCODING 349
SWIDTH 394 0
DWIDTH 4 0
BBX 4 7 0 0
BITMAP
0520
2670
56A1
9530
2C90
40A4
8691
ENDCHAR
STARTCHAR uni015E
ENCODING 350
SWIDTH 504 0
DWIDTH 5 0
BBX 5 9 0 -2
BITMAP
287D00
740600
5C2000
07E500
103E10
700A20
9A8800
018000
037000
ENDCHAR
STARTCHAR uni015F
ENCODING 351
SWIDTH 394 0
DWIDTH 4 0
BBX 4 7 0 -2
BITMAP
56A1
9530
2C90
40A4
8791
0540
0640
ENDCHAR
STARTCHAR Scaron
ENCODING 352
SWIDTH 504 0
DWIDTH 5 0
BBX 5 9 0 0
BITMAP
041300
05B100
287D00
740600
5C2000
07E500
103E10
700A20
9A7800
ENDCHAR
STARTCHAR scaron
ENCODING 353
SWIDTH 394 0
DWIDTH 4 0
BBX 4 7 0 0
BITMAP
2130
0A60
56A1
9530
2C90
40A4
8691
ENDCHAR
STARTCHAR uni0162
ENCODING 354
SWIDTH 603 0
DWIDTH 5 0
BBX 6 9 0 -2
BITMAP
B7D8B4
50B214
00B200
00B200
00B200
00B200
03E700
005400
006400
ENDCHAR
STARTCHAR uni0163
ENCODING 355
SWIDTH 315 0
DWIDTH 3 0
BBX 3 9 0 -2
BITMAP
0200
2800
6B40
3900
3900
3900
1D50
0540
0640
ENDCHAR
STARTCHAR Tcaron
ENCODING 356
SWIDTH 603 0
DWIDTH 5 0
BBX 6 9 0 0
BITMAP
031300
01B500
B7D8B4
50B214
00B200
00B200
00B200
00B200
03D700
ENDCHAR
STARTCHAR tcaron
ENCODING 357
SWIDTH 353 0
DWIDTH 3 0
BBX 4 7 0 0
BITMAP
02A1
2870
6B40
3900
3900
3900
1C50
ENDCHAR
STARTCHAR Tbar
ENCODING 358
SWIDTH 603 0
DWIDTH 5 0
BBX 6 7 0 0
BITMAP
B7D8B4
50B214
00B200
06D820
00B200
00B200
03D700
ENDCHAR
STARTCHAR tbar
ENCODING 359
SWIDTH 328 0
DWIDTH 3 0
BBX 3 7 0 0
BITMAP
0200
2900
5C40
5C40
2900
2900
0C50
ENDCHAR
STARTCHAR Utilde
ENCODING 360
SWIDTH 752 0
DWIDTH 7 0
BBX 7 8 0 0
BITMAP
00598000
5F403D30
0D000800
0C000800
0C000800
0C000700
0B201700
03B99100
ENDCHAR
STARTCHAR utilde
ENCODING 361
SWIDTH 570 0
DWIDTH 5 0
BBX 5 6 0 0
BITMAP
069600
781B30
380840
380840
290840
0B8A70
ENDCHAR
STARTCHAR Umacron
ENCODING 362
SWIDTH 752 0
DWIDTH 7 0
BBX 7 8 0 0
BITMAP
00687000
5F403D30
0D000800
0C000800
0C000800
0C000700
0B201700
03B99100
ENDCHAR
STARTCHAR umacron
ENCODING 363
SWIDTH 570 0
DWIDTH 5 0
BBX 5 7 0 0
BITMAP
078600
000000
781B30
380840
380840
290840
0B8A70
ENDCHAR
STARTCHAR Ubreve
ENCODING 364
SWIDTH 752 0
DWIDTH 7 0
BBX 7 9 0 0
BITMAP
00404000
004A6000
5F403D30
0D000800
0C000800
0C000800
0C000700
0B201700
03B99100
ENDCHAR
STARTCHAR ubreve
ENCODING 365
SWIDTH 570 0
DWIDTH 5 0
BBX 5 7 0 0
BITMAP
030400
06B500
781B30
380840
380840
290840
0B8A70
ENDCHAR
STARTCHAR Uring
ENCODING 366
SWIDTH 752 0
DWIDTH 7 0
BBX 7 10 0 0
BITMAP
00172000
00516000
00172000
5F403D30
0D000800
0C000800
0C000800
0C000700
0B201700
03B99100
ENDCHAR
STARTCHAR uring
ENCODING 367
SWIDTH 570 0
DWIDTH 5 0
BBX 5 8 0 0
BITMAP
027100
061500
027100
781B30
380840
380840
290840
0B8A70
ENDCHAR
STARTCHAR Uhungarumlaut
ENCODING 368
SWIDTH 752 0
DWIDTH 7 0
BBX 7 9 0 0
BITMAP
00011000
001A9300
5F515D30
0D000800
0C000800
0C000800
0C000700
0B201700
03B99100
ENDCHAR
STARTCHAR uhungarumlaut
ENCODING 369
SWIDTH 570 0
DWIDTH 5 0
BBX 5 7 0 0
BITMAP
00A910
035700
781B30
380840
380840
290840
0B8A70
ENDCHAR
STARTCHAR Uogonek
ENCODING 370
SWIDTH 753 0
DWIDTH 7 0
BBX 7 9 0 -2
BITMAP
5F403D30
0D000800
0C000800
0C000800
0C000800
0B201700
03BA8100
00060000
000B5000
ENDCHAR
STARTCHAR uogonek
ENCODING 371
SWIDTH 570 0
DWIDTH 5 0
BBX 5 7 0 -2
BITMAP
681B30
380840
380840
290840
0C8A70
001600
003A30
ENDCHAR
STARTCHAR Wcircumflex
ENCODING 372
SWIDTH 944 0
DWIDTH 9 0
BBX 9 9 0 0
BITMAP
0003500000
0008720000
AC19C12C30
1D01C00700
0B30E22400
0684876000
01D71C7000
00B70B6000
0062062000
ENDCHAR
STARTCHAR wcircumflex
ENCODING 373
SWIDTH 749 0
DWIDTH 7 0
BBX 8 7 -1 0
BITMAP
00016000
00065400
1B73D168
0490C161
00C29660
00891B50
00380B10
ENDCHAR
STARTCHAR Ycircumflex
ENCODING 374
SWIDTH 647 0
DWIDTH 6 0
BBX 6 9 0 0
BITMAP
003400
018720
9D20B6
0C3070
05A520
00C700
007500
007500
02BA10
ENDCHAR
STARTCHAR ycircumflex
ENCODING 375
SWIDTH 483 0
DWIDTH 4 0
BBX 5 9 0 -2
BITMAP
016000
065400
B80A20
3A0700
0B3300
06B000
018000
043000
B70000
ENDCHAR
STARTCHAR Ydieresis
ENCODING 376
SWIDTH 647 0
DWIDTH 6 0
BBX 6 8 0 0
BITMAP
057570
9E21B6
0C3070
05A520
00C700
007500
007500
02BA10
ENDCHAR
STARTCHAR Zacute
ENCODING 377
SWIDTH 594 0
DWIDTH 5 0
BBX 6 9 0 0
BITMAP
002500
008200
6A79D0
400A50
004B00
00C300
079000
1D1051
9B78C0
ENDCHAR
STARTCHAR zacute
ENCODING 378
SWIDTH 458 0
DWIDTH 4 0
BBX 4 7 0 0
BITMAP
0061
0270
8799
20C2
0670
1C04
9A7A
ENDCHAR
STARTCHAR Zdotaccent
ENCODING 379
SWIDTH 594 0
DWIDTH 5 0
BBX 6 8 0 0
BITMAP
008300
6A89D0
400A50
004B00
00C300
079000
1D1051
9B78C0
ENDCHAR
STARTCHAR zdotaccent
ENCODING 380
SWIDTH 458 0
DWIDTH 4 0
BBX 4 7 0 0
BITMAP
0260
0000
8799
20C2
0670
1C04
9A7A
ENDCHAR
STARTCHAR Zcaron
ENCODING 381
SWIDTH 594 0
DWIDTH 5 0
BBX 6 9 0 0
BITMAP
021300
00A700
6A79D0
400A50
004B00
00C300
079000
1D1051
9B78C0
ENDCHAR
STARTCHAR zcaron
ENCODING 382
SWIDTH 458 0
DWIDTH 4 0
BBX 4 7 0 0
BITMAP
0312
0690
8799
20C2
0670
1C04
9A7A
ENDCHAR
STARTCHAR longs
ENCODING 383
SWIDTH 285 0
DWIDTH 3 0
BBX 4 7 0 0
BITMAP
0894
1A00
6A00
1A00
1A00
1A00
6D30
ENDCHAR
STARTCHAR uni0180
ENCODING 384
SWIDTH 522 0
DWIDTH 5 0
BBX 5 7 0 0
BITMAP
870000
8A6100
49AB00
480940
470750
470930
3A6700
ENDCHAR
STARTCHAR uni0188
ENCODING 392
SWIDTH 446 0
DWIDTH 4 0
BBX 5 7 0 0
BITMAP
000690
000500
179700
811400
A10000
850300
2CB400
ENDCHAR
STARTCHAR uni0190
ENCODING 400
SWIDTH 518 0
DWIDTH 5 0
BBX 5 7 0 0
BITMAP
297B10
750720
480000
0A9200
660000
950120
3BA800
ENDCHAR
STARTCHAR uni0192
ENCODING 402
SWIDTH 301 0
DWIDTH 3 0
BBX 5 9 -1 -2
BITMAP
007940
01A000
06C400
02A000
02A000
02A000
02A000
129000
983000
ENDCHAR
STARTCHAR uni0195
ENCODING 405
SWIDTH 798 0
DWIDTH 7 0
BBX 7 7 0 0
BITMAP
59000000
1A000000
1B8C1560
1A093090
1A074060
1A074050
5C13B820
ENDCHAR
STARTCHAR uni0199
ENCODING 409
SWIDTH 538 0
DWIDTH 5 0
BBX 5 7 0 0
BITMAP
068700
190000
293B20
297100
2CA000
298600
6C2E50
ENDCHAR
STARTCHAR uni019A
ENCODING 410
SWIDTH 287 0
DWIDTH 3 0
BBX 3 7 0 0
BITMAP
5A00
1A00
1A00
5C20
1A00
1A00
5C20
ENDCHAR
STARTCHAR uni019B
ENCODING 411
SWIDTH 495 0
DWIDTH 4 0
BBX 5 7 0 0
BITMAP
8A3200
077000
009000
04C100
0A3500
2A0700
B80A30
ENDCHAR
STARTCHAR uni019E
ENCODING 414
SWIDTH 559 0
DWIDTH 5 0
BBX 5 7 0 -2
BITMAP
6B8C10
1B0740
1A0650
1A0650
5C2650
000650
000690
ENDCHAR
STARTCHAR Ohorn
ENCODING 416
SWIDTH 737 0
DWIDTH 7 0
BBX 7 9 0 0
BITMAP
00000320
00000650
0587D600
2B003C00
67000E20
86000C20
77000D10
2B002A00
05868100
ENDCHAR
STARTCHAR ohorn
ENCODING 417
SWIDTH 516 0
DWIDTH 5 0
BBX 5 7 0 0
BITMAP
000130
000270
187C10
840A20
A20840
840920
196700
ENDCHAR
STARTCHAR uni01A5
ENCODING 421
SWIDTH 522 0
DWIDTH 5 0
BBX 5 9 0 -2
BITMAP
069500
370000
4AAB00
480940
470750
470830
4C6700
470000
8B2000
ENDCHAR
STARTCHAR uni01AA
ENCODING 426
SWIDTH 298 0
DWIDTH 3 0
BBX 5 9 -1 -2
BITMAP
476000
51A000
15C000
00B000
00B000
00B000
00B000
00B000
006870
ENDCHAR
STARTCHAR uni01AB
ENCODING 427
SWIDTH 321 0
DWIDTH 3 0
BBX 3 9 0 -2
BITMAP
0200
2800
6B40
3900
3900
3900
1C80
0060
0950
ENDCHAR
STARTCHAR uni01AD
ENCODING 429
SWIDTH 315 0
DWIDTH 3 0
BBX 4 7 0 0
BITMAP
0787
2900
6B40
3900
3900
3900
1C50
ENDCHAR
STARTCHAR Uhorn
ENCODING 431
SWIDTH 762 0
DWIDTH 7 0
BBX 8 9 0 0
BITMAP
00000032
00000055
5F403E80
0D000800
0C000800
0C000800
0C000800
0B201700
03B99100
ENDCHAR
STARTCHAR uhorn
ENCODING 432
SWIDTH 574 0
DWIDTH 5 0
BBX 6 7 0 0
BITMAP
000041
000062
781B50
380840
380840
290840
0B8A70
ENDCHAR
STARTCHAR uni01B5
ENCODING 437
SWIDTH 594 0
DWIDTH 5 0
BBX 6 7 0 0
BITMAP
6A79D0
500950
003C00
07D930
05A000
1D2041
9C78C0
ENDCHAR
STARTCHAR uni01BA
ENCODING 442
SWIDTH 430 0
DWIDTH 4 0
BBX 4 7 0 -2
BITMAP
97D3
2660
0A81
0067
02A3
5520
55B1
ENDCHAR
STARTCHAR uni01BB
ENCODING 443
SWIDTH 508 0
DWIDTH 5 0
BBX 5 7 0 0
BITMAP
2AB500
301C00
000B00
37A920
027000
080220
8DCE00
ENDCHAR
STARTCHAR uni01BE
ENCODING 446
SWIDTH 406 0
DWIDTH 4 0
BBX 4 7 0 0
BITMAP
0300
2900
5C50
0680
0084
4065
8581
ENDCHAR
STARTCHAR uni01C0
ENCODING 448
SWIDTH 250 0
DWIDTH 2 0
BBX 2 7 0 0
BITMAP
47
47
47
47
47
47
47
ENDCHAR
STARTCHAR uni01C1
ENCODING 449
SWIDTH 423 0
DWIDTH 4 0
BBX 4 7 0 0
BITMAP
47A1
47A1
47A1
47A1
47A1
47A1
47A1
ENDCHAR
STARTCHAR uni01C2
ENCODING 450
SWIDTH 422 0
DWIDTH 4 0
BBX 4 7 0 0
BITMAP
0740
0740
4B93
4B93
0740
0740
0740
ENDCHAR
STARTCHAR uni01C3
ENCODING 451
SWIDTH 245 0
DWIDTH 2 0
BBX 2 7 0 0
BITMAP
47
47
37
26
25
01
58
ENDCHAR
STARTCHAR uni01DE
ENCODING 478
SWIDTH 718 0
DWIDTH 6 0
BBX 7 9 0 0
BITMAP
01884000
03838000
00381000
007C0000
00794000
0434A000
0866E100
17009600
98009D20
ENDCHAR
STARTCHAR uni01DF
ENCODING 479
SWIDTH 480 0
DWIDTH 4 0
BBX 5 8 0 0
BITMAP
288300
353500
000000
379300
425700
168700
834700
6B8B10
ENDCHAR
STARTCHAR uni01F0
ENCODING 496
SWIDTH 263 0
DWIDTH 2 0
BBX 4 9 -1 -2
BITMAP
0312
0690
0590
01A0
01A0
01A0
01A0
1280
A830
ENDCHAR
STARTCHAR Aringacute
ENCODING 506
SWIDTH 718 0
DWIDTH 6 0
BBX 7 11 0 0
BITMAP
00071000
009B0000
00651000
00460000
00380000
007C0000
00794000
0434A000
0866E100
17009600
98009D20
ENDCHAR
STARTCHAR aringacute
ENCODING 507
SWIDTH 480 0
DWIDTH 4 0
BBX 5 9 0 0
BITMAP
007000
0BA000
066000
056000
379300
425700
168700
834700
6B8B10
ENDCHAR
STARTCHAR AEacute
ENCODING 508
SWIDTH 894 0
DWIDTH 8 0
BBX 9 9 -1 0
BITMAP
0000007000
0000064000
0002DB7970
0003780040
0006480200
00399B7A00
0070480500
0250480040
1B619B7890
ENDCHAR
STARTCHAR aeacute
ENCODING 509
SWIDTH 709 0
DWIDTH 6 0
BBX 6 7 0 0
BITMAP
000600
005300
479878
119A6A
386600
935A03
6A6AB6
ENDCHAR
STARTCHAR Oslashacute
ENCODING 510
SWIDTH 737 0
DWIDTH 7 0
BBX 7 9 0 0
BITMAP
00061000
00460000
05869600
2B008B00
67052D10
86150C20
67600D10
2D202A00
28868100
ENDCHAR
STARTCHAR oslashacute
ENCODING 511
SWIDTH 514 0
DWIDTH 5 0
BBX 5 7 0 0
BITMAP
006100
027000
187B00
745B20
A44840
890920
596700
ENDCHAR
STARTCHAR uni0218
ENCODING 536
SWIDTH 504 0
DWIDTH 5 0
BBX 5 10 0 -3
BITMAP
287D00
740600
5C2000
07E500
103E10
700A20
9A7800
000000
038000
016000
ENDCHAR
STARTCHAR uni0219
ENCODING 537
SWIDTH 394 0
DWIDTH 4 0
BBX 4 8 0 -3
BITMAP
56A1
9530
2C90
40A4
8691
0000
0830
0520
ENDCHAR
STARTCHAR uni021A
ENCODING 538
SWIDTH 603 0
DWIDTH 5 0
BBX 6 10 0 -3
BITMAP
B7D8B4
50B214
00B200
00B200
00B200
00B200
03D700
000000
008300
005200
ENDCHAR
STARTCHAR uni021B
ENCODING 539
SWIDTH 315 0
DWIDTH 3 0
BBX 3 10 0 -3
BITMAP
0200
2800
6B40
3900
3900
3900
1C50
0000
0820
0610
ENDCHAR
STARTCHAR uni0221
ENCODING 545
SWIDTH 674 0
DWIDTH 6 0
BBX 6 9 0 -2
BITMAP
002C00
000B00
187E00
730B00
A10B00
940B25
2D8A86
000410
000200
ENDCHAR
STARTCHAR uni0228
ENCODING 552
SWIDTH 626 0
DWIDTH 6 0
BBX 6 9 0 -2
BITMAP
3E77C1
0C0031
0C0050
0C7960
0C0020
0C0024
3E87C3
004500
005500
ENDCHAR
STARTCHAR uni0229
ENCODING 553
SWIDTH 464 0
DWIDTH 4 0
BBX 4 7 0 -2
BITMAP
2785
8768
A100
8603
1CB4
0270
0370
ENDCHAR
STARTCHAR uni0234
ENCODING 564
SWIDTH 399 0
DWIDTH 4 0
BBX 4 9 0 -2
BITMAP
8700
4700
4700
4700
4700
4754
2B64
0500
1100
ENDCHAR
STARTCHAR uni0235
ENCODING 565
SWIDTH 702 0
DWIDTH 6 0
BBX 7 7 0 -2
BITMAP
5B7B0000
1B083000
1A084000
1A084520
5C15A420
00023000
00020000
ENDCHAR
STARTCHAR uni0236
ENCODING 566
SWIDTH 406 0
DWIDTH 4 0
BBX 4 9 0 -2
BITMAP
0200
2800
6B50
3900
3900
3944
1B64
0500
1200
ENDCHAR
STARTCHAR uni0237
ENCODING 567
SWIDTH 263 0
DWIDTH 2 0
BBX 3 7 -1 -2
BITMAP
0590
01A0
01A0
01A0
01A0
1280
A830
ENDCHAR
STARTCHAR uni0250
ENCODING 592
SWIDTH 475 0
DWIDTH 4 0
BBX 4 5 0 0
BITMAP
8A9A
380C
3B63
3905
0A56
ENDCHAR
STARTCHAR uni0251
ENCODING 593
SWIDTH 542 0
DWIDTH 5 0
BBX 5 5 0 0
BITMAP
187C00
730C00
A20B00
940B00
2D8C40
ENDCHAR
STARTCHAR uni0252
ENCODING 594
SWIDTH 544 0
DWIDTH 5 0
BBX 5 5 0 0
BITMAP
5B9C10
1A0670
1A0380
1A0550
1B6700
ENDCHAR
STARTCHAR uni0253
ENCODING 595
SWIDTH 518 0
DWIDTH 5 0
BBX 5 7 0 0
BITMAP
079500
470000
59AA00
570A30
570750
570920
3A6600
ENDCHAR
STARTCHAR uni0254
ENCODING 596
SWIDTH 454 0
DWIDTH 4 0
BBX 4 5 0 0
BITMAP
3BC2
3049
000B
4119
6972
ENDCHAR
STARTCHAR uni0255
ENCODING 597
SWIDTH 447 0
DWIDTH 4 0
BBX 4 6 0 -1
BITMAP
1796
8215
A100
8564
2D85
1500
ENDCHAR
STARTCHAR uni0256
ENCODING 598
SWIDTH 528 0
DWIDTH 5 0
BBX 6 9 0 -2
BITMAP
002D00
000B00
186E00
730B00
A10B00
940B00
2D8C00
000A00
000588
ENDCHAR
STARTCHAR uni0257
ENCODING 599
SWIDTH 542 0
DWIDTH 5 0
BBX 6 7 0 0
BITMAP
000479
000A00
187E00
730C00
A20B00
940B00
2D8C40
ENDCHAR
STARTCHAR uni0258
ENCODING 600
SWIDTH 466 0
DWIDTH 4 0
BBX 4 5 0 0
BITMAP
3874
676A
000C
303B
2AC3
ENDCHAR
STARTCHAR uni0259
ENCODING 601
SWIDTH 464 0
DWIDTH 4 0
BBX 4 5 0 0
BITMAP
3BC3
202B
766C
840A
1973
ENDCHAR
STARTCHAR uni025A
ENCODING 602
SWIDTH 642 0
DWIDTH 6 0
BBX 6 5 0 0
BITMAP
4BD410
102C65
766C00
840900
197300
ENDCHAR
STARTCHAR uni025B
ENCODING 603
SWIDTH 399 0
DWIDTH 4 0
BBX 4 5 0 0
BITMAP
48A3
8311
2B50
9300
5A72
ENDCHAR
STARTCHAR uni025C
ENCODING 604
SWIDTH 398 0
DWIDTH 4 0
BBX 4 5 0 0
BITMAP
8790
2092
0990
0093
58A1
ENDCHAR
STARTCHAR uni025D
ENCODING 605
SWIDTH 575 0
DWIDTH 5 0
BBX 5 5 0 0
BITMAP
76A310
006480
09D100
009300
589000
ENDCHAR
STARTCHAR uni025E
ENCODING 606
SWIDTH 500 0
DWIDTH 5 0
BBX 5 5 0 0
BITMAP
186800
830A10
A18800
830A20
186A00
ENDCHAR
STARTCHAR uni025F
ENCODING 607
SWIDTH 272 0
DWIDTH 2 0
BBX 4 7 -1 -2
BITMAP
05A0
01A0
06C2
01A0
01A0
1190
9830
ENDCHAR
STARTCHAR uni0260
ENCODING 608
SWIDTH 541 0
DWIDTH 5 0
BBX 6 9 0 -2
BITMAP
00046B
000B00
187E00
730B00
A20B00
940B00
3D8C00
100A00
596500
ENDCHAR
STARTCHAR uni0261
ENCODING 609
SWIDTH 521 0
DWIDTH 5 0
BBX 4 7 0 -2
BITMAP
187C
730B
A20B
940B
3D8C
100A
5965
ENDCHAR
STARTCHAR uni0262
ENCODING 610
SWIDTH 535 0
DWIDTH 5 0
BBX 5 5 0 0
BITMAP
186B30
840220
A21840
840830
195910
ENDCHAR
STARTCHAR uni0263
ENCODING 611
SWIDTH 479 0
DWIDTH 4 0
BBX 6 7 -1 -2
BITMAP
1B70A3
039070
00C430
007A00
004A00
006B00
006900
ENDCHAR
STARTCHAR uni0264
ENCODING 612
SWIDTH 466 0
DWIDTH 4 0
BBX 5 5 0 0
BITMAP
987A10
25A200
058300
146500
079100
ENDCHAR
STARTCHAR uni0265
ENCODING 613
SWIDTH 553 0
DWIDTH 5 0
BBX 5 7 0 -2
BITMAP
680A40
380740
380740
290840
0B8A40
000740
000780
ENDCHAR
STARTCHAR uni0266
ENCODING 614
SWIDTH 577 0
DWIDTH 5 0
BBX 5 7 0 0
BITMAP
067800
190000
1B8C10
1A0750
1A0650
1A0650
5C2A90
ENDCHAR
STARTCHAR uni0267
ENCODING 615
SWIDTH 562 0
DWIDTH 5 0
BBX 5 9 0 -2
BITMAP
068800
090000
1B8C10
1A0750
1A0650
1A0650
5C1650
001640
01B800
ENDCHAR
STARTCHAR uni0268
ENCODING 616
SWIDTH 295 0
DWIDTH 3 0
BBX 3 7 0 0
BITMAP
1B00
0100
5A00
0B00
4C20
0B00
4D20
ENDCHAR
STARTCHAR uni0269
ENCODING 617
SWIDTH 286 0
DWIDTH 3 0
BBX 3 5 0 0
BITMAP
6800
3800
3800
3900
1C50
ENDCHAR
STARTCHAR uni026A
ENCODING 618
SWIDTH 287 0
DWIDTH 3 0
BBX 3 5 0 0
BITMAP
5C10
1A00
1A00
1A00
5C10
ENDCHAR
STARTCHAR uni026B
ENCODING 619
SWIDTH 290 0
DWIDTH 3 0
BBX 3 7 0 0
BITMAP
4A00
1A00
7A30
4D30
1A00
1A00
5C20
ENDCHAR
STARTCHAR uni026C
ENCODING 620
SWIDTH 318 0
DWIDTH 3 0
BBX 3 7 0 0
BITMAP
2C00
0B00
8C00
9C50
4D10
0B00
2E30
ENDCHAR
STARTCHAR uni026D
ENCODING 621
SWIDTH 248 0
DWIDTH 2 0
BBX 4 9 0 -2
BITMAP
7700
4700
4700
4700
4700
4700
4700
3710
08B1
ENDCHAR
STARTCHAR uni026E
ENCODING 622
SWIDTH 590 0
DWIDTH 5 0
BBX 6 9 0 -2
BITMAP
590000
1A0000
1C78D0
1A0950
1A3A00
1A4850
5C20C1
0100B1
059560
ENDCHAR
STARTCHAR uni026F
ENCODING 623
SWIDTH 846 0
DWIDTH 8 0
BBX 8 5 0 0
BITMAP
681C24A0
380920B0
380920B0
290A21B0
0B77A6C2
ENDCHAR
STARTCHAR uni0270
ENCODING 624
SWIDTH 826 0
DWIDTH 7 0
BBX 8 7 0 -2
BITMAP
681C24A0
380920B0
380920B0
290A21B0
0C87B6B0
000000B0
000000D2
ENDCHAR
STARTCHAR uni0271
ENCODING 625
SWIDTH 835 0
DWIDTH 8 0
BBX 7 7 0 -2
BITMAP
6B8C6A80
1B0840B0
1A0740B0
1A0740B0
5C2B80B0
000010A0
00008850
ENDCHAR
STARTCHAR uni0272
ENCODING 626
SWIDTH 574 0
DWIDTH 5 0
BBX 6 7 -1 -2
BITMAP
05A7C1
01A074
01A075
01A075
01A0A8
129000
A83000
ENDCHAR
STARTCHAR uni0273
ENCODING 627
SWIDTH 563 0
DWIDTH 5 0
BBX 6 7 0 -2
BITMAP
6B8C10
1B0740
1A0650
1A0650
5C2650
000551
00018B
ENDCHAR
STARTCHAR uni0274
ENCODING 628
SWIDTH 568 0
DWIDTH 5 0
BBX 5 5 0 0
BITMAP
7C06A0
3B7150
33B450
332C50
770550
ENDCHAR
STARTCHAR uni0275
ENCODING 629
SWIDTH 514 0
DWIDTH 5 0
BBX 5 5 0 0
BITMAP
186800
740A20
A76B40
840920
196700
ENDCHAR
STARTCHAR uni0276
ENCODING 630
SWIDTH 732 0
DWIDTH 7 0
BBX 7 5 0 0
BITMAP
197D7B10
840B0400
A30C6700
840B0020
186D5920
ENDCHAR
STARTCHAR uni0277
ENCODING 631
SWIDTH 672 0
DWIDTH 6 0
BBX 6 5 0 0
BITMAP
077770
661156
92772A
93453A
296693
ENDCHAR
STARTCHAR uni0278
ENCODING 632
SWIDTH 658 0
DWIDTH 6 0
BBX 6 9 0 -2
BITMAP
009500
006500
19A991
756577
A36548
856556
19A880
006500
00A900
ENDCHAR
STARTCHAR uni0279
ENCODING 633
SWIDTH 380 0
DWIDTH 3 0
BBX 4 5 0 0
BITMAP
08A1
0480
0480
0580
C7A0
ENDCHAR
STARTCHAR uni027A
ENCODING 634
SWIDTH 374 0
DWIDTH 3 0
BBX 3 7 0 0
BITMAP
0770
0480
0480
0480
0480
0580
C8A0
ENDCHAR
STARTCHAR uni027B
ENCODING 635
SWIDTH 375 0
DWIDTH 3 0
BBX 5 7 0 -2
BITMAP
08A100
048000
048000
058000
C78000
038100
008B20
ENDCHAR
STARTCHAR uni027C
ENCODING 636
SWIDTH 378 0
DWIDTH 3 0
BBX 4 7 0 -2
BITMAP
5AB4
1C00
1A00
1A00
1A00
1A00
5C20
ENDCHAR
STARTCHAR uni027D
ENCODING 637
SWIDTH 373 0
DWIDTH 3 0
BBX 4 7 0 -2
BITMAP
6AB3
2B00
2900
2900
2900
1910
07B3
ENDCHAR
STARTCHAR uni027E
ENCODING 638
SWIDTH 371 0
DWIDTH 3 0
BBX 4 5 0 0
BITMAP
06A2
1900
2900
2900
6C20
ENDCHAR
STARTCHAR uni027F
ENCODING 639
SWIDTH 371 0
DWIDTH 3 0
BBX 4 5 0 0
BITMAP
A710
0460
0470
0470
09A1
ENDCHAR
STARTCHAR uni0280
ENCODING 640
SWIDTH 494 0
DWIDTH 4 0
BBX 5 5 0 0
BITMAP
4C7600
1A0B00
1CA200
1A7500
5C2C30
ENDCHAR
STARTCHAR uni0281
ENCODING 641
SWIDTH 494 0
DWIDTH 4 0
BBX 5 5 0 0
BITMAP
5C2C30
1A8500
1CB200
1A1B00
4C7700
ENDCHAR
STARTCHAR uni0282
ENCODING 642
SWIDTH 395 0
DWIDTH 4 0
BBX 4 7 0 -2
BITMAP
57A1
9430
2C90
40A4
8691
6000
4920
ENDCHAR
STARTCHAR uni0283
ENCODING 643
SWIDTH 253 0
DWIDTH 2 0
BBX 5 9 -1 -2
BITMAP
007B20
038000
038000
048000
048000
048000
048000
047000
A82000
ENDCHAR
STARTCHAR uni0284
ENCODING 644
SWIDTH 286 0
DWIDTH 3 0
BBX 5 9 -1 -2
BITMAP
006930
00A000
01A000
01A000
01A000
01A000
05C200
029000
773000
ENDCHAR
STARTCHAR uni0285
ENCODING 645
SWIDTH 361 0
DWIDTH 3 0
BBX 5 7 0 -2
BITMAP
A82000
046000
047000
048000
048000
038000
008A20
ENDCHAR
STARTCHAR uni0286
ENCODING 646
SWIDTH 253 0
DWIDTH 2 0
BBX 5 9 -1 -2
BITMAP
007B20
028100
038000
048000
048000
048000
048000
48A000
784100
ENDCHAR
STARTCHAR uni0287
ENCODING 647
SWIDTH 315 0
DWIDTH 3 0
BBX 3 7 0 -2
BITMAP
7B00
0B00
0B00
0B00
5D30
0910
0200
ENDCHAR
STARTCHAR uni0288
ENCODING 648
SWIDTH 309 0
DWIDTH 3 0
BBX 4 9 0 -2
BITMAP
0200
2900
5C40
2900
2900
2900
2900
1910
07A3
ENDCHAR
STARTCHAR uni0289
ENCODING 649
SWIDTH 580 0
DWIDTH 5 0
BBX 5 5 0 0
BITMAP
791B40
290740
5B5A80
2A0740
0B8980
ENDCHAR
STARTCHAR uni028A
ENCODING 650
SWIDTH 548 0
DWIDTH 5 0
BBX 5 5 0 0
BITMAP
2A0B20
460730
840570
740570
185810
ENDCHAR
STARTCHAR uni028B
ENCODING 651
SWIDTH 530 0
DWIDTH 5 0
BBX 5 5 0 0
BITMAP
680A10
380540
380140
290320
0A9600
ENDCHAR
STARTCHAR uni028C
ENCODING 652
SWIDTH 495 0
DWIDTH 4 0
BBX 5 5 0 0
BITMAP
039000
06C000
078400
433900
B32E30
ENDCHAR
STARTCHAR uni028D
ENCODING 653
SWIDTH 764 0
DWIDTH 7 0
BBX 7 5 0 0
BITMAP
0380A100
06B1B500
06982B00
344A0B10
A33D2A90
ENDCHAR
STARTCHAR uni028E
ENCODING 654
SWIDTH 492 0
DWIDTH 4 0
BBX 5 7 0 0
BITMAP
004C30
007000
027000
06B000
06A300
344900
A32E30
ENDCHAR
STARTCHAR uni028F
ENCODING 655
SWIDTH 454 0
DWIDTH 4 0
BBX 6 5 -1 0
BITMAP
1B61A1
02A330
008800
004700
008A10
ENDCHAR
STARTCHAR uni0290
ENCODING 656
SWIDTH 458 0
DWIDTH 4 0
BBX 6 7 0 -2
BITMAP
87A900
30B200
067000
1C1400
8A6A00
000600
000492
ENDCHAR
STARTCHAR uni0291
ENCODING 657
SWIDTH 458 0
DWIDTH 4 0
BBX 4 7 0 -2
BITMAP
8799
20C2
0670
1C46
9A97
0600
0300
ENDCHAR
STARTCHAR uni0292
ENCODING 658
SWIDTH 443 0
DWIDTH 4 0
BBX 4 7 0 -2
BITMAP
87A8
31C1
0940
0494
001C
301B
9672
ENDCHAR
STARTCHAR uni0293
ENCODING 659
SWIDTH 443 0
DWIDTH 4 0
BBX 4 9 0 -4
BITMAP
87A8
31C1
0860
0692
002A
451B
58B4
0050
0012
ENDCHAR
STARTCHAR uni0294
ENCODING 660
SWIDTH 383 0
DWIDTH 3 0
BBX 4 7 0 0
BITMAP
6591
5066
0084
0570
1A00
1A00
5C20
ENDCHAR
STARTCHAR uni0295
ENCODING 661
SWIDTH 383 0
DWIDTH 3 0
BBX 4 7 0 0
BITMAP
6591
B041
C000
3720
0380
0380
08B1
ENDCHAR
STARTCHAR uni0296
ENCODING 662
SWIDTH 408 0
DWIDTH 4 0
BBX 4 7 0 0
BITMAP
4A00
0B00
0B00
0570
0084
5066
7581
ENDCHAR
STARTCHAR uni0297
ENCODING 663
SWIDTH 437 0
DWIDTH 4 0
BBX 4 7 0 -2
BITMAP
0796
6415
9100
A100
9200
6704
0AB3
ENDCHAR
STARTCHAR uni0298
ENCODING 664
SWIDTH 736 0
DWIDTH 7 0
BBX 7 7 0 0
BITMAP
05658200
38001B00
93000930
A23B0850
84020930
39001B00
04658100
ENDCHAR
STARTCHAR uni0299
ENCODING 665
SWIDTH 485 0
DWIDTH 4 0
BBX 4 5 0 0
BITMAP
5C77
1A1B
1C96
1A0D
5C59
ENDCHAR
STARTCHAR uni029A
ENCODING 666
SWIDTH 500 0
DWIDTH 5 0
BBX 5 5 0 0
BITMAP
487500
830A10
2B4920
920A10
596500
ENDCHAR
STARTCHAR uni029B
ENCODING 667
SWIDTH 536 0
DWIDTH 5 0
BBX 6 7 0 0
BITMAP
000067
000330
186B30
840120
A30840
850830
195920
ENDCHAR
STARTCHAR uni029C
ENCODING 668
SWIDTH 599 0
DWIDTH 5 0
BBX 5 5 0 0
BITMAP
5C18A0
1A0470
1C5870
1A0470
5C17A0
ENDCHAR
STARTCHAR uni029D
ENCODING 669
SWIDTH 263 0
DWIDTH 2 0
BBX 4 9 -1 -2
BITMAP
02A0
0010
0690
01A0
01A0
01A0
01A0
37C1
6751
ENDCHAR
STARTCHAR uni029E
ENCODING 670
SWIDTH 542 0
DWIDTH 5 0
BBX 5 7 0 -2
BITMAP
7D2D30
096B00
00BD00
016B00
3C2B00
000B00
000B40
ENDCHAR
STARTCHAR uni029F
ENCODING 671
SWIDTH 440 0
DWIDTH 4 0
BBX 4 5 0 0
BITMAP
6B10
3800
3800
3802
6B58
ENDCHAR
STARTCHAR uni02A0
ENCODING 672
SWIDTH 541 0
DWIDTH 5 0
BBX 6 9 0 -2
BITMAP
00047B
000A00
187E00
730B00
A20B00
940B00
3D8C00
000B00
003E30
ENDCHAR
STARTCHAR uni02A1
ENCODING 673
SWIDTH 393 0
DWIDTH 4 0
BBX 4 7 0 0
BITMAP
6692
3056
0093
0830
5C40
1A00
5D20
ENDCHAR
STARTCHAR uni02A2
ENCODING 674
SWIDTH 393 0
DWIDTH 4 0
BBX 4 7 0 0
BITMAP
6592
B021
A200
1650
17B2
0290
07C1
ENDCHAR
STARTCHAR uni02A3
ENCODING 675
SWIDTH 830 0
DWIDTH 7 0
BBX 8 7 0 0
BITMAP
002C0000
000B0000
188E77E1
730B0770
A20B2C00
940BA421
2D8CD7B2
ENDCHAR
STARTCHAR uni02A4
ENCODING 676
SWIDTH 838 0
DWIDTH 8 0
BBX 8 9 0 -2
BITMAP
002C0000
000B0000
188E77E2
730B0690
A10B1C10
940B2870
2D8C4094
00001084
0002A570
ENDCHAR
STARTCHAR uni02A5
ENCODING 677
SWIDTH 829 0
DWIDTH 7 0
BBX 8 9 0 -2
BITMAP
002C0000
000B0000
188E77E1
730B0770
A20B2C00
940BA562
2D8CDA63
00003300
00003000
ENDCHAR
STARTCHAR uni02A6
ENCODING 678
SWIDTH 614 0
DWIDTH 6 0
BBX 6 7 0 0
BITMAP
020000
280000
5BB7A0
399420
392C90
2900A3
096680
ENDCHAR
STARTCHAR uni02A7
ENCODING 679
SWIDTH 513 0
DWIDTH 5 0
BBX 6 9 0 -2
BITMAP
000686
280B00
5B6C00
390B00
390B00
390B00
1C5B00
000A00
068600
ENDCHAR
STARTCHAR uni02A8
ENCODING 680
SWIDTH 687 0
DWIDTH 6 0
BBX 6 7 0 0
BITMAP
020000
280000
5B4789
395405
397300
396754
1C6A87
ENDCHAR
STARTCHAR uni02A9
ENCODING 681
SWIDTH 866 0
DWIDTH 8 0
BBX 8 9 0 -2
BITMAP
07A40000
1A000000
6C7A99B0
1A0570B1
1A0560A1
1A0560A1
6D38A0A1
000000A0
00004A70
ENDCHAR
STARTCHAR uni02AA
ENCODING 682
SWIDTH 595 0
DWIDTH 5 0
BBX 6 7 0 0
BITMAP
770000
470000
476590
47B330
473D70
4701C1
195680
ENDCHAR
STARTCHAR uni02AB
ENCODING 683
SWIDTH 580 0
DWIDTH 5 0
BBX 5 7 0 0
BITMAP
590000
1A0000
1C69A0
1A0B20
1A4900
1AB140
5EC7A0
ENDCHAR
STARTCHAR uni02AC
ENCODING 684
SWIDTH 599 0
DWIDTH 5 0
BBX 6 7 0 0
BITMAP
85A381
196750
093B10
738261
468450
0A5940
092A10
ENDCHAR
STARTCHAR uni02AD
ENCODING 685
SWIDTH 479 0
DWIDTH 4 0
BBX 4 7 0 0
BITMAP
6CBA
6208
6208
2103
5BB9
6208
6208
ENDCHAR
STARTCHAR uni02AE
ENCODING 686
SWIDTH 595 0
DWIDTH 5 0
BBX 7 7 -1 -2
BITMAP
29605900
00A02A00
00B02A00
00B12A00
006B7A00
00002A00
00002C20
ENDCHAR
STARTCHAR uni02AF
ENCODING 687
SWIDTH 600 0
DWIDTH 5 0
BBX 8 7 -1 -2
BITMAP
29605900
00A02A00
00B02A00
00B12A00
006B7A00
00001A00
000008A3
ENDCHAR
STARTCHAR uni02B0
ENCODING 688
SWIDTH 488 0
DWIDTH 4 0
BBX 5 5 0 2
BITMAP
560000
499500
461900
460A00
693C10
ENDCHAR
STARTCHAR uni02B1
ENCODING 689
SWIDTH 488 0
DWIDTH 4 0
BBX 5 6 0 2
BITMAP
037100
261000
499500
461900
460A00
793C10
ENDCHAR
STARTCHAR uni02B2
ENCODING 690
SWIDTH 222 0
DWIDTH 2 0
BBX 3 6 -1 1
BITMAP
0350
0670
0370
0370
0360
6830
ENDCHAR
STARTCHAR uni02B3
ENCODING 691
SWIDTH 325 0
DWIDTH 3 0
BBX 3 4 0 2
BITMAP
6980
4600
4600
6900
ENDCHAR
STARTCHAR uni02B4
ENCODING 692
SWIDTH 325 0
DWIDTH 3 0
BBX 3 4 0 2
BITMAP
0970
0540
0540
8970
ENDCHAR
STARTCHAR uni02B5
ENCODING 693
SWIDTH 325 0
DWIDTH 3 0
BBX 4 5 0 1
BITMAP
0970
0540
0540
8850
0153
ENDCHAR
STARTCHAR uni02B6
ENCODING 694
SWIDTH 443 0
DWIDTH 4 0
BBX 4 4 0 2
BITMAP
6958
37A0
3A81
6993
ENDCHAR
STARTCHAR uni02B7
ENCODING 695
SWIDTH 653 0
DWIDTH 6 0
BBX 6 4 0 2
BITMAP
A58738
375941
0B5A50
084660
ENDCHAR
STARTCHAR uni02B8
ENCODING 696
SWIDTH 427 0
DWIDTH 4 0
BBX 4 5 0 1
BITMAP
A647
2950
0960
0520
8700
ENDCHAR
STARTCHAR uni02B9
ENCODING 697
SWIDTH 296 0
DWIDTH 3 0
BBX 2 3 0 4
BITMAP
0A
19
43
ENDCHAR
STARTCHAR uni02BA
ENCODING 698
SWIDTH 456 0
DWIDTH 4 0
BBX 4 3 0 4
BITMAP
0A56
1992
4370
ENDCHAR
STARTCHAR uni02BB
ENCODING 699
SWIDTH 245 0
DWIDTH 2 0
BBX 2 3 0 5
BITMAP
01
43
47
ENDCHAR
STARTCHAR uni02BC
ENCODING 700
SWIDTH 244 0
DWIDTH 2 0
BBX 2 3 0 4
BITMAP
56
16
10
ENDCHAR
STARTCHAR uni02BD
ENCODING 701
SWIDTH 244 0
DWIDTH 2 0
BBX 2 3 0 4
BITMAP
47
43
02
ENDCHAR
STARTCHAR uni02BE
ENCODING 702
SWIDTH 203 0
DWIDTH 2 0
BBX 2 3 0 5
BITMAP
64
08
63
ENDCHAR
STARTCHAR uni02BF
ENCODING 703
SWIDTH 203 0
DWIDTH 2 0
BBX 2 3 0 5
BITMAP
54
80
54
ENDCHAR
STARTCHAR uni02C0
ENCODING 704
SWIDTH 364 0
DWIDTH 3 0
BBX 3 4 0 4
BITMAP
3540
40A0
01A0
0910
ENDCHAR
STARTCHAR uni02C1
ENCODING 705
SWIDTH 364 0
DWIDTH 3 0
BBX 3 4 0 4
BITMAP
2550
9140
7400
0730
ENDCHAR
STARTCHAR uni02C2
ENCODING 706
SWIDTH 324 0
DWIDTH 3 0
BBX 3 3 0 4
BITMAP
0350
6700
0650
ENDCHAR
STARTCHAR uni02C3
ENCODING 707
SWIDTH 324 0
DWIDTH 3 0
BBX 3 3 0 4
BITMAP
5300
0850
5500
ENDCHAR
STARTCHAR uni02C4
ENCODING 708
SWIDTH 324 0
DWIDTH 3 0
BBX 3 3 0 5
BITMAP
0400
3A20
8080
ENDCHAR
STARTCHAR uni02C5
ENCODING 709
SWIDTH 324 0
DWIDTH 3 0
BBX 3 3 0 5
BITMAP
4040
6460
1A00
ENDCHAR
STARTCHAR circumflex
ENCODING 710
SWIDTH 342 0
DWIDTH 3 0
BBX 3 2 0 5
BITMAP
0700
5560
ENDCHAR
STARTCHAR caron
ENCODING 711
SWIDTH 342 0
DWIDTH 3 0
BBX 3 2 0 5
BITMAP
3030
2B30
ENDCHAR
STARTCHAR uni02C8
ENCODING 712
SWIDTH 284 0
DWIDTH 3 0
BBX 1 3 1 5
BITMAP
50
60
60
ENDCHAR
STARTCHAR uni02C9
ENCODING 713
SWIDTH 350 0
DWIDTH 3 0
BBX 3 1 0 6
BITMAP
6870
ENDCHAR
STARTCHAR uni02CA
ENCODING 714
SWIDTH 222 0
DWIDTH 2 0
BBX 2 2 0 5
BITMAP
15
72
ENDCHAR
STARTCHAR uni02CB
ENCODING 715
SWIDTH 222 0
DWIDTH 2 0
BBX 2 2 0 5
BITMAP
51
27
ENDCHAR
STARTCHAR uni02CC
ENCODING 716
SWIDTH 284 0
DWIDTH 3 0
BBX 1 3 1 -2
BITMAP
50
60
60
ENDCHAR
STARTCHAR uni02CD
ENCODING 717
SWIDTH 342 0
DWIDTH 3 0
BBX 3 1 0 -2
BITMAP
8990
ENDCHAR
STARTCHAR uni02CE
ENCODING 718
SWIDTH 222 0
DWIDTH 2 0
BBX 2 2 0 -1
BITMAP
51
27
ENDCHAR
STARTCHAR uni02CF
ENCODING 719
SWIDTH 223 0
DWIDTH 2 0
BBX 2 2 0 -1
BITMAP
15
72
ENDCHAR
STARTCHAR uni02D0
ENCODING 720
SWIDTH 341 0
DWIDTH 3 0
BBX 3 5 0 0
BITMAP
1D20
0A00
0000
0800
1F20
ENDCHAR
STARTCHAR uni02D1
ENCODING 721
SWIDTH 341 0
DWIDTH 3 0
BBX 3 2 0 3
BITMAP
1D20
0A00
ENDCHAR
STARTCHAR uni02D2
ENCODING 722
SWIDTH 341 0
DWIDTH 3 0
BBX 3 3 0 1
BITMAP
3910
0360
3910
ENDCHAR
STARTCHAR uni02D3
ENCODING 723
SWIDTH 341 0
DWIDTH 3 0
BBX 3 3 0 1
BITMAP
1940
5400
1940
ENDCHAR
STARTCHAR uni02D4
ENCODING 724
SWIDTH 341 0
DWIDTH 3 0
BBX 3 3 0 1
BITMAP
0100
0500
3840
ENDCHAR
STARTCHAR uni02D5
ENCODING 725
SWIDTH 341 0
DWIDTH 3 0
BBX 3 3 0 1
BITMAP
3840
0500
0100
ENDCHAR
STARTCHAR uni02D6
ENCODING 726
SWIDTH 341 0
DWIDTH 3 0
BBX 3 2 0 2
BITMAP
2920
0500
ENDCHAR
STARTCHAR uni02D7
ENCODING 727
SWIDTH 341 0
DWIDTH 3 0
BBX 3 1 0 2
BITMAP
2620
ENDCHAR
STARTCHAR breve
ENCODING 728
SWIDTH 353 0
DWIDTH 3 0
BBX 3 2 0 5
BITMAP
3040
5B60
ENDCHAR
STARTCHAR dotaccent
ENCODING 729
SWIDTH 194 0
DWIDTH 2 0
BBX 2 1 0 6
BITMAP
53
ENDCHAR
STARTCHAR ring
ENCODING 730
SWIDTH 265 0
DWIDTH 2 0
BBX 3 3 0 5
BITMAP
4600
6510
4700
ENDCHAR
STARTCHAR ogonek
ENCODING 731
SWIDTH 277 0
DWIDTH 3 0
BBX 3 3 0 -2
BITMAP
0100
7100
6710
ENDCHAR
STARTCHAR tilde
ENCODING 732
SWIDTH 381 0
DWIDTH 3 0
BBX 3 1 0 5
BITMAP
4980
ENDCHAR
STARTCHAR hungarumlaut
ENCODING 733
SWIDTH 350 0
DWIDTH 3 0
BBX 3 2 0 5
BITMAP
3890
7630
ENDCHAR
STARTCHAR uni02DE
ENCODING 734
SWIDTH 205 0
DWIDTH 2 0
BBX 3 2 -1 2
BITMAP
1520
0740
ENDCHAR
STARTCHAR uni02DF
ENCODING 735
SWIDTH 302 0
DWIDTH 3 0
BBX 3 3 0 4
BITMAP
4230
3D10
3220
ENDCHAR
STARTCHAR uni02E0
ENCODING 736
SWIDTH 413 0
DWIDTH 4 0
BBX 4 5 0 1
BITMAP
A546
2950
0A50
0760
0670
ENDCHAR
STARTCHAR uni02E1
ENCODING 737
SWIDTH 244 0
DWIDTH 2 0
BBX 2 5 0 2
BITMAP
66
46
46
46
69
ENDCHAR
STARTCHAR uni02E2
ENCODING 738
SWIDTH 337 0
DWIDTH 3 0
BBX 3 4 0 2
BITMAP
6570
8810
26A0
8670
ENDCHAR
STARTCHAR uni02E3
ENCODING 739
SWIDTH 445 0
DWIDTH 4 0
BBX 4 4 0 2
BITMAP
5B65
0950
06A0
6597
ENDCHAR
STARTCHAR uni02E4
ENCODING 740
SWIDTH 364 0
DWIDTH 3 0
BBX 4 5 0 2
BITMAP
3692
9210
4820
0280
05B1
ENDCHAR
STARTCHAR uni02E5
ENCODING 741
SWIDTH 423 0
DWIDTH 4 0
BBX 4 8 0 -1
BITMAP
4885
0007
0007
0007
0007
0007
0007
0002
ENDCHAR
STARTCHAR uni02E6
ENCODING 742
SWIDTH 414 0
DWIDTH 4 0
BBX 4 8 0 -1
BITMAP
0014
0025
5895
0025
0025
0025
0025
0001
ENDCHAR
STARTCHAR uni02E7
ENCODING 743
SWIDTH 414 0
DWIDTH 4 0
BBX 4 8 0 0
BITMAP
0001
0025
0025
0025
5895
0025
0025
0014
ENDCHAR
STARTCHAR uni02E8
ENCODING 744
SWIDTH 414 0
DWIDTH 4 0
BBX 4 8 0 0
BITMAP
0001
0025
0025
0025
0025
5895
0025
0014
ENDCHAR
STARTCHAR uni02E9
ENCODING 745
SWIDTH 414 0
DWIDTH 4 0
BBX 4 8 0 0
BITMAP
0001
0025
0025
0025
0025
0025
0025
5884
ENDCHAR
STARTCHAR uni02EC
ENCODING 748
SWIDTH 341 0
DWIDTH 3 0
BBX 3 3 0 -2
BITMAP
5050
5860
0A00
ENDCHAR
STARTCHAR uni02ED
ENCODING 749
SWIDTH 380 0
DWIDTH 3 0
BBX 4 2 0 5
BITMAP
6991
6991
ENDCHAR
STARTCHAR uni02F7
ENCODING 759
SWIDTH 381 0
DWIDTH 3 0
BBX 3 1 0 -2
BITMAP
4980
ENDCHAR
STARTCHAR uni0300
ENCODING 768
SWIDTH 0 0
DWIDTH 0 0
BBX 2 2 -3 5
BITMAP
60
63
ENDCHAR
STARTCHAR uni0301
ENCODING 769
SWIDTH 0 0
DWIDTH 0 0
BBX 2 2 -3 5
BITMAP
06
54
ENDCHAR
STARTCHAR uni0302
ENCODING 770
SWIDTH 0 0
DWIDTH 0 0
BBX 3 2 -4 5
BITMAP
0430
1670
ENDCHAR
STARTCHAR uni0303
ENCODING 771
SWIDTH 0 0
DWIDTH 0 0
BBX 4 1 -4 5
BITMAP
2992
ENDCHAR
STARTCHAR uni0304
ENCODING 772
SWIDTH 0 0
DWIDTH 0 0
BBX 4 1 -4 6
BITMAP
3882
ENDCHAR
STARTCHAR uni0305
ENCODING 773
SWIDTH 0 0
DWIDTH 0 0
BBX 4 1 -4 6
BITMAP
5888
ENDCHAR
STARTCHAR uni0306
ENCODING 774
SWIDTH 0 0
DWIDTH 0 0
BBX 4 2 -4 5
BITMAP
3022
1BA0
ENDCHAR
STARTCHAR uni0307
ENCODING 775
SWIDTH 0 0
DWIDTH 0 0
BBX 2 1 -3 6
BITMAP
53
ENDCHAR
STARTCHAR uni0308
ENCODING 776
SWIDTH 0 0
DWIDTH 0 0
BBX 4 1 -4 6
BITMAP
5353
ENDCHAR
STARTCHAR uni0309
ENCODING 777
SWIDTH 0 0
DWIDTH 0 0
BBX 2 3 -3 5
BITMAP
45
28
33
ENDCHAR
STARTCHAR uni030A
ENCODING 778
SWIDTH 0 0
DWIDTH 0 0
BBX 2 3 -3 5
BITMAP
65
66
65
ENDCHAR
STARTCHAR uni030B
ENCODING 779
SWIDTH 0 0
DWIDTH 0 0
BBX 3 2 -3 5
BITMAP
6870
8710
ENDCHAR
STARTCHAR uni030C
ENCODING 780
SWIDTH 0 0
DWIDTH 0 0
BBX 3 2 -4 5
BITMAP
1230
0870
ENDCHAR
STARTCHAR uni030D
ENCODING 781
SWIDTH 0 0
DWIDTH 0 0
BBX 2 3 -3 5
BITMAP
10
53
53
ENDCHAR
STARTCHAR uni030E
ENCODING 782
SWIDTH 0 0
DWIDTH 0 0
BBX 2 3 -3 5
BITMAP
11
88
88
ENDCHAR
STARTCHAR uni030F
ENCODING 783
SWIDTH 0 0
DWIDTH 0 0
BBX 3 2 -4 5
BITMAP
9840
2670
ENDCHAR
STARTCHAR uni0310
ENCODING 784
SWIDTH 0 0
DWIDTH 0 0
BBX 4 2 -4 5
BITMAP
2541
2BA0
ENDCHAR
STARTCHAR uni0311
ENCODING 785
SWIDTH 0 0
DWIDTH 0 0
BBX 4 2 -4 5
BITMAP
1A90
4242
ENDCHAR
STARTCHAR uni0312
ENCODING 786
SWIDTH 0 0
DWIDTH 0 0
BBX 2 2 -3 5
BITMAP
52
74
ENDCHAR
STARTCHAR uni0313
ENCODING 787
SWIDTH 0 0
DWIDTH 0 0
BBX 2 2 -3 6
BITMAP
65
34
ENDCHAR
STARTCHAR uni0314
ENCODING 788
SWIDTH 0 0
DWIDTH 0 0
BBX 2 2 -3 6
BITMAP
74
52
ENDCHAR
STARTCHAR uni0315
ENCODING 789
SWIDTH 0 0
DWIDTH 0 0
BBX 2 2 -3 5
BITMAP
29
34
ENDCHAR
STARTCHAR uni0316
ENCODING 790
SWIDTH 0 0
DWIDTH 0 0
BBX 2 2 -3 -2
BITMAP
60
63
ENDCHAR
STARTCHAR uni0317
ENCODING 791
SWIDTH 0 0
DWIDTH 0 0
BBX 2 2 -3 -2
BITMAP
06
45
ENDCHAR
STARTCHAR uni0318
ENCODING 792
SWIDTH 0 0
DWIDTH 0 0
BBX 2 2 -3 -3
BITMAP
06
47
ENDCHAR
STARTCHAR uni0319
ENCODING 793
SWIDTH 0 0
DWIDTH 0 0
BBX 2 2 -3 -3
BITMAP
50
73
ENDCHAR
STARTCHAR uni031A
ENCODING 794
SWIDTH 0 0
DWIDTH 0 0
BBX 2 3 -3 4
BITMAP
89
08
02
ENDCHAR
STARTCHAR uni031B
ENCODING 795
SWIDTH 0 0
DWIDTH 0 0
BBX 2 3 -2 4
BITMAP
03
0A
34
ENDCHAR
STARTCHAR uni031C
ENCODING 796
SWIDTH 0 0
DWIDTH 0 0
BBX 2 3 -3 -3
BITMAP
43
70
43
ENDCHAR
STARTCHAR uni031D
ENCODING 797
SWIDTH 0 0
DWIDTH 0 0
BBX 2 2 -3 -2
BITMAP
32
76
ENDCHAR
STARTCHAR uni031E
ENCODING 798
SWIDTH 0 0
DWIDTH 0 0
BBX 2 2 -3 -2
BITMAP
75
32
ENDCHAR
STARTCHAR uni031F
ENCODING 799
SWIDTH 0 0
DWIDTH 0 0
BBX 2 2 -3 -3
BITMAP
85
41
ENDCHAR
STARTCHAR uni0320
ENCODING 800
SWIDTH 0 0
DWIDTH 0 0
BBX 2 1 -3 -2
BITMAP
55
ENDCHAR
STARTCHAR uni0321
ENCODING 801
SWIDTH 0 0
DWIDTH 0 0
BBX 3 4 -4 -3
BITMAP
0030
0290
4270
7710
ENDCHAR
STARTCHAR uni0322
ENCODING 802
SWIDTH 0 0
DWIDTH 0 0
BBX 4 4 -3 -3
BITMAP
0300
1900
0922
0482
ENDCHAR
STARTCHAR uni0323
ENCODING 803
SWIDTH 0 0
DWIDTH 0 0
BBX 2 1 -3 -2
BITMAP
53
ENDCHAR
STARTCHAR uni0324
ENCODING 804
SWIDTH 0 0
DWIDTH 0 0
BBX 4 1 -4 -2
BITMAP
5353
ENDCHAR
STARTCHAR uni0325
ENCODING 805
SWIDTH 0 0
DWIDTH 0 0
BBX 2 3 -3 -3
BITMAP
55
66
65
ENDCHAR
STARTCHAR uni0326
ENCODING 806
SWIDTH 0 0
DWIDTH 0 0
BBX 2 2 -3 -3
BITMAP
65
34
ENDCHAR
STARTCHAR uni0327
ENCODING 807
SWIDTH 0 0
DWIDTH 0 0
BBX 2 3 -3 -2
BITMAP
10
46
45
ENDCHAR
STARTCHAR uni0328
ENCODING 808
SWIDTH 0 0
DWIDTH 0 0
BBX 2 3 -3 -2
BITMAP
11
70
85
ENDCHAR
STARTCHAR uni0329
ENCODING 809
SWIDTH 0 0
DWIDTH 0 0
BBX 2 2 -3 -2
BITMAP
42
53
ENDCHAR
STARTCHAR uni032A
ENCODING 810
SWIDTH 0 0
DWIDTH 0 0
BBX 3 2 -4 -2
BITMAP
2770
2230
ENDCHAR
STARTCHAR uni032B
ENCODING 811
SWIDTH 0 0
DWIDTH 0 0
BBX 4 2 -4 -2
BITMAP
2111
3672
ENDCHAR
STARTCHAR uni032C
ENCODING 812
SWIDTH 0 0
DWIDTH 0 0
BBX 3 2 -4 -2
BITMAP
1230
0870
ENDCHAR
STARTCHAR uni032D
ENCODING 813
SWIDTH 0 0
DWIDTH 0 0
BBX 3 2 -4 -2
BITMAP
0430
1670
ENDCHAR
STARTCHAR uni032E
ENCODING 814
SWIDTH 0 0
DWIDTH 0 0
BBX 4 2 -4 -2
BITMAP
3022
1BA0
ENDCHAR
STARTCHAR uni032F
ENCODING 815
SWIDTH 0 0
DWIDTH 0 0
BBX 4 2 -4 -2
BITMAP
1B90
4132
ENDCHAR
STARTCHAR uni0330
ENCODING 816
SWIDTH 0 0
DWIDTH 0 0
BBX 4 1 -4 -2
BITMAP
3981
ENDCHAR
STARTCHAR uni0331
ENCODING 817
SWIDTH 0 0
DWIDTH 0 0
BBX 4 1 -4 -2
BITMAP
3882
ENDCHAR
STARTCHAR uni0332
ENCODING 818
SWIDTH 0 0
DWIDTH 0 0
BBX 6 1 -5 -2
BITMAP
388882
ENDCHAR
STARTCHAR uni0333
ENCODING 819
SWIDTH 0 0
DWIDTH 0 0
BBX 6 2 -5 -3
BITMAP
388882
388882
ENDCHAR
STARTCHAR uni0334
ENCODING 820
SWIDTH 0 0
DWIDTH 0 0
BBX 4 2 -4 2
BITMAP
2A54
32A1
ENDCHAR
STARTCHAR uni0335
ENCODING 821
SWIDTH 0 0
DWIDTH 0 0
BBX 4 1 -4 2
BITMAP
3772
ENDCHAR
STARTCHAR uni0336
ENCODING 822
SWIDTH 0 0
DWIDTH 0 0
BBX 6 1 -5 2
BITMAP
377772
ENDCHAR
STARTCHAR uni0337
ENCODING 823
SWIDTH 0 0
DWIDTH 0 0
BBX 3 3 -4 2
BITMAP
0010
0450
1300
ENDCHAR
STARTCHAR uni0338
ENCODING 824
SWIDTH 0 0
DWIDTH 0 0
BBX 4 9 -4 -2
BITMAP
0004
0017
0052
0070
0250
0700
0700
4300
7000
ENDCHAR
STARTCHAR uni0339
ENCODING 825
SWIDTH 0 0
DWIDTH 0 0
BBX 2 3 -3 -3
BITMAP
43
06
43
ENDCHAR
STARTCHAR uni033A
ENCODING 826
SWIDTH 0 0
DWIDTH 0 0
BBX 3 2 -4 -2
BITMAP
2230
2770
ENDCHAR
STARTCHAR uni033B
ENCODING 827
SWIDTH 0 0
DWIDTH 0 0
BBX 2 2 -3 -3
BITMAP
76
76
ENDCHAR
STARTCHAR uni033C
ENCODING 828
SWIDTH 0 0
DWIDTH 0 0
BBX 4 2 -4 -2
BITMAP
3782
0100
ENDCHAR
STARTCHAR uni033D
ENCODING 829
SWIDTH 0 0
DWIDTH 0 0
BBX 2 2 -3 5
BITMAP
43
76
ENDCHAR
STARTCHAR uni033E
ENCODING 830
SWIDTH 0 0
DWIDTH 0 0
BBX 2 4 -3 4
BITMAP
22
72
35
20
ENDCHAR
STARTCHAR uni033F
ENCODING 831
SWIDTH 0 0
DWIDTH 0 0
BBX 4 2 -4 5
BITMAP
7886
7886
ENDCHAR
STARTCHAR uni0346
ENCODING 838
SWIDTH 0 0
DWIDTH 0 0
BBX 4 2 -4 5
BITMAP
4993
4132
ENDCHAR
STARTCHAR uni0347
ENCODING 839
SWIDTH 0 0
DWIDTH 0 0
BBX 4 2 -4 -2
BITMAP
4993
4993
ENDCHAR
STARTCHAR uni034C
ENCODING 844
SWIDTH 0 0
DWIDTH 0 0
BBX 4 3 -4 5
BITMAP
2913
3191
2992
ENDCHAR
STARTCHAR uni034D
ENCODING 845
SWIDTH 0 0
DWIDTH 0 0
BBX 5 3 -5 -3
BITMAP
030120
1C88C0
030120
ENDCHAR
STARTCHAR uni0359
ENCODING 857
SWIDTH 0 0
DWIDTH 0 0
BBX 4 3 -4 -4
BITMAP
3982
3881
0520
ENDCHAR
STARTCHAR uni035C
ENCODING 860
SWIDTH 0 0
DWIDTH 0 0
BBX 6 2 -3 -3
BITMAP
500005
5BBBB5
ENDCHAR
STARTCHAR uni0360
ENCODING 864
SWIDTH 0 0
DWIDTH 0 0
BBX 6 2 -3 5
BITMAP
099112
212990
ENDCHAR
STARTCHAR uni0361
ENCODING 865
SWIDTH 0 0
DWIDTH 0 0
BBX 6 2 -3 5
BITMAP
07BB60
250051
ENDCHAR
STARTCHAR uni0362
ENCODING 866
SWIDTH 0 0
DWIDTH 0 0
BBX 8 3 -4 -3
BITMAP
00000030
388888B5
00000030
ENDCHAR
STARTCHAR uni037E
ENCODING 894
SWIDTH 261 0
DWIDTH 2 0
BBX 2 7 0 -2
BITMAP
37
00
00
00
39
07
11
ENDCHAR
STARTCHAR tonos
ENCODING 900
SWIDTH 165 0
DWIDTH 1 0
BBX 2 2 0 5
BITMAP
82
80
ENDCHAR
STARTCHAR dieresistonos
ENCODING 901
SWIDTH 426 0
DWIDTH 4 0
BBX 4 2 0 5
BITMAP
0560
7856
ENDCHAR
STARTCHAR Alphatonos
ENCODING 902
SWIDTH 718 0
DWIDTH 6 0
BBX 7 7 0 0
BITMAP
64380000
707C0000
00794000
0434A000
0866E100
17009600
98009D20
ENDCHAR
STARTCHAR anoteleia
ENCODING 903
SWIDTH 261 0
DWIDTH 2 0
BBX 2 1 0 4
BITMAP
37
ENDCHAR
STARTCHAR Epsilontonos
ENCODING 904
SWIDTH 745 0
DWIDTH 7 0
BBX 8 7 -1 0
BITMAP
0A3E77B2
160B2022
000B2050
000B7870
000B2020
000B2015
003D77B4
ENDCHAR
STARTCHAR Etatonos
ENCODING 905
SWIDTH 896 0
DWIDTH 8 0
BBX 9 7 -1 0
BITMAP
0A3E705E40
160B100C00
000B100C00
000B766D00
000B100C00
000B100C00
003E705E40
ENDCHAR
STARTCHAR Iotatonos
ENCODING 906
SWIDTH 478 0
DWIDTH 4 0
BBX 5 7 -1 0
BITMAP
0A3D70
160B20
000B20
000B20
000B20
000B20
003D70
ENDCHAR
STARTCHAR Omicrontonos
ENCODING 908
SWIDTH 806 0
DWIDTH 7 0
BBX 8 7 -1 0
BITMAP
0A087770
16760085
00C2004A
00E1003C
00C2004A
00760085
00087770
ENDCHAR
STARTCHAR Upsilontonos
ENCODING 910
SWIDTH 787 0
DWIDTH 7 0
BBX 9 7 -1 0
BITMAP
375F407910
4308607000
0001D25000
00008B0000
0000390000
0000390000
00008D3000
ENDCHAR
STARTCHAR Omegatonos
ENCODING 911
SWIDTH 830 0
DWIDTH 7 0
BBX 8 7 -1 0
BITMAP
0A08DD80
167B00B7
00B4004B
00B3004A
00760076
01491195
00ED77DD
ENDCHAR
STARTCHAR iotadieresistonos
ENCODING 912
SWIDTH 259 0
DWIDTH 2 0
BBX 4 8 -1 0
BITMAP
0280
5767
0000
0660
0650
0630
0620
03B2
ENDCHAR
STARTCHAR Alpha
ENCODING 913
SWIDTH 718 0
DWIDTH 6 0
BBX 7 7 0 0
BITMAP
00380000
007C0000
00794000
0434A000
0866E100
17009600
98009D20
ENDCHAR
STARTCHAR Beta
ENCODING 914
SWIDTH 618 0
DWIDTH 6 0
BBX 6 7 0 0
BITMAP
3E6960
0C00D0
0C01A0
0C6B40
0C01D1
0C00B3
4E5680
ENDCHAR
STARTCHAR Gamma
ENCODING 915
SWIDTH 569 0
DWIDTH 5 0
BBX 5 7 0 0
BITMAP
8FDDD0
0D0070
0C0000
0C0000
0C0000
0D1000
8FE000
ENDCHAR
STARTCHAR Delta
ENCODING 916
SWIDTH 667 0
DWIDTH 6 0
BBX 6 7 0 0
BITMAP
005600
008B00
025C20
071770
0702D0
4300C3
ACCCE8
ENDCHAR
STARTCHAR Epsilon
ENCODING 917
SWIDTH 626 0
DWIDTH 6 0
BBX 6 7 0 0
BITMAP
3E77C1
0C0031
0C0050
0C7960
0C0020
0C0024
3E77C3
ENDCHAR
STARTCHAR Zeta
ENCODING 918
SWIDTH 594 0
DWIDTH 5 0
BBX 6 7 0 0
BITMAP
6A79D0
400A50
004B00
00C300
079000
1D1051
9B78C0
ENDCHAR
STARTCHAR Eta
ENCODING 919
SWIDTH 777 0
DWIDTH 7 0
BBX 7 7 0 0
BITMAP
4E606E40
0C100C00
0C000C00
0C766C00
0C000C00
0C100C00
3E606E30
ENDCHAR
STARTCHAR Theta
ENCODING 920
SWIDTH 738 0
DWIDTH 7 0
BBX 7 7 0 0
BITMAP
05DDB100
2D206B00
79000E10
87BD6C20
79404E10
2D206B00
05DDB200
ENDCHAR
STARTCHAR Iota
ENCODING 921
SWIDTH 357 0
DWIDTH 3 0
BBX 3 7 0 0
BITMAP
4E60
0C00
0C00
0C00
0C00
0C00
4E60
ENDCHAR
STARTCHAR Kappa
ENCODING 922
SWIDTH 702 0
DWIDTH 6 0
BBX 7 7 0 0
BITMAP
4E62E600
0C054000
0C350000
0CC10000
0C4C1000
0C06A000
4E62EA10
ENDCHAR
STARTCHAR Lambda
ENCODING 923
SWIDTH 710 0
DWIDTH 6 0
BBX 7 7 0 0
BITMAP
00470000
007C0000
01695000
0614B000
0700D200
36008800
ED01EF50
ENDCHAR
STARTCHAR Mu
ENCODING 924
SWIDTH 895 0
DWIDTH 8 0
BBX 8 7 0 0
BITMAP
4F4004E4
0BA007C0
07D107C0
079543C0
073A70C0
070C60C0
4C2724E4
ENDCHAR
STARTCHAR Nu
ENCODING 925
SWIDTH 742 0
DWIDTH 7 0
BBX 7 7 0 0
BITMAP
5E204C20
0BB00700
07A60700
071D2700
0705A700
0700A900
4C201800
ENDCHAR
STARTCHAR Xi
ENCODING 926
SWIDTH 648 0
DWIDTH 6 0
BBX 6 7 0 0
BITMAP
6EDDE3
400023
050050
08DD60
010010
500005
7EDDE5
ENDCHAR
STARTCHAR Omicron
ENCODING 927
SWIDTH 738 0
DWIDTH 7 0
BBX 7 7 0 0
BITMAP
04869200
2C002B00
68000D10
86000C20
78000D10
2C002B00
05868100
ENDCHAR
STARTCHAR Pi
ENCODING 928
SWIDTH 759 0
DWIDTH 7 0
BBX 7 7 0 0
BITMAP
9FDDDF70
0D003A00
0C003A00
0C003A00
0C003A00
0D103A00
9FC0EF70
ENDCHAR
STARTCHAR Rho
ENCODING 929
SWIDTH 569 0
DWIDTH 5 0
BBX 5 7 0 0
BITMAP
3E7950
0C01C0
0C02A0
0C6710
0C0000
0C1000
3E6000
ENDCHAR
STARTCHAR Sigma
ENCODING 931
SWIDTH 604 0
DWIDTH 5 0
BBX 6 7 0 0
BITMAP
9EDDD0
1C1070
04B000
009200
026000
080052
8EDDE0
ENDCHAR
STARTCHAR Tau
ENCODING 932
SWIDTH 603 0
DWIDTH 5 0
BBX 6 7 0 0
BITMAP
B7D8B4
50B214
00B200
00B200
00B200
00B200
03D700
ENDCHAR
STARTCHAR Upsilon
ENCODING 933
SWIDTH 647 0
DWIDTH 6 0
BBX 6 7 0 0
BITMAP
9D20B6
0C3070
05A520
00C700
007500
007500
02BA10
ENDCHAR
STARTCHAR Phi
ENCODING 934
SWIDTH 718 0
DWIDTH 6 0
BBX 7 7 0 0
BITMAP
01EF7000
027C3000
494A4B00
A43A0C10
773A1C00
068C7200
01EF7000
ENDCHAR
STARTCHAR Chi
ENCODING 935
SWIDTH 664 0
DWIDTH 6 0
BBX 6 7 0 0
BITMAP
5F51C6
087260
01D700
009800
026C20
0805A0
8A03F7
ENDCHAR
STARTCHAR Psi
ENCODING 936
SWIDTH 720 0
DWIDTH 6 0
BBX 7 7 0 0
BITMAP
D4EF7960
673A0D00
673A0D00
4B3A5C00
08DEB200
003A0000
01EF7000
ENDCHAR
STARTCHAR Omega
ENCODING 937
SWIDTH 777 0
DWIDTH 7 0
BBX 7 7 0 0
BITMAP
03CDC300
0E404E10
3C000C40
3B000B30
0C000C00
45606540
7DE0ED60
ENDCHAR
STARTCHAR Iotadieresis
ENCODING 938
SWIDTH 357 0
DWIDTH 3 0
BBX 4 8 0 0
BITMAP
B1B1
4E70
0C00
0C00
0C00
0C00
0C00
4E60
ENDCHAR
STARTCHAR Upsilondieresis
ENCODING 939
SWIDTH 647 0
DWIDTH 6 0
BBX 6 8 0 0
BITMAP
057570
9E21B6
0C3070
05A520
00C700
007500
007500
02BA10
ENDCHAR
STARTCHAR alphatonos
ENCODING 940
SWIDTH 561 0
DWIDTH 5 0
BBX 5 7 0 0
BITMAP
009000
007000
1CC680
621D20
600800
703900
3C6880
ENDCHAR
STARTCHAR epsilontonos
ENCODING 941
SWIDTH 381 0
DWIDTH 3 0
BBX 4 7 0 0
BITMAP
00A0
0070
3CD2
7100
3840
8110
4DC1
ENDCHAR
STARTCHAR etatonos
ENCODING 942
SWIDTH 510 0
DWIDTH 5 0
BBX 4 10 0 -3
BITMAP
0073
0070
A6B9
1B28
0A07
1908
3909
000A
000C
0002
ENDCHAR
STARTCHAR iotatonos
ENCODING 943
SWIDTH 259 0
DWIDTH 2 0
BBX 3 7 0 0
BITMAP
0900
1600
6600
6500
6300
6200
3B20
ENDCHAR
STARTCHAR upsilondieresistonos
ENCODING 944
SWIDTH 491 0
DWIDTH 4 0
BBX 4 8 0 0
BITMAP
0370
6856
0000
B625
3708
3409
341A
1CC4
ENDCHAR
STARTCHAR alpha
ENCODING 945
SWIDTH 561 0
DWIDTH 5 0
BBX 5 5 0 0
BITMAP
1CC680
621D20
600800
703900
3C6880
ENDCHAR
STARTCHAR beta
ENCODING 946
SWIDTH 530 0
DWIDTH 5 0
BBX 5 11 0 -3
BITMAP
03CB00
090630
170420
340600
54A500
630530
670450
78CC10
840000
940000
100000
ENDCHAR
STARTCHAR gamma
ENCODING 947
SWIDTH 466 0
DWIDTH 4 0
BBX 4 7 0 -2
BITMAP
A81D
1947
0681
0570
0630
0A20
0B00
ENDCHAR
STARTCHAR delta
ENCODING 948
SWIDTH 479 0
DWIDTH 4 0
BBX 4 8 0 0
BITMAP
0AD5
0717
0480
1AD7
630B
600A
711A
3DC2
ENDCHAR
STARTCHAR epsilon
ENCODING 949
SWIDTH 381 0
DWIDTH 3 0
BBX 4 5 0 0
BITMAP
3CD2
7100
3840
8110
4DC1
ENDCHAR
STARTCHAR zeta
ENCODING 950
SWIDTH 386 0
DWIDTH 3 0
BBX 4 11 0 -3
BITMAP
0300
0949
05A1
1900
6100
5000
7200
3DC2
0036
0582
0310
ENDCHAR
STARTCHAR eta
ENCODING 951
SWIDTH 510 0
DWIDTH 5 0
BBX 4 8 0 -3
BITMAP
A6B9
1B28
0A07
1908
3909
000A
000C
0002
ENDCHAR
STARTCHAR theta
ENCODING 952
SWIDTH 514 0
DWIDTH 5 0
BBX 5 8 0 0
BITMAP
08D400
270A00
610710
700530
8DDD20
600510
350700
0AD400
ENDCHAR
STARTCHAR iota
ENCODING 953
SWIDTH 259 0
DWIDTH 2 0
BBX 3 5 0 0
BITMAP
6600
6500
6300
6200
3B20
ENDCHAR
STARTCHAR kappa
ENCODING 954
SWIDTH 495 0
DWIDTH 4 0
BBX 5 5 0 0
BITMAP
A81C10
19A400
0B6000
0A7000
293D30
ENDCHAR
STARTCHAR lambda
ENCODING 955
SWIDTH 506 0
DWIDTH 5 0
BBX 5 8 0 0
BITMAP
0C4000
118000
007000
01C000
079000
0B5200
484610
B31D50
ENDCHAR
STARTCHAR mu
ENCODING 956
SWIDTH 552 0
DWIDTH 5 0
BBX 5 8 0 -3
BITMAP
570B10
550900
530900
553A00
7A9880
820000
930000
100000
ENDCHAR
STARTCHAR nu
ENCODING 957
SWIDTH 453 0
DWIDTH 4 0
BBX 4 6 0 -1
BITMAP
B719
190C
0729
0692
0960
0100
ENDCHAR
STARTCHAR xi
ENCODING 958
SWIDTH 390 0
DWIDTH 4 0
BBX 4 10 0 -2
BITMAP
0400
19A6
1920
4400
19B1
6000
8400
2AD4
0006
06A1
ENDCHAR
STARTCHAR omicron
ENCODING 959
SWIDTH 475 0
DWIDTH 4 0
BBX 4 5 0 0
BITMAP
1BD5
6208
6006
8108
2CD3
ENDCHAR
STARTCHAR pi
ENCODING 960
SWIDTH 591 0
DWIDTH 5 0
BBX 6 5 0 0
BITMAP
5CDED1
232600
060700
090A00
390A90
ENDCHAR
STARTCHAR rho
ENCODING 961
SWIDTH 515 0
DWIDTH 5 0
BBX 5 8 0 -3
BITMAP
07DA00
280530
530240
660710
78D700
740000
750000
100000
ENDCHAR
STARTCHAR uni03C2
ENCODING 962
SWIDTH 377 0
DWIDTH 3 0
BBX 4 7 0 -2
BITMAP
1BD2
6100
6000
6920
07C2
0015
0790
ENDCHAR
STARTCHAR sigma
ENCODING 963
SWIDTH 545 0
DWIDTH 5 0
BBX 5 5 0 0
BITMAP
1BDEB0
730600
700700
820A00
2DD500
ENDCHAR
STARTCHAR tau
ENCODING 964
SWIDTH 392 0
DWIDTH 4 0
BBX 4 5 0 0
BITMAP
8DD7
2600
0800
0A00
07B0
ENDCHAR
STARTCHAR upsilon
ENCODING 965
SWIDTH 491 0
DWIDTH 4 0
BBX 4 5 0 0
BITMAP
B625
3708
3409
341A
1CC4
ENDCHAR
STARTCHAR phi
ENCODING 966
SWIDTH 603 0
DWIDTH 5 0
BBX 6 8 0 -2
BITMAP
001000
1C5C90
617271
607061
6694A0
08E810
00B000
00A000
ENDCHAR
STARTCHAR chi
ENCODING 967
SWIDTH 462 0
DWIDTH 4 0
BBX 6 7 -1 -2
BITMAP
0B60B3
108490
005A10
006600
01A700
093800
3B04C1
ENDCHAR
STARTCHAR psi
ENCODING 968
SWIDTH 620 0
DWIDTH 6 0
BBX 6 11 0 -3
BITMAP
003300
006500
006300
A76370
376281
346272
2663B0
0AED40
008200
009300
001000
ENDCHAR
STARTCHAR omega
ENCODING 969
SWIDTH 660 0
DWIDTH 6 0
BBX 6 6 0 0
BITMAP
010010
2C1061
726627
606409
716237
2C7BD1
ENDCHAR
STARTCHAR iotadieresis
ENCODING 970
SWIDTH 259 0
DWIDTH 2 0
BBX 4 7 -1 0
BITMAP
3636
0000
0660
0650
0630
0620
03B2
ENDCHAR
STARTCHAR upsilondieresis
ENCODING 971
SWIDTH 491 0
DWIDTH 4 0
BBX 4 7 0 0
BITMAP
4545
0000
B625
3708
3409
341A
1CC4
ENDCHAR
STARTCHAR omicrontonos
ENCODING 972
SWIDTH 475 0
DWIDTH 4 0
BBX 4 7 0 0
BITMAP
0091
0070
1BD5
6208
6006
8108
2CD3
ENDCHAR
STARTCHAR upsilontonos
ENCODING 973
SWIDTH 491 0
DWIDTH 4 0
BBX 4 7 0 0
BITMAP
00A0
0070
B625
3708
3409
341A
1CC4
ENDCHAR
STARTCHAR omegatonos
ENCODING 974
SWIDTH 660 0
DWIDTH 6 0
BBX 6 7 0 0
BITMAP
002800
014410
2C1061
726627
606409
716237
2C7BD1
ENDCHAR
STARTCHAR uni03D0
ENCODING 976
SWIDTH 438 0
DWIDTH 4 0
BBX 4 8 0 0
BITMAP
03D6
0905
3A15
65C3
7BD3
7505
4706
0AD3
ENDCHAR
STARTCHAR uni03D1
ENCODING 977
SWIDTH 541 0
DWIDTH 5 0
BBX 5 8 0 0
BITMAP
06D400
070800
060600
061530
01AD70
7A0430
190910
07D800
ENDCHAR
STARTCHAR uni03D2
ENCODING 978
SWIDTH 616 0
DWIDTH 6 0
BBX 6 7 0 0
BITMAP
7E54D5
03B946
00B600
00A300
00A200
00A300
08FE10
ENDCHAR
STARTCHAR uni03D5
ENCODING 981
SWIDTH 575 0
DWIDTH 5 0
BBX 5 10 0 -2
BITMAP
004200
009300
00A300
1CDC50
719080
609060
749470
09E910
00A000
00B000
ENDCHAR
STARTCHAR uni03D6
ENCODING 982
SWIDTH 821 0
DWIDTH 7 0
BBX 8 5 0 0
BITMAP
7DEDDED4
27232450
06084270
08071460
04D6CC10
ENDCHAR
STARTCHAR uni03D8
ENCODING 984
SWIDTH 627 0
DWIDTH 6 0
BBX 6 7 0 0
BITMAP
09DD60
7901D2
A500A4
8500A2
2A3580
00A500
02C800
ENDCHAR
STARTCHAR uni03D9
ENCODING 985
SWIDTH 475 0
DWIDTH 4 0
BBX 4 8 0 -3
BITMAP
1BD5
6308
6006
7007
3CB5
0450
0560
0320
ENDCHAR
STARTCHAR uni03DA
ENCODING 986
SWIDTH 578 0
DWIDTH 5 0
BBX 5 7 0 0
BITMAP
09DEB0
6A0190
A40010
A50000
6B1000
08DA00
007C30
ENDCHAR
STARTCHAR uni03DB
ENCODING 987
SWIDTH 490 0
DWIDTH 4 0
BBX 5 7 0 -2
BITMAP
19DD50
620000
600000
681000
07C100
003300
098000
ENDCHAR
STARTCHAR uni03DC
ENCODING 988
SWIDTH 588 0
DWIDTH 5 0
BBX 6 7 0 0
BITMAP
4E77B2
0C0022
0C0050
0C7950
0C0020
0C0000
3E6000
ENDCHAR
STARTCHAR uni03DD
ENCODING 989
SWIDTH 386 0
DWIDTH 3 0
BBX 5 7 -1 -2
BITMAP
04ED50
045000
035000
04BA00
053000
080000
A70000
ENDCHAR
STARTCHAR uni03DE
ENCODING 990
SWIDTH 525 0
DWIDTH 5 0
BBX 5 7 0 0
BITMAP
0CE100
062000
250000
9DDD50
000700
005300
04F900
ENDCHAR
STARTCHAR uni03DF
ENCODING 991
SWIDTH 434 0
DWIDTH 4 0
BBX 5 7 -1 0
BITMAP
1C4000
125000
033110
06BE10
042600
000810
000A80
ENDCHAR
STARTCHAR uni03E0
ENCODING 992
SWIDTH 697 0
DWIDTH 6 0
BBX 7 7 0 0
BITMAP
00B30000
006A0000
007C2000
035A8000
0826D100
26809800
8272EF40
ENDCHAR
STARTCHAR uni03E1
ENCODING 993
SWIDTH 458 0
DWIDTH 4 0
BBX 5 10 -1 -3
BITMAP
1C3000
04D200
003A00
039B20
053270
005980
005170
000070
000060
000020
ENDCHAR
STARTCHAR uni03F0
ENCODING 1008
SWIDTH 504 0
DWIDTH 5 0
BBX 5 5 0 0
BITMAP
A70A40
184900
06D100
0C8200
691C60
ENDCHAR
STARTCHAR uni03F1
ENCODING 1009
SWIDTH 467 0
DWIDTH 4 0
BBX 4 7 0 -2
BITMAP
09D6
4308
7308
7AD5
3B20
03A0
0970
ENDCHAR
STARTCHAR uni03F4
ENCODING 1012
SWIDTH 737 0
DWIDTH 7 0
BBX 7 7 0 0
BITMAP
05CDB200
2D206B00
67000D10
8EDDDF20
77000D10
2D205A00
05DDB100
ENDCHAR
STARTCHAR uni03F5
ENCODING 1013
SWIDTH 380 0
DWIDTH 3 0
BBX 4 5 0 0
BITMAP
1BD2
6100
9D80
7110
2CD1
ENDCHAR
STARTCHAR uni03F6
ENCODING 1014
SWIDTH 382 0
DWIDTH 3 0
BBX 4 5 0 0
BITMAP
9C60
0060
2DE1
1080
8D70
ENDCHAR
STARTCHAR uni0400
ENCODING 1024
SWIDTH 626 0
DWIDTH 6 0
BBX 6 9 0 0
BITMAP
007000
004600
3E77C1
0C0031
0C0050
0C7960
0C0020
0C0024
3E77C3
ENDCHAR
STARTCHAR uni0401
ENCODING 1025
SWIDTH 626 0
DWIDTH 6 0
BBX 6 8 0 0
BITMAP
074840
3F77C1
0C0031
0C0050
0C7960
0C0020
0C0024
3E77C3
ENDCHAR
STARTCHAR uni0402
ENCODING 1026
SWIDTH 731 0
DWIDTH 7 0
BBX 7 7 0 0
BITMAP
A8D8A500
50B20500
00B20000
00B89700
00B20B30
00B20840
02D68700
ENDCHAR
STARTCHAR uni0403
ENCODING 1027
SWIDTH 548 0
DWIDTH 5 0
BBX 5 9 0 0
BITMAP
002500
009100
3E78A0
0C0060
0C0010
0C0000
0C0000
0C1000
3E7000
ENDCHAR
STARTCHAR uni0404
ENCODING 1028
SWIDTH 668 0
DWIDTH 6 0
BBX 6 7 0 0
BITMAP
0587D7
2B0027
770002
8A6620
770000
2B0003
05B981
ENDCHAR
STARTCHAR uni0405
ENCODING 1029
SWIDTH 504 0
DWIDTH 5 0
BBX 5 7 0 0
BITMAP
287D00
740600
5C2000
07E500
103E10
700A20
9A7800
ENDCHAR
STARTCHAR uni0406
ENCODING 1030
SWIDTH 357 0
DWIDTH 3 0
BBX 3 7 0 0
BITMAP
4E60
0C00
0C00
0C00
0C00
0C00
4E60
ENDCHAR
STARTCHAR uni0407
ENCODING 1031
SWIDTH 357 0
DWIDTH 3 0
BBX 4 8 0 0
BITMAP
B1B1
4E70
0C00
0C00
0C00
0C00
0C00
4E60
ENDCHAR
STARTCHAR uni0408
ENCODING 1032
SWIDTH 396 0
DWIDTH 4 0
BBX 4 7 0 0
BITMAP
19C2
0480
0480
0480
0480
2480
B830
ENDCHAR
STARTCHAR uni0409
ENCODING 1033
SWIDTH 924 0
DWIDTH 8 0
BBX 9 7 -1 0
BITMAP
003A6E4000
00060C0000
00060C0000
00150D7830
00420C01D0
01700D00E0
1E604E6950
ENDCHAR
STARTCHAR uni040A
ENCODING 1034
SWIDTH 1013 0
DWIDTH 9 0
BBX 9 7 0 0
BITMAP
4E608D3000
0C102B0000
0C002B0000
0C878D8920
0C002B04B0
0C002B02C0
3E607C6930
ENDCHAR
STARTCHAR uni040B
ENCODING 1035
SWIDTH 761 0
DWIDTH 7 0
BBX 7 7 0 0
BITMAP
A8D8A500
50B20500
00B20000
00B78600
00B20D00
00B20C00
03D72E50
ENDCHAR
STARTCHAR uni040C
ENCODING 1036
SWIDTH 658 0
DWIDTH 6 0
BBX 6 9 0 0
BITMAP
000610
004600
3E609B
0C0151
0C0510
0C7900
0C0A30
0C13B0
3E60B7
ENDCHAR
STARTCHAR uni040D
ENCODING 1037
SWIDTH 780 0
DWIDTH 7 0
BBX 7 9 0 0
BITMAP
00700000
00460000
3E606E40
0C004C00
0C016C00
0C070C00
0C620C00
0C500D00
4E606E40
ENDCHAR
STARTCHAR uni040E
ENCODING 1038
SWIDTH 625 0
DWIDTH 6 0
BBX 6 9 0 0
BITMAP
055560
015510
9D11B6
0C1070
076240
01C600
008700
016100
2E6000
ENDCHAR
STARTCHAR uni040F
ENCODING 1039
SWIDTH 759 0
DWIDTH 7 0
BBX 7 9 0 -2
BITMAP
4E508C30
0C003A00
0C003A00
0C003A00
0C003A00
0C003A00
3E778C30
00080000
000B0000
ENDCHAR
STARTCHAR uni0410
ENCODING 1040
SWIDTH 718 0
DWIDTH 6 0
BBX 7 7 0 0
BITMAP
00380000
007C0000
00794000
0434A000
0866E100
17009600
98009D20
ENDCHAR
STARTCHAR uni0411
ENCODING 1041
SWIDTH 617 0
DWIDTH 6 0
BBX 6 7 0 0
BITMAP
3E67B0
0C0060
0C0000
0C7840
0C01D1
0C00C2
3E7870
ENDCHAR
STARTCHAR uni0412
ENCODING 1042
SWIDTH 618 0
DWIDTH 6 0
BBX 6 7 0 0
BITMAP
3E6960
0C00D0
0C01A0
0C6B40
0C01D1
0C00B3
4E5680
ENDCHAR
STARTCHAR uni0413
ENCODING 1043
SWIDTH 548 0
DWIDTH 5 0
BBX 5 7 0 0
BITMAP
3E78A0
0C0060
0C0010
0C0000
0C0000
0C1000
3E7000
ENDCHAR
STARTCHAR uni0414
ENCODING 1044
SWIDTH 663 0
DWIDTH 6 0
BBX 6 9 0 -2
BITMAP
0797D3
0341B0
0521B0
0701B0
0701B0
1701B0
B867E4
A00029
500005
ENDCHAR
STARTCHAR uni0415
ENCODING 1045
SWIDTH 626 0
DWIDTH 6 0
BBX 6 7 0 0
BITMAP
3E77C1
0C0031
0C0050
0C7960
0C0020
0C0024
3E77C3
ENDCHAR
STARTCHAR uni0416
ENCODING 1046
SWIDTH 937 0
DWIDTH 8 0
BBX 9 7 0 0
BITMAP
A808C23D20
1513906100
0153906000
00A8BA3000
049393A000
0B2390A300
7A08C24B20
ENDCHAR
STARTCHAR uni0417
ENCODING 1047
SWIDTH 545 0
DWIDTH 5 0
BBX 5 7 0 0
BITMAP
686A10
610940
100A10
03B900
000870
300780
28AB10
ENDCHAR
STARTCHAR uni0418
ENCODING 1048
SWIDTH 780 0
DWIDTH 7 0
BBX 7 7 0 0
BITMAP
3E606E40
0C004C00
0C016C00
0C070C00
0C620C00
0C500D00
4E606E40
ENDCHAR
STARTCHAR uni0419
ENCODING 1049
SWIDTH 780 0
DWIDTH 7 0
BBX 7 9 0 0
BITMAP
00A0B000
00444000
3E606E40
0C004C00
0C016C00
0C070C00
0C620C00
0C500D00
4E606E40
ENDCHAR
STARTCHAR uni041A
ENCODING 1050
SWIDTH 658 0
DWIDTH 6 0
BBX 6 7 0 0
BITMAP
3E609B
0C0151
0C0510
0C7900
0C0A30
0C13B0
3E60B7
ENDCHAR
STARTCHAR uni041B
ENCODING 1051
SWIDTH 684 0
DWIDTH 6 0
BBX 7 7 -1 0
BITMAP
004B7E50
00060C00
00060C00
00150C00
00420C00
01700D00
1E604F50
ENDCHAR
STARTCHAR uni041C
ENCODING 1052
SWIDTH 895 0
DWIDTH 8 0
BBX 8 7 0 0
BITMAP
4F4004E4
0BA007C0
07D107C0
079543C0
073A70C0
070C60C0
4C2724E4
ENDCHAR
STARTCHAR uni041D
ENCODING 1053
SWIDTH 777 0
DWIDTH 7 0
BBX 7 7 0 0
BITMAP
4E606E40
0C100C00
0C000C00
0C766C00
0C000C00
0C100C00
3E606E30
ENDCHAR
STARTCHAR uni041E
ENCODING 1054
SWIDTH 738 0
DWIDTH 7 0
BBX 7 7 0 0
BITMAP
04869200
2C002B00
68000D10
86000C20
78000D10
2C002B00
05868100
ENDCHAR
STARTCHAR uni041F
ENCODING 1055
SWIDTH 759 0
DWIDTH 7 0
BBX 7 7 0 0
BITMAP
9FDDDF70
0D003A00
0C003A00
0C003A00
0C003A00
0D103A00
9FC0EF70
ENDCHAR
STARTCHAR uni0420
ENCODING 1056
SWIDTH 569 0
DWIDTH 5 0
BBX 5 7 0 0
BITMAP
3E7950
0C01C0
0C02A0
0C6710
0C0000
0C1000
3E6000
ENDCHAR
STARTCHAR uni0421
ENCODING 1057
SWIDTH 670 0
DWIDTH 6 0
BBX 6 7 0 0
BITMAP
0487C7
2B0027
670002
860000
780000
2D1003
05B981
ENDCHAR
STARTCHAR uni0422
ENCODING 1058
SWIDTH 603 0
DWIDTH 5 0
BBX 6 7 0 0
BITMAP
B7D8B4
50B214
00B200
00B200
00B200
00B200
03D700
ENDCHAR
STARTCHAR uni0423
ENCODING 1059
SWIDTH 625 0
DWIDTH 6 0
BBX 6 7 0 0
BITMAP
9D11B6
0C1070
076240
01C600
008700
016100
2E6000
ENDCHAR
STARTCHAR uni0424
ENCODING 1060
SWIDTH 725 0
DWIDTH 7 0
BBX 7 7 0 0
BITMAP
007C3000
187C8500
752A0C10
A32A0A20
762A0C00
087C8400
007D2000
ENDCHAR
STARTCHAR uni0425
ENCODING 1061
SWIDTH 664 0
DWIDTH 6 0
BBX 6 7 0 0
BITMAP
5F51C6
087260
01D700
009800
026C20
0805A0
8A03F7
ENDCHAR
STARTCHAR uni0426
ENCODING 1062
SWIDTH 756 0
DWIDTH 7 0
BBX 7 9 0 -2
BITMAP
4E609C20
0C004900
0C004900
0C004900
0C004900
0C004900
3E668C30
00000460
00000050
ENDCHAR
STARTCHAR uni0427
ENCODING 1063
SWIDTH 650 0
DWIDTH 6 0
BBX 6 7 0 0
BITMAP
8C18D3
4903A0
3A03A0
0898A0
0003A0
0003A0
0008D3
ENDCHAR
STARTCHAR uni0428
ENCODING 1064
SWIDTH 1053 0
DWIDTH 9 0
BBX 10 7 0 0
BITMAP
3E52D72B91
0C00A20840
0C00A20840
0C00A20840
0C00A20840
0C00A20840
4E77C87B91
ENDCHAR
STARTCHAR uni0429
ENCODING 1065
SWIDTH 1044 0
DWIDTH 9 0
BBX 9 9 0 -2
BITMAP
3E53D62C80
0C00B10930
0C00B10930
0C00B10930
0C00B10930
0C00B10930
4E77D77C90
00000000A0
0000000060
ENDCHAR
STARTCHAR uni042A
ENCODING 1066
SWIDTH 723 0
DWIDTH 7 0
BBX 7 7 0 0
BITMAP
B7C80000
50A30000
00A30000
00A88400
00A30D10
00A30C20
02D88800
ENDCHAR
STARTCHAR uni042B
ENCODING 1067
SWIDTH 887 0
DWIDTH 8 0
BBX 8 7 0 0
BITMAP
4E6006E4
0C1001C0
0C0001C0
0C7831C0
0C01D1C0
0C00D1C0
3E7856E3
ENDCHAR
STARTCHAR uni042C
ENCODING 1068
SWIDTH 606 0
DWIDTH 5 0
BBX 6 7 0 0
BITMAP
4E6000
0C1000
0C0000
0C7840
0C01D1
0C00C2
3E7870
ENDCHAR
STARTCHAR uni042D
ENCODING 1069
SWIDTH 667 0
DWIDTH 6 0
BBX 6 7 0 0
BITMAP
7C7960
7200C3
200077
0266A8
000076
3000B1
189A40
ENDCHAR
STARTCHAR uni042E
ENCODING 1070
SWIDTH 1042 0
DWIDTH 9 0
BBX 9 7 0 0
BITMAP
5E70576800
0C02A00670
0C076001C0
0C6B4000D0
0C086001C0
0C03A00570
3E60665700
ENDCHAR
STARTCHAR uni042F
ENCODING 1071
SWIDTH 654 0
DWIDTH 6 0
BBX 6 7 0 0
BITMAP
0777D2
1D02A0
0D12A0
03D8A0
0682A0
0C22A0
8A08D2
ENDCHAR
STARTCHAR uni0430
ENCODING 1072
SWIDTH 480 0
DWIDTH 4 0
BBX 5 5 0 0
BITMAP
379300
425700
168700
834700
6B8B10
ENDCHAR
STARTCHAR uni0431
ENCODING 1073
SWIDTH 520 0
DWIDTH 5 0
BBX 5 8 0 0
BITMAP
000210
04BA00
391000
766900
950930
940750
650830
186700
ENDCHAR
STARTCHAR uni0432
ENCODING 1074
SWIDTH 505 0
DWIDTH 5 0
BBX 5 5 0 0
BITMAP
5C6A00
1A0C00
1C7800
1A0A20
5C6A10
ENDCHAR
STARTCHAR uni0433
ENCODING 1075
SWIDTH 429 0
DWIDTH 4 0
BBX 4 5 0 0
BITMAP
5C69
1A05
1A00
1A00
5C20
ENDCHAR
STARTCHAR uni0434
ENCODING 1076
SWIDTH 530 0
DWIDTH 5 0
BBX 5 7 0 -2
BITMAP
195D20
050C00
060C00
060C00
A65D30
A00280
400040
ENDCHAR
STARTCHAR uni0435
ENCODING 1077
SWIDTH 464 0
DWIDTH 4 0
BBX 4 5 0 0
BITMAP
2785
8768
A100
8603
1CB4
ENDCHAR
STARTCHAR uni0436
ENCODING 1078
SWIDTH 754 0
DWIDTH 7 0
BBX 7 5 0 0
BITMAP
A63D2880
060B1400
048CA100
0B1B3900
883D2B50
ENDCHAR
STARTCHAR uni0437
ENCODING 1079
SWIDTH 435 0
DWIDTH 4 0
BBX 4 5 0 0
BITMAP
75A2
3075
06B1
0058
47A3
ENDCHAR
STARTCHAR uni0438
ENCODING 1080
SWIDTH 609 0
DWIDTH 5 0
BBX 6 5 0 0
BITMAP
5C16B1
1A0880
1A5480
1D3380
5D16B1
ENDCHAR
STARTCHAR uni0439
ENCODING 1081
SWIDTH 609 0
DWIDTH 5 0
BBX 6 7 0 0
BITMAP
0A1920
034500
5C16B1
1A0880
1A5480
1D3380
5D16B1
ENDCHAR
STARTCHAR uni043A
ENCODING 1082
SWIDTH 521 0
DWIDTH 5 0
BBX 5 5 0 0
BITMAP
5C1A70
1A2300
1CB100
1A5800
5C1C40
ENDCHAR
STARTCHAR uni043B
ENCODING 1083
SWIDTH 553 0
DWIDTH 5 0
BBX 5 5 0 0
BITMAP
077C50
042B10
060B10
060B10
C41D40
ENDCHAR
STARTCHAR uni043C
ENCODING 1084
SWIDTH 697 0
DWIDTH 6 0
BBX 6 5 0 0
BITMAP
6E00A9
3B51B5
36A675
34B765
675399
ENDCHAR
STARTCHAR uni043D
ENCODING 1085
SWIDTH 605 0
DWIDTH 5 0
BBX 6 5 0 0
BITMAP
5C17B1
1A0480
1C5880
1A0480
5C17B1
ENDCHAR
STARTCHAR uni043E
ENCODING 1086
SWIDTH 514 0
DWIDTH 5 0
BBX 5 5 0 0
BITMAP
186800
740A20
A20840
840920
196700
ENDCHAR
STARTCHAR uni043F
ENCODING 1087
SWIDTH 591 0
DWIDTH 5 0
BBX 5 5 0 0
BITMAP
5C69A0
1A0560
1A0560
1A0560
5C1990
ENDCHAR
STARTCHAR uni0440
ENCODING 1088
SWIDTH 537 0
DWIDTH 5 0
BBX 5 7 0 -2
BITMAP
6A9C10
2A0760
290570
290650
2D6800
290000
6C2000
ENDCHAR
STARTCHAR uni0441
ENCODING 1089
SWIDTH 446 0
DWIDTH 4 0
BBX 4 5 0 0
BITMAP
1796
8114
A100
8503
2CB4
ENDCHAR
STARTCHAR uni0442
ENCODING 1090
SWIDTH 456 0
DWIDTH 4 0
BBX 4 5 0 0
BITMAP
A9AB
3573
0570
0570
09A1
ENDCHAR
STARTCHAR uni0443
ENCODING 1091
SWIDTH 483 0
DWIDTH 4 0
BBX 5 7 0 -2
BITMAP
B80A20
3A0700
0B3300
06B000
018000
043000
B70000
ENDCHAR
STARTCHAR uni0444
ENCODING 1092
SWIDTH 710 0
DWIDTH 6 0
BBX 6 10 0 -2
BITMAP
004400
003800
003800
2A8C77
74380C
92380C
84380B
298B66
003800
007B10
ENDCHAR
STARTCHAR uni0445
ENCODING 1093
SWIDTH 479 0
DWIDTH 4 0
BBX 5 5 0 0
BITMAP
8C2B10
0B6100
05A000
079400
945D20
ENDCHAR
STARTCHAR uni0446
ENCODING 1094
SWIDTH 590 0
DWIDTH 5 0
BBX 6 7 0 -2
BITMAP
5C1990
1A0650
1A0650
1A0650
3D6A60
000091
000051
ENDCHAR
STARTCHAR uni0447
ENCODING 1095
SWIDTH 535 0
DWIDTH 5 0
BBX 5 5 0 0
BITMAP
982E30
660C00
196C00
000C00
002E30
ENDCHAR
STARTCHAR uni0448
ENCODING 1096
SWIDTH 812 0
DWIDTH 7 0
BBX 7 5 0 0
BITMAP
5C2D48A0
1A0B0560
1A0B0560
1A0B0560
5C5D59A0
ENDCHAR
STARTCHAR uni0449
ENCODING 1097
SWIDTH 814 0
DWIDTH 7 0
BBX 8 7 0 -2
BITMAP
5C2D3990
1A0B0550
1A0B0550
1A0B0550
3C6D6A70
00000081
00000051
ENDCHAR
STARTCHAR uni044A
ENCODING 1098
SWIDTH 568 0
DWIDTH 5 0
BBX 5 5 0 0
BITMAP
B9A000
457000
05A840
0570C0
08A770
ENDCHAR
STARTCHAR uni044B
ENCODING 1099
SWIDTH 728 0
DWIDTH 7 0
BBX 7 5 0 0
BITMAP
5C105C10
1A002A00
1C752A00
1A0C2A00
5C695C10
ENDCHAR
STARTCHAR uni044C
ENCODING 1100
SWIDTH 489 0
DWIDTH 4 0
BBX 5 5 0 0
BITMAP
5C1000
1A0000
1C7600
1A0B20
5C6900
ENDCHAR
STARTCHAR uni044D
ENCODING 1101
SWIDTH 467 0
DWIDTH 4 0
BBX 4 5 0 0
BITMAP
7573
301B
057C
001A
47A3
ENDCHAR
STARTCHAR uni044E
ENCODING 1102
SWIDTH 774 0
DWIDTH 7 0
BBX 7 5 0 0
BITMAP
6D266910
1A1A0480
1C890390
1A1A0470
5C175710
ENDCHAR
STARTCHAR uni044F
ENCODING 1103
SWIDTH 518 0
DWIDTH 5 0
BBX 5 5 0 0
BITMAP
285D20
660B00
098B00
0C1B00
884D20
ENDCHAR
STARTCHAR uni0450
ENCODING 1104
SWIDTH 464 0
DWIDTH 4 0
BBX 4 7 0 0
BITMAP
0510
0360
2785
8768
A100
8603
1CB4
ENDCHAR
STARTCHAR uni0451
ENCODING 1105
SWIDTH 464 0
DWIDTH 4 0
BBX 4 7 0 0
BITMAP
2626
0000
2785
8768
A100
8603
1CB4
ENDCHAR
STARTCHAR uni0452
ENCODING 1106
SWIDTH 563 0
DWIDTH 5 0
BBX 5 10 0 -2
BITMAP
350000
2A0000
6C7100
1B8C10
1B0750
1A0560
1A0560
5C2550
000720
04A600
ENDCHAR
STARTCHAR uni0453
ENCODING 1107
SWIDTH 429 0
DWIDTH 4 0
BBX 4 7 0 0
BITMAP
0060
0540
5C69
1A05
1A00
1A00
5C20
ENDCHAR
STARTCHAR uni0454
ENCODING 1108
SWIDTH 460 0
DWIDTH 4 0
BBX 4 5 0 0
BITMAP
1887
8405
A760
8401
2A95
ENDCHAR
STARTCHAR uni0455
ENCODING 1109
SWIDTH 394 0
DWIDTH 4 0
BBX 4 5 0 0
BITMAP
56A1
9530
2C90
40A4
8691
ENDCHAR
STARTCHAR uni0456
ENCODING 1110
SWIDTH 285 0
DWIDTH 3 0
BBX 3 7 0 0
BITMAP
2A00
0100
5A00
1A00
1A00
1A00
5C10
ENDCHAR
STARTCHAR uni0457
ENCODING 1111
SWIDTH 285 0
DWIDTH 3 0
BBX 4 7 -1 0
BITMAP
2966
0100
05A0
01A0
01A0
01A0
05C1
ENDCHAR
STARTCHAR uni0458
ENCODING 1112
SWIDTH 263 0
DWIDTH 2 0
BBX 3 9 -1 -2
BITMAP
02A0
0010
0590
01A0
01A0
01A0
01A0
1280
A830
ENDCHAR
STARTCHAR uni0459
ENCODING 1113
SWIDTH 742 0
DWIDTH 7 0
BBX 7 5 0 0
BITMAP
077D3000
042B0000
060B6810
060B0760
C42D6A20
ENDCHAR
STARTCHAR uni045A
ENCODING 1114
SWIDTH 790 0
DWIDTH 7 0
BBX 7 5 0 0
BITMAP
5C18A100
1A047000
1C68A740
1A0470D0
5C18A780
ENDCHAR
STARTCHAR uni045B
ENCODING 1115
SWIDTH 579 0
DWIDTH 5 0
BBX 5 7 0 0
BITMAP
5A0000
6C6100
1B8C10
1B0750
1A0650
1A0650
5D2A90
ENDCHAR
STARTCHAR uni045C
ENCODING 1116
SWIDTH 521 0
DWIDTH 5 0
BBX 5 7 0 0
BITMAP
005200
018000
5C1A70
1A2300
1CB100
1A5800
5C1C40
ENDCHAR
STARTCHAR uni045D
ENCODING 1117
SWIDTH 609 0
DWIDTH 5 0
BBX 6 7 0 0
BITMAP
024000
008000
5C16B1
1A0880
1A5480
1D3380
5D16B1
ENDCHAR
STARTCHAR uni045E
ENCODING 1118
SWIDTH 483 0
DWIDTH 4 0
BBX 5 10 0 -2
BITMAP
040400
290B00
044300
B80A20
390600
0C3400
06A000
018000
043000
B80000
ENDCHAR
STARTCHAR uni045F
ENCODING 1119
SWIDTH 587 0
DWIDTH 5 0
BBX 5 7 0 -2
BITMAP
5C1990
1A0650
1A0650
1A0650
5D6A90
008000
00B100
ENDCHAR
STARTCHAR uni0462
ENCODING 1122
SWIDTH 727 0
DWIDTH 7 0
BBX 7 8 0 0
BITMAP
04A50000
87D77700
70C00700
20C00200
00C68400
00C01D10
00C00C10
03E78700
ENDCHAR
STARTCHAR uni0463
ENCODING 1123
SWIDTH 561 0
DWIDTH 5 0
BBX 5 8 0 0
BITMAP
032000
0B5000
065000
A99B00
465300
069840
0651C0
099860
ENDCHAR
STARTCHAR uni046A
ENCODING 1130
SWIDTH 881 0
DWIDTH 8 0
BBX 9 7 -1 0
BITMAP
006D88B300
000C307000
0002C71000
0007BB6000
0068759500
00C1752C00
18A1A90B80
ENDCHAR
STARTCHAR uni046B
ENCODING 1131
SWIDTH 667 0
DWIDTH 6 0
BBX 8 5 -1 0
BITMAP
00C86900
003B5200
003BB300
01C66C10
19688791
ENDCHAR
STARTCHAR uni0472
ENCODING 1138
SWIDTH 737 0
DWIDTH 7 0
BBX 7 7 0 0
BITMAP
05769200
2A002B00
67000D10
8DBBBE20
77000C10
2B001A00
05868100
ENDCHAR
STARTCHAR uni0473
ENCODING 1139
SWIDTH 514 0
DWIDTH 5 0
BBX 5 5 0 0
BITMAP
186800
730920
AA9C40
830820
186600
ENDCHAR
STARTCHAR uni0474
ENCODING 1140
SWIDTH 705 0
DWIDTH 6 0
BBX 7 7 0 0
BITMAP
AD102D60
1E108210
0B609000
05C46000
01EB1000
009B0000
00470000
ENDCHAR
STARTCHAR uni0475
ENCODING 1141
SWIDTH 520 0
DWIDTH 5 0
BBX 6 5 -1 0
BITMAP
1B806B
048060
00C330
009900
003800
ENDCHAR
STARTCHAR uni0490
ENCODING 1168
SWIDTH 525 0
DWIDTH 5 0
BBX 5 9 0 0
BITMAP
000030
000180
3E7740
0C0000
0C0000
0C0000
0C0000
0C1000
3E7000
ENDCHAR
STARTCHAR uni0491
ENCODING 1169
SWIDTH 404 0
DWIDTH 4 0
BBX 4 7 0 0
BITMAP
0002
0017
5C63
1A00
1A00
1A00
5C20
ENDCHAR
STARTCHAR uni1D00
ENCODING 7424
SWIDTH 511 0
DWIDTH 5 0
BBX 6 5 -1 0
BITMAP
002A00
006C10
007860
0476C0
1A11E5
ENDCHAR
STARTCHAR uni1D07
ENCODING 7431
SWIDTH 495 0
DWIDTH 4 0
BBX 5 5 0 0
BITMAP
5C6A00
1A0400
1C7500
1A0110
5C6A00
ENDCHAR
STARTCHAR uni1D1C
ENCODING 7452
SWIDTH 584 0
DWIDTH 5 0
BBX 5 5 0 0
BITMAP
6B13A0
380060
380060
290060
098810
ENDCHAR
STARTCHAR uni1D81
ENCODING 7553
SWIDTH 539 0
DWIDTH 5 0
BBX 5 9 0 -2
BITMAP
002C00
000B00
176E00
730B00
A10B00
940B00
2D8C50
000060
002840
ENDCHAR
STARTCHAR uni1D84
ENCODING 7556
SWIDTH 542 0
DWIDTH 5 0
BBX 5 9 0 -2
BITMAP
590000
1A0000
1A3C30
1A7100
1CA000
1A8700
5C2E60
000060
000A50
ENDCHAR
STARTCHAR uni1D85
ENCODING 7557
SWIDTH 283 0
DWIDTH 3 0
BBX 3 9 0 -2
BITMAP
5900
1A00
1A00
1A00
1A00
1A00
5C20
0150
6720
ENDCHAR
STARTCHAR uni1D8A
ENCODING 7562
SWIDTH 395 0
DWIDTH 4 0
BBX 4 7 0 -2
BITMAP
57A1
9430
2C90
40A4
86A2
0051
0970
ENDCHAR
STARTCHAR uni1D8D
ENCODING 7565
SWIDTH 479 0
DWIDTH 4 0
BBX 5 7 0 -2
BITMAP
8C2B10
0B6100
05A000
079400
945D20
000150
006720
ENDCHAR
STARTCHAR uni1D8E
ENCODING 7566
SWIDTH 458 0
DWIDTH 4 0
BBX 4 7 0 -2
BITMAP
87A9
30B2
0670
1C14
8A6A
0006
0194
ENDCHAR
STARTCHAR uni1D98
ENCODING 7576
SWIDTH 368 0
DWIDTH 3 0
BBX 5 9 0 -2
BITMAP
007A30
028000
038000
038000
038000
038000
C84000
600000
6A0000
ENDCHAR
STARTCHAR uni1D9B
ENCODING 7579
SWIDTH 462 0
DWIDTH 4 0
BBX 4 4 0 2
BITMAP
8996
540A
5409
5863
ENDCHAR
STARTCHAR uni1DA3
ENCODING 7587
SWIDTH 488 0
DWIDTH 4 0
BBX 5 5 0 1
BITMAP
793C10
460900
460900
1B6900
000B00
ENDCHAR
STARTCHAR uni1E00
ENCODING 7680
SWIDTH 718 0
DWIDTH 6 0
BBX 7 10 0 -3
BITMAP
00380000
007C0000
00794000
0434A000
0866E100
17009600
98009D20
00550000
00660000
00550000
ENDCHAR
STARTCHAR uni1E01
ENCODING 7681
SWIDTH 480 0
DWIDTH 4 0
BBX 5 8 0 -3
BITMAP
379300
425700
168700
834700
6B8B10
055000
066000
056000
ENDCHAR
STARTCHAR uni1E02
ENCODING 7682
SWIDTH 618 0
DWIDTH 6 0
BBX 6 8 0 0
BITMAP
00B100
3E7960
0C00D0
0C01A0
0C6B40
0C01D1
0C00B3
4E5680
ENDCHAR
STARTCHAR uni1E03
ENCODING 7683
SWIDTH 522 0
DWIDTH 5 0
BBX 5 8 0 0
BITMAP
02A000
771000
470000
49AB00
480940
470750
470930
3A6700
ENDCHAR
STARTCHAR uni1E04
ENCODING 7684
SWIDTH 618 0
DWIDTH 6 0
BBX 6 9 0 -2
BITMAP
3E6960
0C00D0
0C01A0
0C6B40
0C01D1
0C00B3
4E5680
000000
007100
ENDCHAR
STARTCHAR uni1E05
ENCODING 7685
SWIDTH 522 0
DWIDTH 5 0
BBX 5 9 0 -2
BITMAP
770000
470000
49AB00
480940
470750
470930
3A6700
000000
017000
ENDCHAR
STARTCHAR uni1E06
ENCODING 7686
SWIDTH 618 0
DWIDTH 6 0
BBX 6 9 0 -2
BITMAP
3E6960
0C00D0
0C01A0
0C6B40
0C01D1
0C00B3
4E5680
000000
058800
ENDCHAR
STARTCHAR uni1E07
ENCODING 7687
SWIDTH 522 0
DWIDTH 5 0
BBX 5 9 0 -2
BITMAP
770000
470000
49AB00
480940
470750
470930
3A6700
000000
088500
ENDCHAR
STARTCHAR uni1E08
ENCODING 7688
SWIDTH 670 0
DWIDTH 6 0
BBX 6 11 0 -2
BITMAP
000520
003700
0487C7
2B0027
670002
860000
780000
2D1003
05CA81
002700
003700
ENDCHAR
STARTCHAR uni1E09
ENCODING 7689
SWIDTH 446 0
DWIDTH 4 0
BBX 4 9 0 -2
BITMAP
0061
0270
1796
8215
A100
9403
2CB4
0180
0390
ENDCHAR
STARTCHAR uni1E0A
ENCODING 7690
SWIDTH 730 0
DWIDTH 7 0
BBX 7 8 0 0
BITMAP
00570000
3E789100
0C005A00
0C000E10
0C000D20
0C000D00
0C003A00
3E678100
ENDCHAR
STARTCHAR uni1E0B
ENCODING 7691
SWIDTH 539 0
DWIDTH 5 0
BBX 5 8 0 0
BITMAP
00B000
003C00
000B00
187E00
730C00
A20B00
940B00
2D8C40
ENDCHAR
STARTCHAR uni1E0C
ENCODING 7692
SWIDTH 730 0
DWIDTH 7 0
BBX 7 9 0 -2
BITMAP
3E779100
0C005A00
0C000E10
0C000D20
0C000D00
0C003A00
3E678100
00000000
00530000
ENDCHAR
STARTCHAR uni1E0D
ENCODING 7693
SWIDTH 539 0
DWIDTH 5 0
BBX 5 9 0 -2
BITMAP
002C00
000B00
187E00
730C00
A20B00
940B00
2D8C40
000000
008000
ENDCHAR
STARTCHAR uni1E0E
ENCODING 7694
SWIDTH 730 0
DWIDTH 7 0
BBX 7 9 0 -2
BITMAP
3E779100
0C005A00
0C000E10
0C000D20
0C000D00
0C003A00
3E678100
00000000
03882000
ENDCHAR
STARTCHAR uni1E0F
ENCODING 7695
SWIDTH 539 0
DWIDTH 5 0
BBX 5 9 0 -2
BITMAP
002C00
000B00
187E00
730C00
A20B00
940B00
2D8C40
000000
078600
ENDCHAR
STARTCHAR uni1E10
ENCODING 7696
SWIDTH 730 0
DWIDTH 7 0
BBX 7 10 0 -3
BITMAP
3E779100
0C005A00
0C000E10
0C000D20
0C000D00
0C003A00
3E678100
00000000
00650000
00340000
ENDCHAR
STARTCHAR uni1E11
ENCODING 7697
SWIDTH 539 0
DWIDTH 5 0
BBX 5 10 0 -3
BITMAP
002C00
000B00
187E00
730C00
A20B00
940B00
2D8C40
000000
01A000
007000
ENDCHAR
STARTCHAR uni1E12
ENCODING 7698
SWIDTH 730 0
DWIDTH 7 0
BBX 7 9 0 -2
BITMAP
3E779100
0C005A00
0C000E10
0C000D20
0C000D00
0C003A00
3E678100
00430000
02670000
ENDCHAR
STARTCHAR uni1E13
ENCODING 7699
SWIDTH 539 0
DWIDTH 5 0
BBX 5 9 0 -2
BITMAP
002C00
000B00
187E00
730C00
A20B00
940B00
2D8C40
006000
065500
ENDCHAR
STARTCHAR uni1E14
ENCODING 7700
SWIDTH 626 0
DWIDTH 6 0
BBX 6 10 0 0
BITMAP
007000
004600
048820
3E77C1
0C0031
0C0050
0C7960
0C0020
0C0024
3E77C3
ENDCHAR
STARTCHAR uni1E15
ENCODING 7701
SWIDTH 464 0
DWIDTH 4 0
BBX 4 8 0 0
BITMAP
0510
1BE4
0000
2785
8768
A100
8603
1CB4
ENDCHAR
STARTCHAR uni1E16
ENCODING 7702
SWIDTH 626 0
DWIDTH 6 0
BBX 6 10 0 0
BITMAP
001600
008200
048820
3E77C1
0C0031
0C0050
0C7960
0C0020
0C0024
3E77C3
ENDCHAR
STARTCHAR uni1E17
ENCODING 7703
SWIDTH 464 0
DWIDTH 4 0
BBX 4 8 0 0
BITMAP
0061
1AF4
0000
2785
8768
A100
8603
1CB4
ENDCHAR
STARTCHAR uni1E18
ENCODING 7704
SWIDTH 626 0
DWIDTH 6 0
BBX 6 9 0 -2
BITMAP
3E77C1
0C0031
0C0050
0C7960
0C0020
0C0024
3E77C3
004300
026700
ENDCHAR
STARTCHAR uni1E19
ENCODING 7705
SWIDTH 464 0
DWIDTH 4 0
BBX 4 7 0 -2
BITMAP
2785
8768
A100
8603
1CB4
0250
0762
ENDCHAR
STARTCHAR uni1E1A
ENCODING 7706
SWIDTH 626 0
DWIDTH 6 0
BBX 6 9 0 -2
BITMAP
3E77C1
0C0031
0C0050
0C7960
0C0020
0C0024
3E77C3
000000
039810
ENDCHAR
STARTCHAR uni1E1B
ENCODING 7707
SWIDTH 464 0
DWIDTH 4 0
BBX 4 7 0 -2
BITMAP
2785
8768
A100
8603
1CB4
0000
1893
ENDCHAR
STARTCHAR uni1E1C
ENCODING 7708
SWIDTH 626 0
DWIDTH 6 0
BBX 6 11 0 -2
BITMAP
030210
01A900
3E77C1
0C0031
0C0050
0C7960
0C0020
0C0024
3E87C3
004500
005500
ENDCHAR
STARTCHAR uni1E1D
ENCODING 7709
SWIDTH 464 0
DWIDTH 4 0
BBX 4 9 0 -2
BITMAP
1203
09B2
2785
8768
A100
8603
1CB4
0270
0370
ENDCHAR
STARTCHAR uni1E1E
ENCODING 7710
SWIDTH 588 0
DWIDTH 5 0
BBX 6 8 0 0
BITMAP
007500
4E87B2
0C0022
0C0050
0C7950
0C0020
0C0000
3E6000
ENDCHAR
STARTCHAR uni1E1F
ENCODING 7711
SWIDTH 307 0
DWIDTH 3 0
BBX 4 8 0 0
BITMAP
1B00
0894
1A00
6C50
1A00
1A00
1A00
6D30
ENDCHAR
STARTCHAR uni1E20
ENCODING 7712
SWIDTH 720 0
DWIDTH 6 0
BBX 7 8 0 0
BITMAP
00886000
0487C700
2B001700
67000200
86008910
68004800
2C004800
05979400
ENDCHAR
STARTCHAR uni1E21
ENCODING 7713
SWIDTH 484 0
DWIDTH 4 0
BBX 5 9 0 -2
BITMAP
188400
000000
289B20
752A00
497200
430000
6DB900
700720
8A8600
ENDCHAR
STARTCHAR uni1E22
ENCODING 7714
SWIDTH 777 0
DWIDTH 7 0
BBX 7 8 0 0
BITMAP
000C0000
4E616E40
0C100C00
0C000C00
0C766C00
0C000C00
0C100C00
3E606E30
ENDCHAR
STARTCHAR uni1E23
ENCODING 7715
SWIDTH 577 0
DWIDTH 5 0
BBX 5 8 0 0
BITMAP
00B100
591000
1A0000
1B8C10
1A0750
1A0650
1A0650
5C2A90
ENDCHAR
STARTCHAR uni1E24
ENCODING 7716
SWIDTH 777 0
DWIDTH 7 0
BBX 7 9 0 -2
BITMAP
4E606E40
0C100C00
0C000C00
0C766C00
0C000C00
0C100C00
3E606E30
00000000
00080000
ENDCHAR
STARTCHAR uni1E25
ENCODING 7717
SWIDTH 577 0
DWIDTH 5 0
BBX 5 9 0 -2
BITMAP
590000
1A0000
1B8C10
1A0750
1A0650
1A0650
5C2A90
000000
008100
ENDCHAR
STARTCHAR uni1E26
ENCODING 7718
SWIDTH 777 0
DWIDTH 7 0
BBX 7 8 0 0
BITMAP
00C0C000
4E707E40
0C100C00
0C000C00
0C766C00
0C000C00
0C100C00
3E606E30
ENDCHAR
STARTCHAR uni1E27
ENCODING 7719
SWIDTH 577 0
DWIDTH 5 0
BBX 5 8 0 0
BITMAP
0B1B10
5A0100
1A0000
1B8C10
1A0750
1A0650
1A0650
5C2A90
ENDCHAR
STARTCHAR uni1E28
ENCODING 7720
SWIDTH 777 0
DWIDTH 7 0
BBX 7 9 0 -2
BITMAP
4E606E40
0C100C00
0C000C00
0C766C00
0C000C00
0C100C00
3F606E30
06300000
16300000
ENDCHAR
STARTCHAR uni1E29
ENCODING 7721
SWIDTH 577 0
DWIDTH 5 0
BBX 5 9 0 -2
BITMAP
590000
1A0000
1B8C10
1A0750
1A0650
1A0650
5D2A90
180000
370000
ENDCHAR
STARTCHAR uni1E2A
ENCODING 7722
SWIDTH 777 0
DWIDTH 7 0
BBX 7 9 0 -2
BITMAP
4E606E40
0C100C00
0C000C00
0C766C00
0C000C00
0C100C00
3E606E30
00304000
006B5000
ENDCHAR
STARTCHAR uni1E2B
ENCODING 7723
SWIDTH 577 0
DWIDTH 5 0
BBX 5 9 0 -2
BITMAP
590000
1A0000
1B8C10
1A0750
1A0650
1A0650
5C2A90
030400
04B700
ENDCHAR
STARTCHAR uni1E2C
ENCODING 7724
SWIDTH 357 0
DWIDTH 3 0
BBX 3 9 0 -2
BITMAP
4E60
0C00
0C00
0C00
0C00
0C00
4E60
0000
5970
ENDCHAR
STARTCHAR uni1E2D
ENCODING 7725
SWIDTH 285 0
DWIDTH 3 0
BBX 3 9 0 -2
BITMAP
2A00
0100
5A00
1A00
1A00
1A00
5C10
0000
8940
ENDCHAR
STARTCHAR uni1E2E
ENCODING 7726
SWIDTH 357 0
DWIDTH 3 0
BBX 4 10 0 0
BITMAP
0340
1910
B1B1
4E70
0C00
0C00
0C00
0C00
0C00
4E60
ENDCHAR
STARTCHAR uni1E2F
ENCODING 7727
SWIDTH 285 0
DWIDTH 3 0
BBX 4 8 -1 0
BITMAP
0060
2CC6
0100
05A0
01A0
01A0
01A0
05C1
ENDCHAR
STARTCHAR uni1E30
ENCODING 7728
SWIDTH 702 0
DWIDTH 6 0
BBX 7 9 0 0
BITMAP
00071000
00550000
4E62E600
0C054000
0C350000
0CC10000
0C4C1000
0C06A000
4E62EA10
ENDCHAR
STARTCHAR uni1E31
ENCODING 7729
SWIDTH 542 0
DWIDTH 5 0
BBX 5 9 0 0
BITMAP
005300
028000
590000
1A0000
1A3C30
1A7100
1CA000
1A8700
5C2E60
ENDCHAR
STARTCHAR uni1E32
ENCODING 7730
SWIDTH 702 0
DWIDTH 6 0
BBX 7 9 0 -2
BITMAP
4E62E600
0C054000
0C350000
0CC10000
0C4C1000
0C06A000
4E62EA10
00000000
00260000
ENDCHAR
STARTCHAR uni1E33
ENCODING 7731
SWIDTH 542 0
DWIDTH 5 0
BBX 5 9 0 -2
BITMAP
590000
1A0000
1A3C30
1A7100
1CA000
1A8700
5C2E60
000000
008000
ENDCHAR
STARTCHAR uni1E34
ENCODING 7732
SWIDTH 702 0
DWIDTH 6 0
BBX 7 9 0 -2
BITMAP
4E62E600
0C054000
0C350000
0CC10000
0C4C1000
0C06A000
4E62EA10
00000000
01884000
ENDCHAR
STARTCHAR uni1E35
ENCODING 7733
SWIDTH 542 0
DWIDTH 5 0
BBX 5 9 0 -2
BITMAP
590000
1A0000
1A3C30
1A7100
1CA000
1A8700
5C2E60
000000
078600
ENDCHAR
STARTCHAR uni1E36
ENCODING 7734
SWIDTH 585 0
DWIDTH 5 0
BBX 6 9 0 -2
BITMAP
3E6000
0C1000
0C0000
0C0000
0C0000
0C0051
3E87C0
000000
008000
ENDCHAR
STARTCHAR uni1E37
ENCODING 7735
SWIDTH 283 0
DWIDTH 3 0
BBX 3 9 0 -2
BITMAP
5900
1A00
1A00
1A00
1A00
1A00
5C20
0000
1700
ENDCHAR
STARTCHAR uni1E38
ENCODING 7736
SWIDTH 585 0
DWIDTH 5 0
BBX 6 10 0 -2
BITMAP
688000
3E6000
0C1000
0C0000
0C0000
0C0000
0C0051
3E87C0
000000
008000
ENDCHAR
STARTCHAR uni1E39
ENCODING 7737
SWIDTH 283 0
DWIDTH 3 0
BBX 3 10 0 -2
BITMAP
8850
5900
1A00
1A00
1A00
1A00
1A00
5C20
0000
1700
ENDCHAR
STARTCHAR uni1E3A
ENCODING 7738
SWIDTH 585 0
DWIDTH 5 0
BBX 6 9 0 -2
BITMAP
3E6000
0C1000
0C0000
0C0000
0C0000
0C0051
3E87C0
000000
068800
ENDCHAR
STARTCHAR uni1E3B
ENCODING 7739
SWIDTH 283 0
DWIDTH 3 0
BBX 3 9 0 -2
BITMAP
5900
1A00
1A00
1A00
1A00
1A00
5C20
0000
8850
ENDCHAR
STARTCHAR uni1E3C
ENCODING 7740
SWIDTH 585 0
DWIDTH 5 0
BBX 6 9 0 -2
BITMAP
3E6000
0C1000
0C0000
0C0000
0C0000
0C0051
3E87C0
006100
045600
ENDCHAR
STARTCHAR uni1E3D
ENCODING 7741
SWIDTH 283 0
DWIDTH 3 0
BBX 3 9 0 -2
BITMAP
5900
1A00
1A00
1A00
1A00
1A00
5C20
1500
7530
ENDCHAR
STARTCHAR uni1E3E
ENCODING 7742
SWIDTH 895 0
DWIDTH 8 0
BBX 8 9 0 0
BITMAP
00016000
00082000
4F4004E4
0BA007C0
07D107C0
079543C0
073A70C0
070C60C0
4C2724E4
ENDCHAR
STARTCHAR uni1E3F
ENCODING 7743
SWIDTH 852 0
DWIDTH 8 0
BBX 8 7 0 0
BITMAP
00016000
00053000
5B7B6A70
1B0840B0
1A0740B0
1A0740B0
5C2B83E2
ENDCHAR
STARTCHAR uni1E40
ENCODING 7744
SWIDTH 895 0
DWIDTH 8 0
BBX 8 8 0 0
BITMAP
00075000
4F4104E4
0BA007C0
07D107C0
079543C0
073A70C0
070C60C0
4C2724E4
ENDCHAR
STARTCHAR uni1E41
ENCODING 7745
SWIDTH 852 0
DWIDTH 8 0
BBX 8 7 0 0
BITMAP
00053000
00000000
5B7B6A70
1B0840B0
1A0740B0
1A0740B0
5C2B83E2
ENDCHAR
STARTCHAR uni1E42
ENCODING 7746
SWIDTH 895 0
DWIDTH 8 0
BBX 8 9 0 -2
BITMAP
4F4004E4
0BA007C0
07D107C0
079543C0
073A70C0
070C60C0
4C2724E4
00000000
00062000
ENDCHAR
STARTCHAR uni1E43
ENCODING 7747
SWIDTH 852 0
DWIDTH 8 0
BBX 8 7 0 -2
BITMAP
5B7B6A70
1B0840B0
1A0740B0
1A0740B0
5C2B83E2
00000000
00053000
ENDCHAR
STARTCHAR uni1E44
ENCODING 7748
SWIDTH 742 0
DWIDTH 7 0
BBX 7 8 0 0
BITMAP
001B0000
5E214C20
0BB00700
07A60700
071D2700
0705A700
0700A900
4C201800
ENDCHAR
STARTCHAR uni1E45
ENCODING 7749
SWIDTH 576 0
DWIDTH 5 0
BBX 5 7 0 0
BITMAP
007100
000000
6B8C10
1B0740
1A0650
1A0650
5C2A90
ENDCHAR
STARTCHAR uni1E46
ENCODING 7750
SWIDTH 742 0
DWIDTH 7 0
BBX 7 9 0 -2
BITMAP
5E204C20
0BB00700
07A60700
071D2700
0705A700
0700A900
4C201800
00000000
00260000
ENDCHAR
STARTCHAR uni1E47
ENCODING 7751
SWIDTH 576 0
DWIDTH 5 0
BBX 5 7 0 -2
BITMAP
6B8C10
1B0740
1A0650
1A0650
5C2A90
000000
008000
ENDCHAR
STARTCHAR uni1E48
ENCODING 7752
SWIDTH 742 0
DWIDTH 7 0
BBX 7 9 0 -2
BITMAP
5E204C20
0BB00700
07A60700
071D2700
0705A700
0700A900
4C201800
00000000
01884000
ENDCHAR
STARTCHAR uni1E49
ENCODING 7753
SWIDTH 576 0
DWIDTH 5 0
BBX 5 7 0 -2
BITMAP
6B8C10
1B0740
1A0650
1A0650
5C2A90
000000
068800
ENDCHAR
STARTCHAR uni1E4A
ENCODING 7754
SWIDTH 742 0
DWIDTH 7 0
BBX 7 9 0 -2
BITMAP
5E204C20
0BB00700
07A60700
071D2700
0705A700
0700A900
4C201800
00250000
00753000
ENDCHAR
STARTCHAR uni1E4B
ENCODING 7755
SWIDTH 576 0
DWIDTH 5 0
BBX 5 7 0 -2
BITMAP
6B8C10
1B0740
1A0650
1A0650
5C2A90
006100
045600
ENDCHAR
STARTCHAR uni1E4C
ENCODING 7756
SWIDTH 738 0
DWIDTH 7 0
BBX 7 10 0 0
BITMAP
00062000
00370000
00795000
04869200
2C002B00
68000D10
86000C20
78000D10
2C002B00
05868100
ENDCHAR
STARTCHAR uni1E4D
ENCODING 7757
SWIDTH 514 0
DWIDTH 5 0
BBX 5 8 0 0
BITMAP
005200
008000
079500
186800
740A20
A20840
840920
196700
ENDCHAR
STARTCHAR uni1E4E
ENCODING 7758
SWIDTH 738 0
DWIDTH 7 0
BBX 7 9 0 0
BITMAP
01A1A000
00896000
04869200
2C002B00
68000D10
86000C20
78000D10
2C002B00
05868100
ENDCHAR
STARTCHAR uni1E4F
ENCODING 7759
SWIDTH 514 0
DWIDTH 5 0
BBX 5 8 0 0
BITMAP
181700
000000
079500
186800
740A20
A20840
840920
196700
ENDCHAR
STARTCHAR uni1E50
ENCODING 7760
SWIDTH 738 0
DWIDTH 7 0
BBX 7 10 0 0
BITMAP
00430000
00190000
00885000
04869200
2C002B00
68000D10
86000C20
78000D10
2C002B00
05868100
ENDCHAR
STARTCHAR uni1E51
ENCODING 7761
SWIDTH 514 0
DWIDTH 5 0
BBX 5 8 0 0
BITMAP
042000
09F500
000000
186800
740A20
A20840
840920
196700
ENDCHAR
STARTCHAR uni1E52
ENCODING 7762
SWIDTH 738 0
DWIDTH 7 0
BBX 7 10 0 0
BITMAP
00062000
00370000
00885000
04869200
2C002B00
68000D10
86000C20
78000D10
2C002B00
05868100
ENDCHAR
STARTCHAR uni1E53
ENCODING 7763
SWIDTH 514 0
DWIDTH 5 0
BBX 5 8 0 0
BITMAP
005200
08F500
000000
186800
740A20
A20840
840920
196700
ENDCHAR
STARTCHAR uni1E54
ENCODING 7764
SWIDTH 569 0
DWIDTH 5 0
BBX 5 9 0 0
BITMAP
003400
019100
3E7950
0C01C0
0C02A0
0C6710
0C0000
0C1000
3E6000
ENDCHAR
STARTCHAR uni1E55
ENCODING 7765
SWIDTH 537 0
DWIDTH 5 0
BBX 5 9 0 -2
BITMAP
004200
008000
6A9C10
2A0760
290570
290650
2D6800
290000
6C2000
ENDCHAR
STARTCHAR uni1E56
ENCODING 7766
SWIDTH 569 0
DWIDTH 5 0
BBX 5 8 0 0
BITMAP
00B100
3E8950
0C01C0
0C02A0
0C6710
0C0000
0C1000
3E6000
ENDCHAR
STARTCHAR uni1E57
ENCODING 7767
SWIDTH 537 0
DWIDTH 5 0
BBX 5 9 0 -2
BITMAP
008000
000000
6A9C10
2A0760
290570
290650
2D6800
290000
6C2000
ENDCHAR
STARTCHAR uni1E58
ENCODING 7768
SWIDTH 659 0
DWIDTH 6 0
BBX 6 8 0 0
BITMAP
009300
3E7950
0C01D0
0C03A0
0C8A10
0C1C20
0C15A0
3E60C7
ENDCHAR
STARTCHAR uni1E59
ENCODING 7769
SWIDTH 380 0
DWIDTH 3 0
BBX 4 7 0 0
BITMAP
0710
0000
5AB4
1C00
1A00
1A00
5D20
ENDCHAR
STARTCHAR uni1E5A
ENCODING 7770
SWIDTH 659 0
DWIDTH 6 0
BBX 6 9 0 -2
BITMAP
3E6850
0C01D0
0C03A0
0C8A10
0C1C20
0C15A0
3E60C7
000000
004400
ENDCHAR
STARTCHAR uni1E5B
ENCODING 7771
SWIDTH 380 0
DWIDTH 3 0
BBX 4 7 0 -2
BITMAP
5AB4
1C00
1A00
1A00
5D20
0000
0800
ENDCHAR
STARTCHAR uni1E5C
ENCODING 7772
SWIDTH 659 0
DWIDTH 6 0
BBX 6 10 0 -2
BITMAP
048810
3E6850
0C01D0
0C03A0
0C8A10
0C1C20
0C15A0
3E60C7
000000
004400
ENDCHAR
STARTCHAR uni1E5D
ENCODING 7773
SWIDTH 380 0
DWIDTH 3 0
BBX 4 9 0 -2
BITMAP
5880
0000
5AB4
1C00
1A00
1A00
5D20
0000
0800
ENDCHAR
STARTCHAR uni1E5E
ENCODING 7774
SWIDTH 659 0
DWIDTH 6 0
BBX 6 9 0 -2
BITMAP
3E6850
0C01D0
0C03A0
0C8A10
0C1C20
0C15A0
3E60C7
000000
038820
ENDCHAR
STARTCHAR uni1E5F
ENCODING 7775
SWIDTH 380 0
DWIDTH 3 0
BBX 4 7 0 -2
BITMAP
5AB4
1C00
1A00
1A00
5D20
0000
8860
ENDCHAR
STARTCHAR uni1E60
ENCODING 7776
SWIDTH 504 0
DWIDTH 5 0
BBX 5 8 0 0
BITMAP
02A000
288D00
740600
5C2000
07E500
103E10
700A20
9A7800
ENDCHAR
STARTCHAR uni1E61
ENCODING 7777
SWIDTH 394 0
DWIDTH 4 0
BBX 4 7 0 0
BITMAP
0620
0000
56A1
9530
2C90
40A4
8691
ENDCHAR
STARTCHAR uni1E62
ENCODING 7778
SWIDTH 504 0
DWIDTH 5 0
BBX 5 9 0 -2
BITMAP
287D00
740600
5C2000
07E500
103E10
700A20
9A7800
000000
026000
ENDCHAR
STARTCHAR uni1E63
ENCODING 7779
SWIDTH 394 0
DWIDTH 4 0
BBX 4 7 0 -2
BITMAP
56A1
9530
2C90
40A4
8691
0000
0710
ENDCHAR
STARTCHAR uni1E64
ENCODING 7780
SWIDTH 504 0
DWIDTH 5 0
BBX 5 9 0 0
BITMAP
013500
099100
287D00
740600
5C2000
07E500
103E10
700A20
9A7800
ENDCHAR
STARTCHAR uni1E65
ENCODING 7781
SWIDTH 394 0
DWIDTH 4 0
BBX 4 8 0 0
BITMAP
1500
0160
0540
56A1
9530
2C90
40A4
8691
ENDCHAR
STARTCHAR uni1E66
ENCODING 7782
SWIDTH 504 0
DWIDTH 5 0
BBX 5 10 0 0
BITMAP
004000
046300
05B100
287D00
740600
5C2000
07E500
103E10
700A20
9A7800
ENDCHAR
STARTCHAR uni1E67
ENCODING 7783
SWIDTH 394 0
DWIDTH 4 0
BBX 4 8 0 0
BITMAP
0510
2230
0A60
56A1
9530
2C90
40A4
8691
ENDCHAR
STARTCHAR uni1E68
ENCODING 7784
SWIDTH 504 0
DWIDTH 5 0
BBX 5 10 0 -2
BITMAP
02A000
288D00
740600
5C2000
07E500
103E10
700A20
9A7800
000000
026000
ENDCHAR
STARTCHAR uni1E69
ENCODING 7785
SWIDTH 394 0
DWIDTH 4 0
BBX 4 9 0 -2
BITMAP
0620
0000
56A1
9530
2C90
40A4
8691
0000
0710
ENDCHAR
STARTCHAR uni1E6A
ENCODING 7786
SWIDTH 603 0
DWIDTH 5 0
BBX 6 8 0 0
BITMAP
00A200
B7E8B4
50B214
00B200
00B200
00B200
00B200
03D700
ENDCHAR
STARTCHAR uni1E6B
ENCODING 7787
SWIDTH 315 0
DWIDTH 3 0
BBX 3 8 0 0
BITMAP
0800
0200
2800
6B40
3900
3900
3900
1C50
ENDCHAR
STARTCHAR uni1E6C
ENCODING 7788
SWIDTH 603 0
DWIDTH 5 0
BBX 6 9 0 -2
BITMAP
B7D8B4
50B214
00B200
00B200
00B200
00B200
03D700
000000
007100
ENDCHAR
STARTCHAR uni1E6D
ENCODING 7789
SWIDTH 315 0
DWIDTH 3 0
BBX 3 9 0 -2
BITMAP
0200
2800
6B40
3900
3900
3900
1C50
0000
0710
ENDCHAR
STARTCHAR uni1E6E
ENCODING 7790
SWIDTH 603 0
DWIDTH 5 0
BBX 6 9 0 -2
BITMAP
B7D8B4
50B214
00B200
00B200
00B200
00B200
03D700
000000
058800
ENDCHAR
STARTCHAR uni1E6F
ENCODING 7791
SWIDTH 315 0
DWIDTH 3 0
BBX 3 9 0 -2
BITMAP
0200
2800
6B40
3900
3900
3900
1C50
0000
5880
ENDCHAR
STARTCHAR uni1E70
ENCODING 7792
SWIDTH 603 0
DWIDTH 5 0
BBX 6 9 0 -2
BITMAP
B7D8B4
50B214
00B200
00B200
00B200
00B200
03D700
006100
035700
ENDCHAR
STARTCHAR uni1E71
ENCODING 7793
SWIDTH 315 0
DWIDTH 3 0
BBX 3 9 0 -2
BITMAP
0200
2800
6B40
3900
3900
3900
1C50
0610
4570
ENDCHAR
STARTCHAR uni1E72
ENCODING 7794
SWIDTH 752 0
DWIDTH 7 0
BBX 7 9 0 -2
BITMAP
5F403D30
0D000800
0C000800
0C000800
0C000700
0B201700
03B99100
00000000
00808000
ENDCHAR
STARTCHAR uni1E73
ENCODING 7795
SWIDTH 570 0
DWIDTH 5 0
BBX 5 7 0 -2
BITMAP
781B30
380840
380840
290840
0B8A70
000000
080800
ENDCHAR
STARTCHAR uni1E74
ENCODING 7796
SWIDTH 752 0
DWIDTH 7 0
BBX 7 9 0 -2
BITMAP
5F403D30
0D000800
0C000800
0C000800
0C000700
0B201700
03B99100
00000000
00795000
ENDCHAR
STARTCHAR uni1E75
ENCODING 7797
SWIDTH 570 0
DWIDTH 5 0
BBX 5 7 0 -2
BITMAP
781B30
380840
380840
290840
0B8A70
000000
079500
ENDCHAR
STARTCHAR uni1E76
ENCODING 7798
SWIDTH 752 0
DWIDTH 7 0
BBX 7 9 0 -2
BITMAP
5F403D30
0D000800
0C000800
0C000800
0C000700
0B201700
03B99100
00060000
00655000
ENDCHAR
STARTCHAR uni1E77
ENCODING 7799
SWIDTH 570 0
DWIDTH 5 0
BBX 5 7 0 -2
BITMAP
781B30
380840
380840
290840
0B8A70
007000
065500
ENDCHAR
STARTCHAR uni1E78
ENCODING 7800
SWIDTH 752 0
DWIDTH 7 0
BBX 7 10 0 0
BITMAP
00044000
00190000
00598000
5F403D30
0D000800
0C000800
0C000800
0C000700
0B201700
03B99100
ENDCHAR
STARTCHAR uni1E79
ENCODING 7801
SWIDTH 570 0
DWIDTH 5 0
BBX 5 8 0 0
BITMAP
004300
008000
069600
781B30
380840
380840
290840
0B8A70
ENDCHAR
STARTCHAR uni1E7A
ENCODING 7802
SWIDTH 752 0
DWIDTH 7 0
BBX 7 9 0 0
BITMAP
00B0B000
00788000
5F403D30
0D000800
0C000800
0C000800
0C000700
0B201700
03B99100
ENDCHAR
STARTCHAR uni1E7B
ENCODING 7803
SWIDTH 570 0
DWIDTH 5 0
BBX 5 8 0 0
BITMAP
080800
078600
000000
781B30
380840
380840
290840
0B8A70
ENDCHAR
STARTCHAR uni1E7C
ENCODING 7804
SWIDTH 680 0
DWIDTH 6 0
BBX 7 8 0 0
BITMAP
01993000
AD205B10
1D005300
0B407000
05917000
01D52000
009A0000
00470000
ENDCHAR
STARTCHAR uni1E7D
ENCODING 7805
SWIDTH 481 0
DWIDTH 4 0
BBX 5 6 0 0
BITMAP
089400
B70A30
490700
0C2400
089000
039000
ENDCHAR
STARTCHAR uni1E7E
ENCODING 7806
SWIDTH 680 0
DWIDTH 6 0
BBX 7 9 0 -2
BITMAP
AD205B10
1D005300
0B407000
05917000
01D52000
009A0000
00470000
00000000
00350000
ENDCHAR
STARTCHAR uni1E7F
ENCODING 7807
SWIDTH 481 0
DWIDTH 4 0
BBX 5 7 0 -2
BITMAP
B70A30
490700
0C2400
089000
039000
000000
026000
ENDCHAR
STARTCHAR Wgrave
ENCODING 7808
SWIDTH 944 0
DWIDTH 9 0
BBX 9 9 0 0
BITMAP
0006200000
0002800000
AC19C12C30
1D01C00700
0B30E22400
0684876000
01D71C7000
00B70B6000
0062062000
ENDCHAR
STARTCHAR wgrave
ENCODING 7809
SWIDTH 749 0
DWIDTH 7 0
BBX 8 7 -1 0
BITMAP
00042000
00017000
1B73D168
0490C161
00C29660
00891B50
00380B10
ENDCHAR
STARTCHAR Wacute
ENCODING 7810
SWIDTH 944 0
DWIDTH 9 0
BBX 9 9 0 0
BITMAP
0000700000
0006400000
AC19C12C30
1D01C00700
0B30E22400
0684876000
01D71C7000
00B70B6000
0062062000
ENDCHAR
STARTCHAR wacute
ENCODING 7811
SWIDTH 749 0
DWIDTH 7 0
BBX 8 7 -1 0
BITMAP
00004200
00008000
1B73D168
0490C161
00C29660
00891B50
00380B10
ENDCHAR
STARTCHAR Wdieresis
ENCODING 7812
SWIDTH 944 0
DWIDTH 9 0
BBX 9 8 0 0
BITMAP
0048480000
AC1AC22C30
1D01C00700
0B30E22400
0684876000
01D71C7000
00B70B6000
0062062000
ENDCHAR
STARTCHAR wdieresis
ENCODING 7813
SWIDTH 749 0
DWIDTH 7 0
BBX 8 7 -1 0
BITMAP
00081700
00000000
1B73D168
0490C161
00C29660
00891B50
00380B10
ENDCHAR
STARTCHAR uni1E86
ENCODING 7814
SWIDTH 944 0
DWIDTH 9 0
BBX 9 8 0 0
BITMAP
0004800000
AC19D12C30
1D01C00700
0B30E22400
0684876000
01D71C7000
00B70B6000
0062062000
ENDCHAR
STARTCHAR uni1E87
ENCODING 7815
SWIDTH 749 0
DWIDTH 7 0
BBX 8 7 -1 0
BITMAP
00018000
00000000
1B73D168
0490C161
00C29660
00891B50
00380B10
ENDCHAR
STARTCHAR uni1E88
ENCODING 7816
SWIDTH 944 0
DWIDTH 9 0
BBX 9 9 0 -2
BITMAP
AC19C12C30
1D01C00700
0B30E22400
0684876000
01D71C7000
00B70B6000
0062062000
0000000000
0001700000
ENDCHAR
STARTCHAR uni1E89
ENCODING 7817
SWIDTH 749 0
DWIDTH 7 0
BBX 8 7 -1 -2
BITMAP
1B73D168
0490C161
00C29660
00891B50
00380B10
00000000
00018000
ENDCHAR
STARTCHAR uni1E8A
ENCODING 7818
SWIDTH 664 0
DWIDTH 6 0
BBX 6 8 0 0
BITMAP
005700
5F52C6
087260
01D700
009800
026C20
0805A0
8A03F7
ENDCHAR
STARTCHAR uni1E8B
ENCODING 7819
SWIDTH 479 0
DWIDTH 4 0
BBX 5 7 0 0
BITMAP
026000
000000
8C2B10
0B6100
05A000
079400
945D20
ENDCHAR
STARTCHAR uni1E8C
ENCODING 7820
SWIDTH 664 0
DWIDTH 6 0
BBX 6 8 0 0
BITMAP
057570
5F51D6
087260
01D700
009800
026C20
0805A0
8A03F7
ENDCHAR
STARTCHAR uni1E8D
ENCODING 7821
SWIDTH 479 0
DWIDTH 4 0
BBX 5 7 0 0
BITMAP
262600
000000
8C2B10
0B6100
05A000
079400
945D20
ENDCHAR
STARTCHAR uni1E8E
ENCODING 7822
SWIDTH 647 0
DWIDTH 6 0
BBX 6 8 0 0
BITMAP
005700
9D21B6
0C3070
05A520
00C700
007500
007500
02BA10
ENDCHAR
STARTCHAR uni1E8F
ENCODING 7823
SWIDTH 483 0
DWIDTH 4 0
BBX 5 9 0 -2
BITMAP
017000
000000
B80A20
3A0700
0B3300
06B000
018000
043000
B70000
ENDCHAR
STARTCHAR uni1E90
ENCODING 7824
SWIDTH 594 0
DWIDTH 5 0
BBX 6 9 0 0
BITMAP
005200
037800
6A79D0
400A50
004B00
00C300
079000
1D1051
9B78C0
ENDCHAR
STARTCHAR uni1E91
ENCODING 7825
SWIDTH 458 0
DWIDTH 4 0
BBX 4 7 0 0
BITMAP
0250
0762
8799
20C2
0670
1C04
9A7A
ENDCHAR
STARTCHAR uni1E92
ENCODING 7826
SWIDTH 594 0
DWIDTH 5 0
BBX 6 9 0 -2
BITMAP
6A79D0
400A50
004B00
00C300
079000
1D1051
9B78C0
000000
008000
ENDCHAR
STARTCHAR uni1E93
ENCODING 7827
SWIDTH 458 0
DWIDTH 4 0
BBX 4 7 0 -2
BITMAP
8799
20C2
0670
1C04
9A7A
0000
0350
ENDCHAR
STARTCHAR uni1E94
ENCODING 7828
SWIDTH 594 0
DWIDTH 5 0
BBX 6 9 0 -2
BITMAP
6A79D0
400A50
004B00
00C300
079000
1D1051
9B78C0
000000
068700
ENDCHAR
STARTCHAR uni1E95
ENCODING 7829
SWIDTH 458 0
DWIDTH 4 0
BBX 4 7 0 -2
BITMAP
8799
20C2
0670
1C04
9A7A
0000
2883
ENDCHAR
STARTCHAR uni1E96
ENCODING 7830
SWIDTH 577 0
DWIDTH 5 0
BBX 5 9 0 -2
BITMAP
590000
1A0000
1B8C10
1A0750
1A0650
1A0650
5C2A90
000000
068800
ENDCHAR
STARTCHAR uni1E97
ENCODING 7831
SWIDTH 315 0
DWIDTH 3 0
BBX 3 8 0 0
BITMAP
8080
0200
2800
6B40
3900
3900
3900
1C50
ENDCHAR
STARTCHAR uni1E98
ENCODING 7832
SWIDTH 749 0
DWIDTH 7 0
BBX 8 8 -1 0
BITMAP
00037100
00063400
00037100
1B73D168
0490C161
00C29660
00891B50
00380B10
ENDCHAR
STARTCHAR uni1E99
ENCODING 7833
SWIDTH 483 0
DWIDTH 4 0
BBX 5 10 0 -2
BITMAP
037000
063300
037000
B80A20
3A0700
0B3300
06B000
018000
043000
B70000
ENDCHAR
STARTCHAR uni1E9A
ENCODING 7834
SWIDTH 480 0
DWIDTH 4 0
BBX 5 8 0 0
BITMAP
034000
006000
034000
379300
425700
168700
834700
6B8B10
ENDCHAR
STARTCHAR uni1E9B
ENCODING 7835
SWIDTH 285 0
DWIDTH 3 0
BBX 4 8 0 0
BITMAP
1B00
0994
1A00
6A00
1A00
1A00
1A00
6D30
ENDCHAR
STARTCHAR uni1E9C
ENCODING 7836
SWIDTH 300 0
DWIDTH 3 0
BBX 4 7 0 0
BITMAP
0795
0B00
4C30
1D10
5B00
0B00
5E30
ENDCHAR
STARTCHAR uni1E9D
ENCODING 7837
SWIDTH 285 0
DWIDTH 3 0
BBX 4 7 0 0
BITMAP
07A4
5C30
6A00
1A00
1A00
1A00
6D30
ENDCHAR
STARTCHAR uni1E9E
ENCODING 7838
SWIDTH 684 0
DWIDTH 6 0
BBX 6 7 0 0
BITMAP
0397B4
0B21C1
0C0860
0C07A2
0C004A
0C102B
4D7763
ENDCHAR
STARTCHAR uni1E9F
ENCODING 7839
SWIDTH 517 0
DWIDTH 5 0
BBX 5 8 0 0
BITMAP
056600
0B0600
098000
06B800
660C20
A30850
840930
196700
ENDCHAR
STARTCHAR uni1EA0
ENCODING 7840
SWIDTH 718 0
DWIDTH 6 0
BBX 7 9 0 -2
BITMAP
00380000
007C0000
00794000
0434A000
0866E100
17009600
98009D20
00000000
00440000
ENDCHAR
STARTCHAR uni1EA1
ENCODING 7841
SWIDTH 480 0
DWIDTH 4 0
BBX 5 7 0 -2
BITMAP
379300
425700
168700
834700
6B8B10
000000
035000
ENDCHAR
STARTCHAR uni1EA2
ENCODING 7842
SWIDTH 718 0
DWIDTH 6 0
BBX 7 10 0 0
BITMAP
00360000
00171000
00050000
00380000
007C0000
00794000
0434A000
0866E100
17009600
98009D20
ENDCHAR
STARTCHAR uni1EA3
ENCODING 7843
SWIDTH 480 0
DWIDTH 4 0
BBX 5 8 0 0
BITMAP
046000
028000
015000
379300
425700
168700
834700
6B8B10
ENDCHAR
STARTCHAR uni1EA4
ENCODING 7844
SWIDTH 718 0
DWIDTH 6 0
BBX 7 9 0 0
BITMAP
00255600
00986000
00380000
007C0000
00794000
0434A000
0866E100
17009600
98009D20
ENDCHAR
STARTCHAR uni1EA5
ENCODING 7845
SWIDTH 480 0
DWIDTH 4 0
BBX 5 8 0 0
BITMAP
000910
079300
032100
379300
425700
168700
834700
6B8B10
ENDCHAR
STARTCHAR uni1EA6
ENCODING 7846
SWIDTH 718 0
DWIDTH 6 0
BBX 7 9 0 0
BITMAP
00269000
00864100
00380000
007C0000
00794000
0434A000
0866E100
17009600
98009D20
ENDCHAR
STARTCHAR uni1EA7
ENCODING 7847
SWIDTH 480 0
DWIDTH 4 0
BBX 5 8 0 0
BITMAP
006400
079300
021100
379300
425700
168700
834700
6B8B10
ENDCHAR
STARTCHAR uni1EA8
ENCODING 7848
SWIDTH 718 0
DWIDTH 6 0
BBX 7 11 0 0
BITMAP
00026000
00015300
00696000
00312000
00380000
007C0000
00794000
0434A000
0866E100
17009600
98009D20
ENDCHAR
STARTCHAR uni1EA9
ENCODING 7849
SWIDTH 480 0
DWIDTH 4 0
BBX 5 9 0 0
BITMAP
003600
001810
079300
032100
379300
425700
168700
834700
6B8B10
ENDCHAR
STARTCHAR uni1EAA
ENCODING 7850
SWIDTH 718 0
DWIDTH 6 0
BBX 7 10 0 0
BITMAP
00933000
01282000
00882000
00380000
007C0000
00794000
0434A000
0866E100
17009600
98009D20
ENDCHAR
STARTCHAR uni1EAB
ENCODING 7851
SWIDTH 480 0
DWIDTH 4 0
BBX 5 8 0 0
BITMAP
189300
079000
064200
379300
425700
168700
834700
6B8B10
ENDCHAR
STARTCHAR uni1EAC
ENCODING 7852
SWIDTH 718 0
DWIDTH 6 0
BBX 7 11 0 -2
BITMAP
00250000
00873000
00380000
007C0000
00794000
0434A000
0866E100
17009600
98009D20
00000000
00440000
ENDCHAR
STARTCHAR uni1EAD
ENCODING 7853
SWIDTH 480 0
DWIDTH 4 0
BBX 5 9 0 -2
BITMAP
034000
076100
379300
425700
168700
834700
6B8B10
000000
035000
ENDCHAR
STARTCHAR uni1EAE
ENCODING 7854
SWIDTH 718 0
DWIDTH 6 0
BBX 7 10 0 0
BITMAP
00020000
01474000
008A2000
00380000
007C0000
00794000
0434A000
0866E100
17009600
98009D20
ENDCHAR
STARTCHAR uni1EAF
ENCODING 7855
SWIDTH 480 0
DWIDTH 4 0
BBX 5 8 0 0
BITMAP
00A000
254400
099100
379300
425700
168700
834700
6B8B10
ENDCHAR
STARTCHAR uni1EB0
ENCODING 7856
SWIDTH 718 0
DWIDTH 6 0
BBX 7 10 0 0
BITMAP
00200000
01643000
008A2000
00380000
007C0000
00794000
0434A000
0866E100
17009600
98009D20
ENDCHAR
STARTCHAR uni1EB1
ENCODING 7857
SWIDTH 480 0
DWIDTH 4 0
BBX 5 8 0 0
BITMAP
091000
245400
099100
379300
425700
168700
834700
6B8B10
ENDCHAR
STARTCHAR uni1EB2
ENCODING 7858
SWIDTH 718 0
DWIDTH 6 0
BBX 7 10 0 0
BITMAP
00360000
01464000
008A2000
00380000
007C0000
00794000
0434A000
0866E100
17009600
98009D20
ENDCHAR
STARTCHAR uni1EB3
ENCODING 7859
SWIDTH 480 0
DWIDTH 4 0
BBX 5 9 0 0
BITMAP
045000
018000
243400
099100
379300
425700
168700
834700
6B8B10
ENDCHAR
STARTCHAR uni1EB4
ENCODING 7860
SWIDTH 718 0
DWIDTH 6 0
BBX 7 10 0 0
BITMAP
00893000
01404000
008A1000
00380000
007C0000
00794000
0434A000
0866E100
17009600
98009D20
ENDCHAR
STARTCHAR uni1EB5
ENCODING 7861
SWIDTH 480 0
DWIDTH 4 0
BBX 5 9 0 0
BITMAP
0A2300
219200
231400
099100
379300
425700
168700
834700
6B8B10
ENDCHAR
STARTCHAR uni1EB6
ENCODING 7862
SWIDTH 718 0
DWIDTH 6 0
BBX 7 11 0 -2
BITMAP
01303000
008A2000
00380000
007C0000
00794000
0434A000
0866E100
17009600
98009D20
00000000
00440000
ENDCHAR
STARTCHAR uni1EB7
ENCODING 7863
SWIDTH 480 0
DWIDTH 4 0
BBX 5 9 0 -2
BITMAP
221300
0AB100
379300
425700
168700
834700
6B8B10
000000
035000
ENDCHAR
STARTCHAR uni1EB8
ENCODING 7864
SWIDTH 626 0
DWIDTH 6 0
BBX 6 9 0 -2
BITMAP
3E77C1
0C0031
0C0050
0C7960
0C0020
0C0024
3E77C3
000000
005300
ENDCHAR
STARTCHAR uni1EB9
ENCODING 7865
SWIDTH 464 0
DWIDTH 4 0
BBX 4 7 0 -2
BITMAP
2785
8768
A100
8603
1CB4
0000
0260
ENDCHAR
STARTCHAR uni1EBA
ENCODING 7866
SWIDTH 626 0
DWIDTH 6 0
BBX 6 10 0 0
BITMAP
005500
001800
003200
3E77C1
0C0031
0C0050
0C7960
0C0020
0C0024
3E77C3
ENDCHAR
STARTCHAR uni1EBB
ENCODING 7867
SWIDTH 464 0
DWIDTH 4 0
BBX 4 8 0 0
BITMAP
0360
0271
0060
2785
8768
A100
8603
1CB4
ENDCHAR
STARTCHAR uni1EBC
ENCODING 7868
SWIDTH 626 0
DWIDTH 6 0
BBX 6 8 0 0
BITMAP
039920
3E77C1
0C0031
0C0050
0C7960
0C0020
0C0024
3E77C3
ENDCHAR
STARTCHAR uni1EBD
ENCODING 7869
SWIDTH 464 0
DWIDTH 4 0
BBX 4 6 0 0
BITMAP
0894
2785
8768
A100
8603
1CB4
ENDCHAR
STARTCHAR uni1EBE
ENCODING 7870
SWIDTH 626 0
DWIDTH 6 0
BBX 6 9 0 0
BITMAP
005393
028930
3E77C1
0C0031
0C0050
0C7960
0C0020
0C0024
3E77C3
ENDCHAR
STARTCHAR uni1EBF
ENCODING 7871
SWIDTH 464 0
DWIDTH 4 0
BBX 5 8 0 0
BITMAP
000820
06A400
031200
278500
876800
A10000
860300
1CB400
ENDCHAR
STARTCHAR uni1EC0
ENCODING 7872
SWIDTH 626 0
DWIDTH 6 0
BBX 6 9 0 0
BITMAP
003760
027720
3E77C1
0C0031
0C0050
0C7960
0C0020
0C0024
3E77C3
ENDCHAR
STARTCHAR uni1EC1
ENCODING 7873
SWIDTH 464 0
DWIDTH 4 0
BBX 4 8 0 0
BITMAP
0055
0693
0212
2785
8768
A100
8603
1CB4
ENDCHAR
STARTCHAR uni1EC2
ENCODING 7874
SWIDTH 626 0
DWIDTH 6 0
BBX 6 11 0 0
BITMAP
000450
000280
009840
022300
3E77C1
0C0031
0C0050
0C7960
0C0020
0C0024
3E77C3
ENDCHAR
STARTCHAR uni1EC3
ENCODING 7875
SWIDTH 464 0
DWIDTH 4 0
BBX 5 9 0 0
BITMAP
003700
001720
06A400
031200
278500
876800
A10000
860300
1CB400
ENDCHAR
STARTCHAR uni1EC4
ENCODING 7876
SWIDTH 626 0
DWIDTH 6 0
BBX 6 10 0 0
BITMAP
029120
023700
028800
3E77C1
0C0031
0C0050
0C7960
0C0020
0C0024
3E77C3
ENDCHAR
STARTCHAR uni1EC5
ENCODING 7877
SWIDTH 464 0
DWIDTH 4 0
BBX 4 8 0 0
BITMAP
0894
06A0
0633
2785
8768
A100
8603
1CB4
ENDCHAR
STARTCHAR uni1EC6
ENCODING 7878
SWIDTH 626 0
DWIDTH 6 0
BBX 6 11 0 -2
BITMAP
005300
027800
3E77C1
0C0031
0C0050
0C7960
0C0020
0C0024
3E77C3
000000
005300
ENDCHAR
STARTCHAR uni1EC7
ENCODING 7879
SWIDTH 464 0
DWIDTH 4 0
BBX 4 9 0 -2
BITMAP
0250
0762
2785
8768
A100
8603
1CB4
0000
0260
ENDCHAR
STARTCHAR uni1EC8
ENCODING 7880
SWIDTH 357 0
DWIDTH 3 0
BBX 3 10 0 0
BITMAP
0630
0270
0510
4E60
0C00
0C00
0C00
0C00
0C00
4E60
ENDCHAR
STARTCHAR uni1EC9
ENCODING 7881
SWIDTH 285 0
DWIDTH 3 0
BBX 3 8 0 0
BITMAP
4600
2800
1500
5A00
1A00
1A00
1A00
5C10
ENDCHAR
STARTCHAR uni1ECA
ENCODING 7882
SWIDTH 357 0
DWIDTH 3 0
BBX 3 9 0 -2
BITMAP
4E60
0C00
0C00
0C00
0C00
0C00
4E60
0000
0800
ENDCHAR
STARTCHAR uni1ECB
ENCODING 7883
SWIDTH 285 0
DWIDTH 3 0
BBX 3 9 0 -2
BITMAP
2A00
0100
5A00
1A00
1A00
1A00
5C10
0000
1700
ENDCHAR
STARTCHAR uni1ECC
ENCODING 7884
SWIDTH 738 0
DWIDTH 7 0
BBX 7 9 0 -2
BITMAP
04869200
2C002B00
68000D10
86000C20
78000D10
2C002B00
05868100
00000000
00170000
ENDCHAR
STARTCHAR uni1ECD
ENCODING 7885
SWIDTH 514 0
DWIDTH 5 0
BBX 5 7 0 -2
BITMAP
186800
740A20
A20840
840920
196700
000000
017000
ENDCHAR
STARTCHAR uni1ECE
ENCODING 7886
SWIDTH 738 0
DWIDTH 7 0
BBX 7 10 0 0
BITMAP
00271000
00163000
00050000
04869200
2C002B00
68000D10
86000C20
78000D10
2C002B00
05868100
ENDCHAR
STARTCHAR uni1ECF
ENCODING 7887
SWIDTH 514 0
DWIDTH 5 0
BBX 5 8 0 0
BITMAP
027100
015300
006000
186800
740A20
A20840
840920
196700
ENDCHAR
STARTCHAR uni1ED0
ENCODING 7888
SWIDTH 738 0
DWIDTH 7 0
BBX 7 9 0 0
BITMAP
00163800
00888000
04869200
2C002B00
68000D10
86000C20
78000D10
2C002B00
05868100
ENDCHAR
STARTCHAR uni1ED1
ENCODING 7889
SWIDTH 514 0
DWIDTH 5 0
BBX 5 8 0 0
BITMAP
000640
04B500
030300
186800
740A20
A20840
840920
196700
ENDCHAR
STARTCHAR uni1ED2
ENCODING 7890
SWIDTH 738 0
DWIDTH 7 0
BBX 7 9 0 0
BITMAP
00169000
00764100
04869200
2C002B00
68000D10
86000C20
78000D10
2C002B00
05868100
ENDCHAR
STARTCHAR uni1ED3
ENCODING 7891
SWIDTH 514 0
DWIDTH 5 0
BBX 5 8 0 0
BITMAP
003800
04A400
030200
186800
740A20
A20840
840920
196700
ENDCHAR
STARTCHAR uni1ED4
ENCODING 7892
SWIDTH 738 0
DWIDTH 7 0
BBX 7 11 0 0
BITMAP
00016100
00014500
004A6000
00413000
04869200
2C002B00
68000D10
86000C20
78000D10
2C002B00
05868100
ENDCHAR
STARTCHAR uni1ED5
ENCODING 7893
SWIDTH 514 0
DWIDTH 5 0
BBX 5 9 0 0
BITMAP
001720
001540
04B500
030300
186800
740A20
A20840
840920
196700
ENDCHAR
STARTCHAR uni1ED6
ENCODING 7894
SWIDTH 738 0
DWIDTH 7 0
BBX 7 10 0 0
BITMAP
00743000
00273000
00773000
04869200
2C002B00
68000D10
86000C20
78000D10
2C002B00
05868100
ENDCHAR
STARTCHAR uni1ED7
ENCODING 7895
SWIDTH 514 0
DWIDTH 5 0
BBX 5 8 0 0
BITMAP
079500
03C000
062400
186800
740A20
A20840
840920
196700
ENDCHAR
STARTCHAR uni1ED8
ENCODING 7896
SWIDTH 738 0
DWIDTH 7 0
BBX 7 11 0 -2
BITMAP
00160000
00764000
04869200
2C002B00
68000D10
86000C20
78000D10
2C002B00
05868100
00000000
00170000
ENDCHAR
STARTCHAR uni1ED9
ENCODING 7897
SWIDTH 514 0
DWIDTH 5 0
BBX 5 9 0 -2
BITMAP
016000
065400
186800
740A20
A20840
840920
196700
000000
017000
ENDCHAR
STARTCHAR uni1EDA
ENCODING 7898
SWIDTH 737 0
DWIDTH 7 0
BBX 7 9 0 0
BITMAP
00061320
00460650
0587D600
2B003C00
67000E20
86000C20
77000D10
2B002A00
05868100
ENDCHAR
STARTCHAR uni1EDB
ENCODING 7899
SWIDTH 516 0
DWIDTH 5 0
BBX 5 7 0 0
BITMAP
005330
008270
187C10
840A20
A20840
840920
196700
ENDCHAR
STARTCHAR uni1EDC
ENCODING 7900
SWIDTH 737 0
DWIDTH 7 0
BBX 7 9 0 0
BITMAP
00430320
00190650
0587D600
2B003C00
67000E20
86000C20
77000D10
2B002A00
05868100
ENDCHAR
STARTCHAR uni1EDD
ENCODING 7901
SWIDTH 516 0
DWIDTH 5 0
BBX 5 7 0 0
BITMAP
042130
017270
187C10
840A20
A20840
840920
196700
ENDCHAR
STARTCHAR uni1EDE
ENCODING 7902
SWIDTH 737 0
DWIDTH 7 0
BBX 7 10 0 0
BITMAP
00270000
00162320
00050650
0587D600
2B003C00
67000E20
86000C20
77000D10
2B002A00
05868100
ENDCHAR
STARTCHAR uni1EDF
ENCODING 7903
SWIDTH 516 0
DWIDTH 5 0
BBX 5 8 0 0
BITMAP
027100
015530
006270
187C10
840A20
A20840
840920
196700
ENDCHAR
STARTCHAR uni1EE0
ENCODING 7904
SWIDTH 737 0
DWIDTH 7 0
BBX 7 9 0 0
BITMAP
00000320
00895650
0587D600
2B003C00
67000E20
86000C20
77000D10
2B002A00
05868100
ENDCHAR
STARTCHAR uni1EE1
ENCODING 7905
SWIDTH 516 0
DWIDTH 5 0
BBX 5 7 0 0
BITMAP
095540
128570
187C10
840A20
A20840
840920
196700
ENDCHAR
STARTCHAR uni1EE2
ENCODING 7906
SWIDTH 737 0
DWIDTH 7 0
BBX 7 11 0 -2
BITMAP
00000320
00000650
0587D600
2B003C00
67000E20
86000C20
77000D10
2B002A00
05868100
00000000
00170000
ENDCHAR
STARTCHAR uni1EE3
ENCODING 7907
SWIDTH 516 0
DWIDTH 5 0
BBX 5 9 0 -2
BITMAP
000130
000270
187C10
840A20
A20840
840920
196700
000000
017000
ENDCHAR
STARTCHAR uni1EE4
ENCODING 7908
SWIDTH 752 0
DWIDTH 7 0
BBX 7 9 0 -2
BITMAP
5F403D30
0D000800
0C000800
0C000800
0C000700
0B201700
03B99100
00000000
00080000
ENDCHAR
STARTCHAR uni1EE5
ENCODING 7909
SWIDTH 570 0
DWIDTH 5 0
BBX 5 7 0 -2
BITMAP
781B30
380840
380840
290840
0B8A70
000000
008000
ENDCHAR
STARTCHAR uni1EE6
ENCODING 7910
SWIDTH 752 0
DWIDTH 7 0
BBX 7 10 0 0
BITMAP
00063000
00037000
00051000
5F403D30
0D000800
0C000800
0C000800
0C000700
0B201700
03B99100
ENDCHAR
STARTCHAR uni1EE7
ENCODING 7911
SWIDTH 570 0
DWIDTH 5 0
BBX 5 8 0 0
BITMAP
017200
014500
005000
781B30
380840
380840
290840
0B8A70
ENDCHAR
STARTCHAR uni1EE8
ENCODING 7912
SWIDTH 762 0
DWIDTH 7 0
BBX 8 9 0 0
BITMAP
00044032
00190055
5F403E80
0D000800
0C000800
0C000800
0C000800
0B201700
03B99100
ENDCHAR
STARTCHAR uni1EE9
ENCODING 7913
SWIDTH 574 0
DWIDTH 5 0
BBX 6 7 0 0
BITMAP
004241
008062
781B50
380840
380840
290840
0B8A70
ENDCHAR
STARTCHAR uni1EEA
ENCODING 7914
SWIDTH 762 0
DWIDTH 7 0
BBX 8 9 0 0
BITMAP
00250032
00082055
5F403E80
0D000800
0C000800
0C000800
0C000800
0B201700
03B99100
ENDCHAR
STARTCHAR uni1EEB
ENCODING 7915
SWIDTH 574 0
DWIDTH 5 0
BBX 6 7 0 0
BITMAP
043041
018062
781B50
380840
380840
290840
0B8A70
ENDCHAR
STARTCHAR uni1EEC
ENCODING 7916
SWIDTH 762 0
DWIDTH 7 0
BBX 8 10 0 0
BITMAP
00063000
00037032
00051055
5F403E80
0D000800
0C000800
0C000800
0C000800
0B201700
03B99100
ENDCHAR
STARTCHAR uni1EED
ENCODING 7917
SWIDTH 574 0
DWIDTH 5 0
BBX 6 8 0 0
BITMAP
017100
014441
006062
781B50
380840
380840
290840
0B8A70
ENDCHAR
STARTCHAR uni1EEE
ENCODING 7918
SWIDTH 762 0
DWIDTH 7 0
BBX 8 9 0 0
BITMAP
00000032
00598055
5F403E80
0D000800
0C000800
0C000800
0C000800
0B201700
03B99100
ENDCHAR
STARTCHAR uni1EEF
ENCODING 7919
SWIDTH 574 0
DWIDTH 5 0
BBX 6 7 0 0
BITMAP
000041
079662
781B50
380840
380840
290840
0B8A70
ENDCHAR
STARTCHAR uni1EF0
ENCODING 7920
SWIDTH 762 0
DWIDTH 7 0
BBX 8 11 0 -2
BITMAP
00000032
00000055
5F403E80
0D000800
0C000800
0C000800
0C000800
0B201700
03B99100
00000000
00080000
ENDCHAR
STARTCHAR uni1EF1
ENCODING 7921
SWIDTH 574 0
DWIDTH 5 0
BBX 6 9 0 -2
BITMAP
000041
000062
781B50
380840
380840
290840
0B8A70
000000
008000
ENDCHAR
STARTCHAR Ygrave
ENCODING 7922
SWIDTH 647 0
DWIDTH 6 0
BBX 6 9 0 0
BITMAP
006100
003700
9D20B6
0C3070
05A520
00C700
007500
007500
02BA10
ENDCHAR
STARTCHAR ygrave
ENCODING 7923
SWIDTH 483 0
DWIDTH 4 0
BBX 5 9 0 -2
BITMAP
042000
017000
B80A20
3A0700
0B3300
06B000
018000
043000
B70000
ENDCHAR
STARTCHAR uni1EF4
ENCODING 7924
SWIDTH 647 0
DWIDTH 6 0
BBX 6 9 0 -2
BITMAP
9D20B6
0C3070
05A520
00C700
007500
007500
02BA10
000000
005300
ENDCHAR
STARTCHAR uni1EF5
ENCODING 7925
SWIDTH 483 0
DWIDTH 4 0
BBX 5 7 0 -2
BITMAP
B80A20
3A0700
0B3300
06B000
018000
043000
B74400
ENDCHAR
STARTCHAR uni1EF6
ENCODING 7926
SWIDTH 647 0
DWIDTH 6 0
BBX 6 10 0 0
BITMAP
004500
001800
001400
9D20B6
0C3070
05A520
00C700
007500
007500
02BA10
ENDCHAR
STARTCHAR uni1EF7
ENCODING 7927
SWIDTH 483 0
DWIDTH 4 0
BBX 5 10 0 -2
BITMAP
027100
015300
006000
B80A20
3A0700
0B3300
06B000
018000
043000
B70000
ENDCHAR
STARTCHAR uni1EF8
ENCODING 7928
SWIDTH 647 0
DWIDTH 6 0
BBX 6 8 0 0
BITMAP
019930
9D20B6
0C3070
05A520
00C700
007500
007500
02BA10
ENDCHAR
STARTCHAR uni1EF9
ENCODING 7929
SWIDTH 483 0
DWIDTH 4 0
BBX 5 8 0 -2
BITMAP
079500
B80A20
3A0700
0B3300
06B000
018000
043000
B70000
ENDCHAR
STARTCHAR uni2000
ENCODING 8192
SWIDTH 500 0
DWIDTH 5 0
BBX 1 1 0 0
BITMAP
00
ENDCHAR
STARTCHAR uni2001
ENCODING 8193
SWIDTH 1000 0
DWIDTH 9 0
BBX 1 1 0 0
BITMAP
00
ENDCHAR
STARTCHAR uni2002
ENCODING 8194
SWIDTH 500 0
DWIDTH 5 0
BBX 1 1 0 0
BITMAP
00
ENDCHAR
STARTCHAR uni2003
ENCODING 8195
SWIDTH 1000 0
DWIDTH 9 0
BBX 1 1 0 0
BITMAP
00
ENDCHAR
STARTCHAR uni2004
ENCODING 8196
SWIDTH 334 0
DWIDTH 3 0
BBX 1 1 0 0
BITMAP
00
ENDCHAR
STARTCHAR uni2005
ENCODING 8197
SWIDTH 250 0
DWIDTH 2 0
BBX 1 1 0 0
BITMAP
00
ENDCHAR
STARTCHAR uni2006
ENCODING 8198
SWIDTH 167 0
DWIDTH 2 0
BBX 1 1 0 0
BITMAP
00
ENDCHAR
STARTCHAR uni2007
ENCODING 8199
SWIDTH 560 0
DWIDTH 5 0
BBX 1 1 0 0
BITMAP
00
ENDCHAR
STARTCHAR uni2008
ENCODING 8200
SWIDTH 297 0
DWIDTH 3 0
BBX 1 1 0 0
BITMAP
00
ENDCHAR
STARTCHAR uni2009
ENCODING 8201
SWIDTH 125 0
DWIDTH 1 0
BBX 1 1 0 0
BITMAP
00
ENDCHAR
STARTCHAR uni200A
ENCODING 8202
SWIDTH 63 0
DWIDTH 1 0
BBX 1 1 0 0
BITMAP
00
ENDCHAR
STARTCHAR uni200B
ENCODING 8203
SWIDTH 0 0
DWIDTH 0 0
BBX 1 1 0 0
BITMAP
00
ENDCHAR
STARTCHAR uni200C
ENCODING 8204
SWIDTH 0 0
DWIDTH 0 0
BBX 2 11 -1 -3
BITMAP
11
22
22
22
22
22
22
22
22
22
22
ENDCHAR
STARTCHAR uni200D
ENCODING 8205
SWIDTH 0 0
DWIDTH 0 0
BBX 2 12 -1 -3
BITMAP
33
66
33
22
22
22
22
22
22
22
22
22
ENDCHAR
STARTCHAR uni2010
ENCODING 8208
SWIDTH 315 0
DWIDTH 3 0
BBX 3 1 0 2
BITMAP
6A40
ENDCHAR
STARTCHAR uni2011
ENCODING 8209
SWIDTH 315 0
DWIDTH 3 0
BBX 3 1 0 2
BITMAP
6A40
ENDCHAR
STARTCHAR figuredash
ENCODING 8210
SWIDTH 495 0
DWIDTH 4 0
BBX 5 1 0 2
BITMAP
799920
ENDCHAR
STARTCHAR endash
ENCODING 8211
SWIDTH 500 0
DWIDTH 5 0
BBX 5 1 0 2
BITMAP
799920
ENDCHAR
STARTCHAR emdash
ENCODING 8212
SWIDTH 1000 0
DWIDTH 9 0
BBX 9 1 0 2
BITMAP
7999999970
ENDCHAR
STARTCHAR uni2015
ENCODING 8213
SWIDTH 940 0
DWIDTH 8 0
BBX 9 1 0 2
BITMAP
9999999940
ENDCHAR
STARTCHAR uni2016
ENCODING 8214
SWIDTH 427 0
DWIDTH 4 0
BBX 3 9 0 -2
BITMAP
1780
1780
1780
1780
1780
1780
1780
1780
1780
ENDCHAR
STARTCHAR underscoredbl
ENCODING 8215
SWIDTH 512 0
DWIDTH 5 0
BBX 5 2 0 -3
BITMAP
888850
888850
ENDCHAR
STARTCHAR quoteleft
ENCODING 8216
SWIDTH 245 0
DWIDTH 2 0
BBX 2 4 0 4
BITMAP
02
43
6A
01
ENDCHAR
STARTCHAR quoteright
ENCODING 8217
SWIDTH 245 0
DWIDTH 2 0
BBX 2 3 0 4
BITMAP
78
17
21
ENDCHAR
STARTCHAR quotesinglbase
ENCODING 8218
SWIDTH 243 0
DWIDTH 2 0
BBX 2 3 0 -2
BITMAP
79
16
20
ENDCHAR
STARTCHAR quotereversed
ENCODING 8219
SWIDTH 243 0
DWIDTH 2 0
BBX 2 3 0 4
BITMAP
59
52
03
ENDCHAR
STARTCHAR quotedblleft
ENCODING 8220
SWIDTH 435 0
DWIDTH 4 0
BBX 4 4 0 4
BITMAP
0201
4361
6AA5
0110
ENDCHAR
STARTCHAR quotedblright
ENCODING 8221
SWIDTH 434 0
DWIDTH 4 0
BBX 4 3 0 4
BITMAP
78B4
1743
2130
ENDCHAR
STARTCHAR quotedblbase
ENCODING 8222
SWIDTH 433 0
DWIDTH 4 0
BBX 4 4 0 -2
BITMAP
0010
79B4
1643
2020
ENDCHAR
STARTCHAR uni201F
ENCODING 8223
SWIDTH 434 0
DWIDTH 4 0
BBX 4 3 0 4
BITMAP
5A95
5370
0312
ENDCHAR
STARTCHAR dagger
ENCODING 8224
SWIDTH 512 0
DWIDTH 5 0
BBX 4 9 0 -2
BITMAP
0190
0040
5A8C
0050
01B0
0080
0050
0030
0030
ENDCHAR
STARTCHAR daggerdbl
ENCODING 8225
SWIDTH 512 0
DWIDTH 5 0
BBX 4 9 0 -2
BITMAP
0190
0040
5A8C
0050
01A0
0040
575A
0080
0050
ENDCHAR
STARTCHAR bullet
ENCODING 8226
SWIDTH 457 0
DWIDTH 4 0
BBX 3 3 1 1
BITMAP
6700
FF10
BC00
ENDCHAR
STARTCHAR twodotenleader
ENCODING 8229
SWIDTH 500 0
DWIDTH 5 0
BBX 5 2 0 0
BITMAP
100100
850C10
ENDCHAR
STARTCHAR ellipsis
ENCODING 8230
SWIDTH 887 0
DWIDTH 8 0
BBX 6 2 1 0
BITMAP
201102
C0760D
ENDCHAR
STARTCHAR uni202F
ENCODING 8239
SWIDTH 125 0
DWIDTH 1 0
BBX 1 1 0 0
BITMAP
00
ENDCHAR
STARTCHAR perthousand
ENCODING 8240
SWIDTH 1017 0
DWIDTH 9 0
BBX 9 7 0 0
BITMAP
1840610000
7265600000
8164100000
2625631630
0057357250
0159059050
0606637520
ENDCHAR
STARTCHAR uni2031
ENCODING 8241
SWIDTH 1342 0
DWIDTH 12 0
BBX 12 7 0 0
BITMAP
184061000000
726560000000
816410000000
262563163162
005735725815
015905905905
060663752752
ENDCHAR
STARTCHAR minute
ENCODING 8242
SWIDTH 296 0
DWIDTH 3 0
BBX 2 3 0 4
BITMAP
0A
19
43
ENDCHAR
STARTCHAR second
ENCODING 8243
SWIDTH 436 0
DWIDTH 4 0
BBX 4 3 0 4
BITMAP
0A73
19A0
4360
ENDCHAR
STARTCHAR uni2034
ENCODING 8244
SWIDTH 576 0
DWIDTH 5 0
BBX 5 3 0 4
BITMAP
0A7770
19A820
436700
ENDCHAR
STARTCHAR uni2035
ENCODING 8245
SWIDTH 296 0
DWIDTH 3 0
BBX 2 3 0 4
BITMAP
56
19
07
ENDCHAR
STARTCHAR uni2036
ENCODING 8246
SWIDTH 436 0
DWIDTH 4 0
BBX 4 3 0 4
BITMAP
5790
19A0
0743
ENDCHAR
STARTCHAR uni2037
ENCODING 8247
SWIDTH 576 0
DWIDTH 5 0
BBX 5 3 0 4
BITMAP
57AA00
19A730
074460
ENDCHAR
STARTCHAR uni2038
ENCODING 8248
SWIDTH 523 0
DWIDTH 5 0
BBX 5 3 0 -2
BITMAP
029000
072600
410410
ENDCHAR
STARTCHAR guilsinglleft
ENCODING 8249
SWIDTH 307 0
DWIDTH 3 0
BBX 3 4 0 0
BITMAP
0510
6500
3700
0310
ENDCHAR
STARTCHAR guilsinglright
ENCODING 8250
SWIDTH 307 0
DWIDTH 3 0
BBX 3 4 0 0
BITMAP
3300
0830
0910
3100
ENDCHAR
STARTCHAR uni203B
ENCODING 8251
SWIDTH 701 0
DWIDTH 6 0
BBX 6 8 0 -1
BITMAP
100001
464927
082190
019640
3A6A58
049671
384956
100001
ENDCHAR
STARTCHAR exclamdbl
ENCODING 8252
SWIDTH 565 0
DWIDTH 5 0
BBX 5 7 0 0
BITMAP
2A0830
2B0940
190830
080710
060600
020200
3A0940
ENDCHAR
STARTCHAR uni203E
ENCODING 8254
SWIDTH 512 0
DWIDTH 5 0
BBX 5 1 0 8
BITMAP
777740
ENDCHAR
STARTCHAR uni2040
ENCODING 8256
SWIDTH 810 0
DWIDTH 7 0
BBX 7 3 0 5
BITMAP
029AA400
17100440
10000000
ENDCHAR
STARTCHAR uni2043
ENCODING 8259
SWIDTH 352 0
DWIDTH 3 0
BBX 3 2 0 2
BITMAP
6B80
8FB0
ENDCHAR
STARTCHAR fraction
ENCODING 8260
SWIDTH 205 0
DWIDTH 2 0
BBX 5 7 -2 0
BITMAP
000070
000340
000700
004300
007000
052000
160000
ENDCHAR
STARTCHAR uni2047
ENCODING 8263
SWIDTH 822 0
DWIDTH 7 0
BBX 8 7 0 0
BITMAP
56927690
A166B0A1
108310B0
00900360
04200600
02000200
08400C00
ENDCHAR
STARTCHAR uni204B
ENCODING 8267
SWIDTH 605 0
DWIDTH 5 0
BBX 5 9 0 -2
BITMAP
2DA860
0982B0
0982B0
098670
098300
098200
098200
0A8300
253500
ENDCHAR
STARTCHAR uni204C
ENCODING 8268
SWIDTH 479 0
DWIDTH 4 0
BBX 4 3 0 1
BITMAP
0873
3F70
0863
ENDCHAR
STARTCHAR uni204D
ENCODING 8269
SWIDTH 479 0
DWIDTH 4 0
BBX 4 3 0 1
BITMAP
2682
04D8
2582
ENDCHAR
STARTCHAR uni204E
ENCODING 8270
SWIDTH 410 0
DWIDTH 4 0
BBX 4 4 0 -2
BITMAP
0510
7983
4A72
2631
ENDCHAR
STARTCHAR uni204F
ENCODING 8271
SWIDTH 245 0
DWIDTH 2 0
BBX 2 7 0 -2
BITMAP
58
11
00
01
79
51
02
ENDCHAR
STARTCHAR uni2050
ENCODING 8272
SWIDTH 809 0
DWIDTH 7 0
BBX 7 7 0 0
BITMAP
03889600
28000460
11000020
00000000
11000020
37000460
04888600
ENDCHAR
STARTCHAR uni2051
ENCODING 8273
SWIDTH 410 0
DWIDTH 4 0
BBX 4 8 0 -1
BITMAP
7A93
4972
3631
0510
2631
4A82
6983
0510
ENDCHAR
STARTCHAR uni2052
ENCODING 8274
SWIDTH 482 0
DWIDTH 4 0
BBX 4 10 0 -2
BITMAP
0005
4718
0154
0090
0090
0360
0720
0A00
1839
5401
ENDCHAR
STARTCHAR uni2057
ENCODING 8279
SWIDTH 727 0
DWIDTH 7 0
BBX 6 3 0 4
BITMAP
0A777B
19A858
436761
ENDCHAR
STARTCHAR uni205F
ENCODING 8287
SWIDTH 222 0
DWIDTH 2 0
BBX 1 1 0 0
BITMAP
00
ENDCHAR
STARTCHAR uni2061
ENCODING 8289
SWIDTH 0 0
DWIDTH 0 0
BBX 1 1 0 0
BITMAP
00
ENDCHAR
STARTCHAR uni2062
ENCODING 8290
SWIDTH 0 0
DWIDTH 0 0
BBX 1 1 0 0
BITMAP
00
ENDCHAR
STARTCHAR uni2063
ENCODING 8291
SWIDTH 0 0
DWIDTH 0 0
BBX 1 1 0 0
BITMAP
00
ENDCHAR
STARTCHAR uni2064
ENCODING 8292
SWIDTH 0 0
DWIDTH 0 0
BBX 1 1 0 0
BITMAP
00
ENDCHAR
STARTCHAR zerosuperior
ENCODING 8304
SWIDTH 412 0
DWIDTH 4 0
BBX 4 5 0 2
BITMAP
3680
9155
A046
9155
2780
ENDCHAR
STARTCHAR uni2071
ENCODING 8305
SWIDTH 245 0
DWIDTH 2 0
BBX 2 5 0 2
BITMAP
36
67
37
37
69
ENDCHAR
STARTCHAR foursuperior
ENCODING 8308
SWIDTH 403 0
DWIDTH 4 0
BBX 4 5 0 2
BITMAP
01B0
06A0
52A0
99D4
00A0
ENDCHAR
STARTCHAR fivesuperior
ENCODING 8309
SWIDTH 358 0
DWIDTH 3 0
BBX 3 5 0 2
BITMAP
3970
5000
6950
0090
6550
ENDCHAR
STARTCHAR sixsuperior
ENCODING 8310
SWIDTH 390 0
DWIDTH 4 0
BBX 4 5 0 2
BITMAP
0860
6600
A780
A173
4681
ENDCHAR
STARTCHAR sevensuperior
ENCODING 8311
SWIDTH 364 0
DWIDTH 3 0
BBX 4 5 0 2
BITMAP
89C1
1070
0260
0710
0900
ENDCHAR
STARTCHAR eightsuperior
ENCODING 8312
SWIDTH 374 0
DWIDTH 3 0
BBX 4 5 0 2
BITMAP
6570
9380
2E70
92C1
6580
ENDCHAR
STARTCHAR ninesuperior
ENCODING 8313
SWIDTH 390 0
DWIDTH 4 0
BBX 4 5 0 2
BITMAP
4680
A082
9183
38B0
1440
ENDCHAR
STARTCHAR uni207A
ENCODING 8314
SWIDTH 536 0
DWIDTH 5 0
BBX 5 4 0 2
BITMAP
008000
48B830
008000
008000
ENDCHAR
STARTCHAR uni207B
ENCODING 8315
SWIDTH 536 0
DWIDTH 5 0
BBX 5 1 0 4
BITMAP
488830
ENDCHAR
STARTCHAR uni207C
ENCODING 8316
SWIDTH 534 0
DWIDTH 5 0
BBX 5 3 0 3
BITMAP
488830
000000
488830
ENDCHAR
STARTCHAR parenleftsuperior
ENCODING 8317
SWIDTH 268 0
DWIDTH 2 0
BBX 3 7 0 1
BITMAP
0210
2500
8000
9000
9000
4400
0410
ENDCHAR
STARTCHAR parenrightsuperior
ENCODING 8318
SWIDTH 268 0
DWIDTH 2 0
BBX 3 7 0 1
BITMAP
3000
2600
0810
0720
0810
0700
4100
ENDCHAR
STARTCHAR nsuperior
ENCODING 8319
SWIDTH 491 0
DWIDTH 4 0
BBX 5 4 0 2
BITMAP
698500
370A00
370A00
693C10
ENDCHAR
STARTCHAR zeroinferior
ENCODING 8320
SWIDTH 412 0
DWIDTH 4 0
BBX 4 5 0 -2
BITMAP
3680
9155
A046
9155
2780
ENDCHAR
STARTCHAR oneinferior
ENCODING 8321
SWIDTH 333 0
DWIDTH 3 0
BBX 3 5 0 -2
BITMAP
3C00
0A00
0A00
0A00
2D30
ENDCHAR
STARTCHAR twoinferior
ENCODING 8322
SWIDTH 373 0
DWIDTH 3 0
BBX 4 5 0 -2
BITMAP
4890
10B0
0180
0811
9AB1
ENDCHAR
STARTCHAR threeinferior
ENCODING 8323
SWIDTH 374 0
DWIDTH 3 0
BBX 3 5 0 -2
BITMAP
4980
0090
0960
00A0
6560
ENDCHAR
STARTCHAR fourinferior
ENCODING 8324
SWIDTH 403 0
DWIDTH 4 0
BBX 4 5 0 -2
BITMAP
01B0
06A0
52A0
99D4
00A0
ENDCHAR
STARTCHAR fiveinferior
ENCODING 8325
SWIDTH 358 0
DWIDTH 3 0
BBX 3 5 0 -2
BITMAP
3970
5000
6950
0090
6550
ENDCHAR
STARTCHAR sixinferior
ENCODING 8326
SWIDTH 390 0
DWIDTH 4 0
BBX 4 5 0 -2
BITMAP
0860
6600
A780
A173
4681
ENDCHAR
STARTCHAR seveninferior
ENCODING 8327
SWIDTH 364 0
DWIDTH 3 0
BBX 4 5 0 -2
BITMAP
89C1
1070
0260
0710
0900
ENDCHAR
STARTCHAR eightinferior
ENCODING 8328
SWIDTH 374 0
DWIDTH 3 0
BBX 4 5 0 -2
BITMAP
6570
9380
2E70
92C1
6580
ENDCHAR
STARTCHAR nineinferior
ENCODING 8329
SWIDTH 390 0
DWIDTH 4 0
BBX 4 5 0 -2
BITMAP
4680
A082
9183
38B0
1440
ENDCHAR
STARTCHAR uni208A
ENCODING 8330
SWIDTH 536 0
DWIDTH 5 0
BBX 5 4 0 -2
BITMAP
008000
48B830
008000
008000
ENDCHAR
STARTCHAR uni208B
ENCODING 8331
SWIDTH 536 0
DWIDTH 5 0
BBX 5 1 0 0
BITMAP
488830
ENDCHAR
STARTCHAR uni208C
ENCODING 8332
SWIDTH 534 0
DWIDTH 5 0
BBX 5 3 0 -1
BITMAP
488830
000000
488830
ENDCHAR
STARTCHAR parenleftinferior
ENCODING 8333
SWIDTH 268 0
DWIDTH 2 0
BBX 3 7 0 -3
BITMAP
0210
2500
8000
9000
9000
4400
0410
ENDCHAR
STARTCHAR parenrightinferior
ENCODING 8334
SWIDTH 268 0
DWIDTH 2 0
BBX 3 7 0 -3
BITMAP
3000
2600
0810
0720
0810
0700
4100
ENDCHAR
STARTCHAR uni20A3
ENCODING 8355
SWIDTH 495 0
DWIDTH 4 0
BBX 5 7 0 0
BITMAP
5A7920
0C0340
0C0020
5D7300
5D7300
0C0000
5E4000
ENDCHAR
STARTCHAR uni20A4
ENCODING 8356
SWIDTH 495 0
DWIDTH 4 0
BBX 5 7 0 0
BITMAP
027B00
080610
0B0000
4D7200
4C8200
5B2120
68C800
ENDCHAR
STARTCHAR uni20A7
ENCODING 8359
SWIDTH 1193 0
DWIDTH 11 0
BBX 11 7 0 0
BITMAP
3A6710100000
0C04A6200000
0C048B828840
0C6618249020
0C000820AB10
0C0008230770
3E5006967730
ENDCHAR
STARTCHAR uni20AB
ENCODING 8363
SWIDTH 495 0
DWIDTH 4 0
BBX 5 7 0 0
BITMAP
006800
038B10
289800
823800
833800
2A8800
266500
ENDCHAR
STARTCHAR Euro
ENCODING 8364
SWIDTH 495 0
DWIDTH 4 0
BBX 5 7 0 0
BITMAP
077930
290330
9A7200
760000
9A6100
3A0010
09B810
ENDCHAR
STARTCHAR uni20B9
ENCODING 8377
SWIDTH 495 0
DWIDTH 4 0
BBX 5 6 0 0
BITMAP
8FFF00
8FFF00
01A400
8F8000
04D400
005E60
ENDCHAR
STARTCHAR uni20BA
ENCODING 8378
SWIDTH 495 0
DWIDTH 4 0
BBX 5 7 0 0
BITMAP
5A3000
1C0000
1D7000
6C6000
6C1420
1B0930
5D7800
ENDCHAR
STARTCHAR uni20BD
ENCODING 8381
SWIDTH 495 0
DWIDTH 4 0
BBX 5 7 0 0
BITMAP
5A7600
0C0B30
0C0B20
5D7400
5D7200
0C0000
5E3000
ENDCHAR
STARTCHAR uni20D0
ENCODING 8400
SWIDTH 0 0
DWIDTH 0 0
BBX 5 2 -5 6
BITMAP
031000
1DDDB0
ENDCHAR
STARTCHAR uni20D1
ENCODING 8401
SWIDTH 0 0
DWIDTH 0 0
BBX 4 2 -4 6
BITMAP
0022
DDDB
ENDCHAR
STARTCHAR uni20D2
ENCODING 8402
SWIDTH 0 0
DWIDTH 0 0
BBX 2 9 -3 -2
BITMAP
42
42
42
42
42
42
42
42
21
ENDCHAR
STARTCHAR uni20D3
ENCODING 8403
SWIDTH 0 0
DWIDTH 0 0
BBX 2 6 -3 -1
BITMAP
42
42
42
42
42
42
ENDCHAR
STARTCHAR uni20D4
ENCODING 8404
SWIDTH 0 0
DWIDTH 0 0
BBX 5 3 -5 5
BITMAP
03DD30
282290
681050
ENDCHAR
STARTCHAR uni20D5
ENCODING 8405
SWIDTH 0 0
DWIDTH 0 0
BBX 5 3 -4 5
BITMAP
4EC200
A12720
401940
ENDCHAR
STARTCHAR uni20D6
ENCODING 8406
SWIDTH 0 0
DWIDTH 0 0
BBX 5 3 -5 5
BITMAP
031000
1EDDA0
031000
ENDCHAR
STARTCHAR uni20D7
ENCODING 8407
SWIDTH 0 0
DWIDTH 0 0
BBX 4 3 -4 5
BITMAP
0023
CDDC
0022
ENDCHAR
STARTCHAR uni20D8
ENCODING 8408
SWIDTH 0 0
DWIDTH 0 0
BBX 4 3 -4 1
BITMAP
2DC1
6574
2DC1
ENDCHAR
STARTCHAR uni20D9
ENCODING 8409
SWIDTH 0 0
DWIDTH 0 0
BBX 4 3 -4 1
BITMAP
2DB0
6586
2DC1
ENDCHAR
STARTCHAR uni20DA
ENCODING 8410
SWIDTH 0 0
DWIDTH 0 0
BBX 4 3 -4 1
BITMAP
2DC1
6586
2DB0
ENDCHAR
STARTCHAR uni20DB
ENCODING 8411
SWIDTH 0 0
DWIDTH 0 0
BBX 6 1 -5 5
BITMAP
466482
ENDCHAR
STARTCHAR uni20DC
ENCODING 8412
SWIDTH 0 0
DWIDTH 0 0
BBX 8 1 -6 5
BITMAP
27557391
ENDCHAR
STARTCHAR uni20DD
ENCODING 8413
SWIDTH 0 0
DWIDTH 0 0
BBX 10 9 -7 -2
BITMAP
003BEEA200
05C5116D30
1C100002B0
5500000082
6300000054
5500000072
1C100002B0
05C4115D30
003BEEA200
ENDCHAR
STARTCHAR uni20DE
ENCODING 8414
SWIDTH 0 0
DWIDTH 0 0
BBX 10 9 -7 -2
BITMAP
7DDDDDDDD5
8200000045
8200000045
8200000045
8200000045
8200000045
8200000045
8200000045
7DDDDDDDD5
ENDCHAR
STARTCHAR uni20DF
ENCODING 8415
SWIDTH 0 0
DWIDTH 0 0
BBX 12 11 -8 -3
BITMAP
000005400000
000058940000
000570094000
005700009400
057000000940
4900000000A2
093000000580
009300004800
000930048000
000093480000
000009800000
ENDCHAR
STARTCHAR uni20E1
ENCODING 8417
SWIDTH 0 0
DWIDTH 0 0
BBX 6 3 -5 5
BITMAP
040140
2EDDE1
040130
ENDCHAR
STARTCHAR uni20E4
ENCODING 8420
SWIDTH 0 0
DWIDTH 0 0
BBX 14 11 -9 -2
BITMAP
00000084000000
000003AB000000
00000A15700000
00005600A20000
0001B0002A0000
00083000075000
0029000000A100
00A10000003800
05500000000830
1A0000000001A0
7EDDDDDDDDDDE5
ENDCHAR
STARTCHAR uni20E5
ENCODING 8421
SWIDTH 0 0
DWIDTH 0 0
BBX 4 8 -4 -1
BITMAP
4000
7100
1700
0800
0340
0080
0062
0017
ENDCHAR
STARTCHAR uni20E6
ENCODING 8422
SWIDTH 0 0
DWIDTH 0 0
BBX 3 8 -4 -1
BITMAP
1230
2570
2570
2570
2570
2570
2570
2570
ENDCHAR
STARTCHAR uni20E7
ENCODING 8423
SWIDTH 0 0
DWIDTH 0 0
BBX 8 9 -6 -2
BITMAP
9DDDDDDC
00000009
00000009
00000009
00000009
00000009
00000009
00000009
00000004
ENDCHAR
STARTCHAR uni20E8
ENCODING 8424
SWIDTH 0 0
DWIDTH 0 0
BBX 6 1 -5 -2
BITMAP
466482
ENDCHAR
STARTCHAR uni20E9
ENCODING 8425
SWIDTH 0 0
DWIDTH 0 0
BBX 6 2 -5 5
BITMAP
7DDDD5
600014
ENDCHAR
STARTCHAR uni20EA
ENCODING 8426
SWIDTH 0 0
DWIDTH 0 0
BBX 8 3 -6 1
BITMAP
06000000
9FDDDDD3
06000000
ENDCHAR
STARTCHAR uni20EB
ENCODING 8427
SWIDTH 0 0
DWIDTH 0 0
BBX 6 9 -5 -2
BITMAP
000717
000734
005270
008160
025610
070700
174300
627000
726000
ENDCHAR
STARTCHAR uni20EC
ENCODING 8428
SWIDTH 0 0
DWIDTH 0 0
BBX 4 2 -4 -3
BITMAP
DDDC
0022
ENDCHAR
STARTCHAR uni20ED
ENCODING 8429
SWIDTH 0 0
DWIDTH 0 0
BBX 5 2 -5 -3
BITMAP
1DDDB0
031000
ENDCHAR
STARTCHAR uni20EE
ENCODING 8430
SWIDTH 0 0
DWIDTH 0 0
BBX 5 3 -5 -3
BITMAP
031000
1EDDA0
031000
ENDCHAR
STARTCHAR uni20EF
ENCODING 8431
SWIDTH 0 0
DWIDTH 0 0
BBX 4 3 -4 -3
BITMAP
0022
CDDC
0023
ENDCHAR
STARTCHAR uni20F0
ENCODING 8432
SWIDTH 0 0
DWIDTH 0 0
BBX 4 3 -4 5
BITMAP
1541
1A91
1541
ENDCHAR
STARTCHAR uni2100
ENCODING 8448
SWIDTH 939 0
DWIDTH 8 0
BBX 9 7 0 0
BITMAP
0000004000
4EB0034000
24B0070000
63A054DC00
6EC7693610
0007093110
003403EB00
ENDCHAR
STARTCHAR uni2101
ENCODING 8449
SWIDTH 936 0
DWIDTH 8 0
BBX 8 7 0 0
BITMAP
00000040
4EB00340
24B00700
63A055EA
6EC76231
00070005
003405DC
ENDCHAR
STARTCHAR uni2102
ENCODING 8450
SWIDTH 695 0
DWIDTH 6 0
BBX 6 6 0 0
BITMAP
05DEB1
4D2037
760000
760000
3D2137
05DEA1
ENDCHAR
STARTCHAR uni2103
ENCODING 8451
SWIDTH 1028 0
DWIDTH 9 0
BBX 9 8 0 0
BITMAP
1860000000
7162297BB0
7162C10080
1863B00020
0005900000
0003B00000
0000D20030
00003B9820
ENDCHAR
STARTCHAR uni2104
ENCODING 8452
SWIDTH 646 0
DWIDTH 6 0
BBX 6 7 0 0
BITMAP
079200
049000
3BB700
B69100
9A9301
08B106
078684
ENDCHAR
STARTCHAR uni2105
ENCODING 8453
SWIDTH 953 0
DWIDTH 9 0
BBX 9 7 0 0
BITMAP
0000022000
2DD1070000
8340430000
930177E900
3EC62B1A20
00161B1A20
007008E900
ENDCHAR
STARTCHAR uni2106
ENCODING 8454
SWIDTH 1072 0
DWIDTH 10 0
BBX 10 7 0 0
BITMAP
0000003000
2DD1061000
8351250000
8311725160
3DB430A0A0
000700B1A0
006100CBA3
ENDCHAR
STARTCHAR uni2107
ENCODING 8455
SWIDTH 612 0
DWIDTH 6 0
BBX 6 7 0 0
BITMAP
001000
2DEC80
5B1080
1BF900
991000
9911B1
1BED60
ENDCHAR
STARTCHAR uni2108
ENCODING 8456
SWIDTH 669 0
DWIDTH 6 0
BBX 6 7 0 0
BITMAP
001000
69CD80
620095
00AEE8
006078
3214E3
1AED60
ENDCHAR
STARTCHAR uni2109
ENCODING 8457
SWIDTH 949 0
DWIDTH 9 0
BBX 9 8 0 0
BITMAP
1860000000
7164C97960
7162840040
1860840500
0000898800
0000840200
0000840000
0002C91000
ENDCHAR
STARTCHAR uni210A
ENCODING 8458
SWIDTH 657 0
DWIDTH 6 0
BBX 7 7 -1 -2
BITMAP
0004EB10
00291B00
01C32910
18939A30
109C7600
0653D100
05ED4000
ENDCHAR
STARTCHAR uni210B
ENCODING 8459
SWIDTH 951 0
DWIDTH 9 0
BBX 9 7 0 0
BITMAP
0249701BB0
0909307230
090B108000
000D685000
0038083000
3072092100
7520047200
ENDCHAR
STARTCHAR uni210C
ENCODING 8460
SWIDTH 728 0
DWIDTH 7 0
BBX 7 9 0 -2
BITMAP
00322000
03AE6000
0A115000
0995AA00
02D20E10
18910D10
37303900
03E97000
03150000
ENDCHAR
STARTCHAR uni210D
ENCODING 8461
SWIDTH 715 0
DWIDTH 6 0
BBX 6 6 0 0
BITMAP
5D209B
542066
54DDA6
542066
542066
5D209B
ENDCHAR
STARTCHAR uni210E
ENCODING 8462
SWIDTH 569 0
DWIDTH 5 0
BBX 5 7 0 0
BITMAP
063000
064000
093D60
0A9560
1D1730
470A30
630C60
ENDCHAR
STARTCHAR uni210F
ENCODING 8463
SWIDTH 569 0
DWIDTH 5 0
BBX 5 7 0 0
BITMAP
063000
189400
3B4D60
0B9560
2D1730
570A30
630C60
ENDCHAR
STARTCHAR uni2110
ENCODING 8464
SWIDTH 496 0
DWIDTH 4 0
BBX 5 6 0 0
BITMAP
04CE40
1B2A00
140A00
003800
51A200
AE5000
ENDCHAR
STARTCHAR uni2111
ENCODING 8465
SWIDTH 673 0
DWIDTH 6 0
BBX 6 6 0 -1
BITMAP
0AFFE5
3703E5
1D7590
0000C1
5E81C4
04DEA0
ENDCHAR
STARTCHAR uni2112
ENCODING 8466
SWIDTH 699 0
DWIDTH 6 0
BBX 6 6 0 0
BITMAP
003DD1
00C292
03A000
073001
4A6135
407EC1
ENDCHAR
STARTCHAR uni2113
ENCODING 8467
SWIDTH 529 0
DWIDTH 5 0
BBX 5 6 0 0
BITMAP
004E60
01C240
093100
480000
465300
2E7000
ENDCHAR
STARTCHAR uni2114
ENCODING 8468
SWIDTH 787 0
DWIDTH 7 0
BBX 7 7 0 0
BITMAP
35260000
CFFFF600
1A0B9E30
1A0C26A0
1A0B01B0
1A0C0580
AE57EB10
ENDCHAR
STARTCHAR uni2115
ENCODING 8469
SWIDTH 692 0
DWIDTH 6 0
BBX 6 6 0 0
BITMAP
5D3005
65A106
655906
608476
600A47
5001C8
ENDCHAR
STARTCHAR uni2116
ENCODING 8470
SWIDTH 1070 0
DWIDTH 10 0
BBX 10 7 0 0
BITMAP
0DC0018600
02E5061300
026C071CC1
0247675665
0240B85664
14204B1BB0
9500062771
ENDCHAR
STARTCHAR uni2117
ENCODING 8471
SWIDTH 781 0
DWIDTH 7 0
BBX 7 7 0 0
BITMAP
03CFC300
1A303A10
51EF9150
5073C050
517F8150
1AFA3A10
03CFC300
ENDCHAR
STARTCHAR uni2118
ENCODING 8472
SWIDTH 846 0
DWIDTH 8 0
BBX 8 7 0 -2
BITMAP
07CBAED1
5A3D8195
57C400A3
0AA294C0
0B47DC20
2A840000
0EA00000
ENDCHAR
STARTCHAR uni2119
ENCODING 8473
SWIDTH 665 0
DWIDTH 6 0
BBX 6 6 0 0
BITMAP
5DDDA1
542087
542087
54DDA1
542000
5D2000
ENDCHAR
STARTCHAR uni211A
ENCODING 8474
SWIDTH 751 0
DWIDTH 7 0
BBX 7 7 0 -1
BITMAP
05DFC300
3D215D00
87002840
66002550
38002910
031E5600
00004E40
ENDCHAR
STARTCHAR uni211B
ENCODING 8475
SWIDTH 789 0
DWIDTH 7 0
BBX 7 8 0 0
BITMAP
00011000
018EEB10
0A5B2B60
0A0B0830
001C5400
0045C000
30809820
85103910
ENDCHAR
STARTCHAR uni211C
ENCODING 8476
SWIDTH 778 0
DWIDTH 7 0
BBX 7 7 0 -1
BITMAP
4EB3E700
85B84D00
2B784800
0A79C300
11838800
1A806C20
26201700
ENDCHAR
STARTCHAR uni211D
ENCODING 8477
SWIDTH 729 0
DWIDTH 7 0
BBX 7 6 0 0
BITMAP
5DDDB200
54208800
54208700
54EDB000
54286200
5D21BC10
ENDCHAR
STARTCHAR uni211E
ENCODING 8478
SWIDTH 725 0
DWIDTH 7 0
BBX 7 7 0 -1
BITMAP
4D795000
0D00E000
0D05C000
0DFC1000
0D189400
9EB49E10
00020000
ENDCHAR
STARTCHAR uni211F
ENCODING 8479
SWIDTH 659 0
DWIDTH 6 0
BBX 6 10 0 -2
BITMAP
004600
8EED20
0D18C0
0C35B0
0CBB10
0C6D40
0D25D2
8ED0BD
063000
047000
ENDCHAR
STARTCHAR uni2120
ENCODING 8480
SWIDTH 937 0
DWIDTH 8 0
BBX 9 4 0 2
BITMAP
6D8AA04E10
3013C27900
10535A5900
8DAA987E10
ENDCHAR
STARTCHAR uni2121
ENCODING 8481
SWIDTH 1200 0
DWIDTH 11 0
BBX 11 4 0 2
BITMAP
BED9EDD7E200
072090509000
072093619150
0E92EEE7EE60
ENDCHAR
STARTCHAR trademark
ENCODING 8482
SWIDTH 881 0
DWIDTH 8 0
BBX 8 3 0 2
BITMAP
4935B095
09027B74
1E6898AA
ENDCHAR
STARTCHAR uni2123
ENCODING 8483
SWIDTH 680 0
DWIDTH 6 0
BBX 8 10 -1 -2
BITMAP
00036000
1FF55CF3
06C06370
00D35710
007C1700
001D4300
005BA000
00635000
00630000
00470000
ENDCHAR
STARTCHAR uni2124
ENCODING 8484
SWIDTH 648 0
DWIDTH 6 0
BBX 6 6 0 0
BITMAP
6DDDDA
000653
006540
054500
545000
CEDDD8
ENDCHAR
STARTCHAR uni2125
ENCODING 8485
SWIDTH 434 0
DWIDTH 4 0
BBX 4 8 0 -2
BITMAP
9FF5
3340
4FF5
0460
0483
0048
31A6
7E90
ENDCHAR
STARTCHAR uni2126
ENCODING 8486
SWIDTH 763 0
DWIDTH 7 0
BBX 7 6 0 0
BITMAP
06DFC400
3E415E20
79000B50
4C000D20
25708420
ACB0CC80
ENDCHAR
STARTCHAR uni2127
ENCODING 8487
SWIDTH 763 0
DWIDTH 7 0
BBX 7 6 0 0
BITMAP
ADC0ED80
24709320
3B001D20
79000B50
4E415E20
06DFC400
ENDCHAR
STARTCHAR uni2128
ENCODING 8488
SWIDTH 641 0
DWIDTH 6 0
BBX 6 8 0 -2
BITMAP
04DE70
0712E2
0032C0
009F50
0242D2
0000A5
5E61C3
05EE70
ENDCHAR
STARTCHAR uni2129
ENCODING 8489
SWIDTH 368 0
DWIDTH 3 0
BBX 3 5 0 0
BITMAP
5E40
3A80
0980
0980
0980
ENDCHAR
STARTCHAR uni212A
ENCODING 8490
SWIDTH 702 0
DWIDTH 6 0
BBX 7 7 0 0
BITMAP
4E62E600
0C054000
0C350000
0CC10000
0C4C1000
0C06A000
4E62EA10
ENDCHAR
STARTCHAR uni212B
ENCODING 8491
SWIDTH 722 0
DWIDTH 7 0
BBX 7 8 0 0
BITMAP
007C0000
00661000
004A0000
007A2000
0344A000
0ADDF200
38008A00
DD00DE60
ENDCHAR
STARTCHAR uni212C
ENCODING 8492
SWIDTH 754 0
DWIDTH 7 0
BBX 7 7 0 0
BITMAP
00021000
06DFFE30
2A2B2710
002FFB00
00641C20
02502A00
7EDD9100
ENDCHAR
STARTCHAR uni212D
ENCODING 8493
SWIDTH 639 0
DWIDTH 6 0
BBX 6 6 0 0
BITMAP
097AA2
686410
952A00
870A30
3E9D80
07ED30
ENDCHAR
STARTCHAR estimated
ENCODING 8494
SWIDTH 863 0
DWIDTH 8 0
BBX 8 7 0 0
BITMAP
02AEE800
1C511680
7A0000D2
AFFFFFF6
8A000000
1B411560
02AEE800
ENDCHAR
STARTCHAR uni212F
ENCODING 8495
SWIDTH 527 0
DWIDTH 5 0
BBX 5 5 0 0
BITMAP
02BD00
0B5700
2B1100
891810
0CD400
ENDCHAR
STARTCHAR uni2130
ENCODING 8496
SWIDTH 572 0
DWIDTH 5 0
BBX 5 6 0 0
BITMAP
04DFB0
077060
06EB00
781000
A61640
3DEA10
ENDCHAR
STARTCHAR uni2131
ENCODING 8497
SWIDTH 713 0
DWIDTH 6 0
BBX 7 8 0 0
BITMAP
00002010
01AED440
0B569C60
0B083000
004C6200
000B0000
30530000
75300000
ENDCHAR
STARTCHAR uni2132
ENCODING 8498
SWIDTH 588 0
DWIDTH 5 0
BBX 5 7 0 0
BITMAP
003960
000B20
000B10
1EDF10
150B10
500B20
766960
ENDCHAR
STARTCHAR uni2133
ENCODING 8499
SWIDTH 1038 0
DWIDTH 9 0
BBX 10 6 0 0
BITMAP
06DA0008D8
023D40AD22
0066884B00
0072B83800
5372F16720
DC12906D30
ENDCHAR
STARTCHAR uni2134
ENCODING 8500
SWIDTH 691 0
DWIDTH 6 0
BBX 8 5 -1 0
BITMAP
0005E700
003B2E33
02E50DC1
3AB63D00
004EC300
ENDCHAR
STARTCHAR uni2135
ENCODING 8501
SWIDTH 698 0
DWIDTH 6 0
BBX 6 6 0 0
BITMAP
8300A1
3D507A
29D762
681CA0
0B21A8
6E4008
ENDCHAR
STARTCHAR uni2136
ENCODING 8502
SWIDTH 654 0
DWIDTH 6 0
BBX 6 7 0 -1
BITMAP
2EEE70
0001C0
000090
000070
000050
3CEED2
100000
ENDCHAR
STARTCHAR uni2137
ENCODING 8503
SWIDTH 517 0
DWIDTH 5 0
BBX 5 6 0 0
BITMAP
09F500
003600
001500
003600
008D10
4E4630
ENDCHAR
STARTCHAR uni2138
ENCODING 8504
SWIDTH 613 0
DWIDTH 6 0
BBX 5 7 0 0
BITMAP
310000
5FFF60
000530
000B00
000C20
000B40
000600
ENDCHAR
STARTCHAR uni2139
ENCODING 8505
SWIDTH 361 0
DWIDTH 3 0
BBX 4 7 0 0
BITMAP
1B30
2E40
6A40
3F60
2F60
3F70
CEE1
ENDCHAR
STARTCHAR uni213A
ENCODING 8506
SWIDTH 907 0
DWIDTH 8 0
BBX 8 6 0 0
BITMAP
06DFC305
3A31293A
700000E7
70000070
39213930
05DFD500
ENDCHAR
STARTCHAR uni213B
ENCODING 8507
SWIDTH 1216 0
DWIDTH 11 0
BBX 11 4 0 2
BITMAP
AED6570CA8B0
37507A12B810
3715EE723810
9E0D46EE5BC0
ENDCHAR
STARTCHAR uni213C
ENCODING 8508
SWIDTH 689 0
DWIDTH 6 0
BBX 6 5 0 0
BITMAP
CFFFF9
066660
066660
066775
0E67E6
ENDCHAR
STARTCHAR uni213D
ENCODING 8509
SWIDTH 552 0
DWIDTH 5 0
BBX 5 7 0 -2
BITMAP
660050
565520
077600
017600
01A600
038A00
01C800
ENDCHAR
STARTCHAR uni213E
ENCODING 8510
SWIDTH 550 0
DWIDTH 5 0
BBX 5 6 0 0
BITMAP
5DDDC0
542000
542000
542000
542000
5D2000
ENDCHAR
STARTCHAR uni213F
ENCODING 8511
SWIDTH 714 0
DWIDTH 6 0
BBX 6 6 0 0
BITMAP
5DDDEB
542066
542066
542066
542066
5D209B
ENDCHAR
STARTCHAR uni2140
ENCODING 8512
SWIDTH 945 0
DWIDTH 9 0
BBX 9 10 0 -3
BITMAP
6DEDDDD100
2837000000
0637200000
0091900000
0036450000
0026450000
0091900000
0638200000
2736000000
6DEDDDDD20
ENDCHAR
STARTCHAR uni2141
ENCODING 8513
SWIDTH 711 0
DWIDTH 6 0
BBX 7 7 0 0
BITMAP
1AEE9000
6912A900
66000D10
6F500B20
00000C00
38129800
08EE8000
ENDCHAR
STARTCHAR uni2142
ENCODING 8514
SWIDTH 572 0
DWIDTH 5 0
BBX 5 7 0 -1
BITMAP
BDDD70
000570
000570
000570
000570
000570
000230
ENDCHAR
STARTCHAR uni2143
ENCODING 8515
SWIDTH 572 0
DWIDTH 5 0
BBX 5 6 0 0
BITMAP
000570
000570
000570
000570
000570
BDDD70
ENDCHAR
STARTCHAR uni2144
ENCODING 8516
SWIDTH 645 0
DWIDTH 6 0
BBX 6 6 0 0
BITMAP
008400
008400
008500
02BB10
0B2590
760094
ENDCHAR
STARTCHAR uni2145
ENCODING 8517
SWIDTH 717 0
DWIDTH 6 0
BBX 7 6 0 0
BITMAP
0AEDC300
07602D00
26505810
56108500
57019300
BEDC5000
ENDCHAR
STARTCHAR uni2146
ENCODING 8518
SWIDTH 607 0
DWIDTH 5 0
BBX 6 7 0 0
BITMAP
0000D9
000175
1BEA63
7A2A61
660670
864780
4EAF70
ENDCHAR
STARTCHAR uni2147
ENCODING 8519
SWIDTH 520 0
DWIDTH 5 0
BBX 5 5 0 0
BITMAP
09E900
681730
7BFF40
871600
3DE500
ENDCHAR
STARTCHAR uni2148
ENCODING 8520
SWIDTH 285 0
DWIDTH 3 0
BBX 3 7 0 0
BITMAP
0A90
0C70
0000
3E30
6610
5700
B800
ENDCHAR
STARTCHAR uni2149
ENCODING 8521
SWIDTH 284 0
DWIDTH 3 0
BBX 5 8 -2 -2
BITMAP
000C90
000000
003F30
007600
009400
00A400
028400
4E3000
ENDCHAR
STARTCHAR uni214A
ENCODING 8522
SWIDTH 680 0
DWIDTH 6 0
BBX 6 7 0 0
BITMAP
005000
009000
8DEDB2
809047
00EDC2
009000
00DDD2
ENDCHAR
STARTCHAR uni214B
ENCODING 8523
SWIDTH 736 0
DWIDTH 7 0
BBX 7 6 0 0
BITMAP
4E75ED30
21A91850
06377500
6F9AE100
00558300
002EC100
ENDCHAR
STARTCHAR uni214C
ENCODING 8524
SWIDTH 794 0
DWIDTH 7 0
BBX 7 6 0 0
BITMAP
7E77EE50
38FD25B0
38966A30
05FE8600
02960210
00D70000
ENDCHAR
STARTCHAR uni214D
ENCODING 8525
SWIDTH 1010 0
DWIDTH 9 0
BBX 9 7 0 0
BITMAP
0000002200
0480007000
0691043000
4FF8077D60
D56E714000
0001601040
0007009E90
ENDCHAR
STARTCHAR uni214E
ENCODING 8526
SWIDTH 473 0
DWIDTH 4 0
BBX 4 5 0 0
BITMAP
0066
0066
3DE6
0066
7DE5
ENDCHAR
STARTCHAR uni214F
ENCODING 8527
SWIDTH 1161 0
DWIDTH 10 0
BBX 11 4 0 0
BITMAP
07E3AD1CB000
084686479000
053254155000
CC8EC9EB9E40
ENDCHAR
STARTCHAR onethird
ENCODING 8531
SWIDTH 899 0
DWIDTH 8 0
BBX 8 7 0 0
BITMAP
3B000700
0A004300
0A007493
0A052336
040601A3
0061000A
01600855
ENDCHAR
STARTCHAR twothirds
ENCODING 8532
SWIDTH 948 0
DWIDTH 9 0
BBX 9 7 0 0
BITMAP
48A0043000
00A0070000
0531538800
7AB1610900
0006106800
0016000920
0070047700
ENDCHAR
STARTCHAR uni2155
ENCODING 8533
SWIDTH 867 0
DWIDTH 8 0
BBX 8 7 0 0
BITMAP
3B000700
0A004300
0A0077A3
0A052500
39360991
00610026
01601862
ENDCHAR
STARTCHAR uni2156
ENCODING 8534
SWIDTH 916 0
DWIDTH 8 0
BBX 8 7 0 0
BITMAP
48A00430
00A00700
033154A7
5AB16500
000615A5
00160008
00700665
ENDCHAR
STARTCHAR uni2157
ENCODING 8535
SWIDTH 896 0
DWIDTH 8 0
BBX 8 7 0 0
BITMAP
39800610
02702500
078074A5
10A34500
653707A3
00430008
00700764
ENDCHAR
STARTCHAR uni2158
ENCODING 8536
SWIDTH 929 0
DWIDTH 8 0
BBX 8 7 0 0
BITMAP
03A00430
25900700
8AD353B9
00907320
003614A6
00160008
00610566
ENDCHAR
STARTCHAR uni2159
ENCODING 8537
SWIDTH 871 0
DWIDTH 8 0
BBX 8 7 0 0
BITMAP
3B000700
0A004300
0A007021
0A052940
38363B82
00614728
01600864
ENDCHAR
STARTCHAR uni215A
ENCODING 8538
SWIDTH 871 0
DWIDTH 8 0
BBX 8 7 0 0
BITMAP
4A700700
6B404300
00907161
20652B20
54273A82
00614728
01600864
ENDCHAR
STARTCHAR oneeighth
ENCODING 8539
SWIDTH 887 0
DWIDTH 8 0
BBX 8 7 0 0
BITMAP
3B000700
0A004300
0A007561
0A052917
28360A72
00610786
01601846
ENDCHAR
STARTCHAR threeeighths
ENCODING 8540
SWIDTH 911 0
DWIDTH 8 0
BBX 8 7 0 0
BITMAP
39800610
02702500
07807453
10A34908
65370784
00430679
00700847
ENDCHAR
STARTCHAR fiveeighths
ENCODING 8541
SWIDTH 891 0
DWIDTH 8 0
BBX 8 7 0 0
BITMAP
4A700700
6B404300
00907562
10752917
66270973
00610787
01600846
ENDCHAR
STARTCHAR seveneighths
ENCODING 8542
SWIDTH 847 0
DWIDTH 8 0
BBX 8 7 0 0
BITMAP
9AB03400
11607000
07144650
18077380
11521C70
016067C2
06105571
ENDCHAR
STARTCHAR uni2190
ENCODING 8592
SWIDTH 948 0
DWIDTH 9 0
BBX 8 5 0 0
BITMAP
00200000
02500000
2EEDDDDC
03500000
00200000
ENDCHAR
STARTCHAR uni2191
ENCODING 8593
SWIDTH 523 0
DWIDTH 5 0
BBX 4 8 0 -1
BITMAP
0030
05E1
24A5
0090
0090
0090
0090
0090
ENDCHAR
STARTCHAR uni2192
ENCODING 8594
SWIDTH 948 0
DWIDTH 9 0
BBX 8 5 0 0
BITMAP
00000200
00000160
5DDDDDF9
00000160
00000200
ENDCHAR
STARTCHAR uni2193
ENCODING 8595
SWIDTH 523 0
DWIDTH 5 0
BBX 4 8 0 -1
BITMAP
0050
0090
0090
0090
0090
2091
17D5
01A0
ENDCHAR
STARTCHAR uni2194
ENCODING 8596
SWIDTH 948 0
DWIDTH 9 0
BBX 9 5 0 0
BITMAP
0020011000
0520006100
6FDDDDED10
0520006200
0020011000
ENDCHAR
STARTCHAR uni2195
ENCODING 8597
SWIDTH 523 0
DWIDTH 5 0
BBX 4 9 0 -2
BITMAP
0190
07D5
2092
0090
0090
0090
2092
07D5
01A0
ENDCHAR
STARTCHAR uni2196
ENCODING 8598
SWIDTH 948 0
DWIDTH 9 0
BBX 8 9 0 -2
BITMAP
12000000
3FF60000
1D500000
04740000
00084000
00008400
00000930
00000093
00000005
ENDCHAR
STARTCHAR uni2197
ENCODING 8599
SWIDTH 948 0
DWIDTH 9 0
BBX 8 9 0 -2
BITMAP
00000013
00000DFB
000000A8
00000924
00009300
00093000
00930000
09400000
24000000
ENDCHAR
STARTCHAR uni2198
ENCODING 8600
SWIDTH 948 0
DWIDTH 9 0
BBX 8 8 0 -2
BITMAP
29000000
02800000
00270000
00015000
00001402
00000135
00000DFA
00000013
ENDCHAR
STARTCHAR uni2199
ENCODING 8601
SWIDTH 948 0
DWIDTH 9 0
BBX 8 9 0 -2
BITMAP
00000001
00000047
00000370
00002600
00024000
02130000
16200000
2FF60000
12000000
ENDCHAR
STARTCHAR uni219A
ENCODING 8602
SWIDTH 948 0
DWIDTH 9 0
BBX 8 5 0 0
BITMAP
00100110
02500710
3EA9AB99
03508000
00112000
ENDCHAR
STARTCHAR uni219B
ENCODING 8603
SWIDTH 948 0
DWIDTH 9 0
BBX 8 5 0 0
BITMAP
00002100
00044160
49AC99DA
00710160
00200100
ENDCHAR
STARTCHAR uni219C
ENCODING 8604
SWIDTH 948 0
DWIDTH 9 0
BBX 8 4 0 1
BITMAP
10120000
2F810000
079EB314
03000000
ENDCHAR
STARTCHAR uni219D
ENCODING 8605
SWIDTH 948 0
DWIDTH 9 0
BBX 8 4 0 1
BITMAP
00000201
000003DA
2617ED55
00000012
ENDCHAR
STARTCHAR uni219E
ENCODING 8606
SWIDTH 948 0
DWIDTH 9 0
BBX 8 5 0 0
BITMAP
00202000
02544000
2EEFDDDC
03544000
00202000
ENDCHAR
STARTCHAR uni219F
ENCODING 8607
SWIDTH 523 0
DWIDTH 5 0
BBX 4 8 0 -1
BITMAP
0030
05E2
24A5
05E2
23A5
0090
0090
0090
ENDCHAR
STARTCHAR uni21A0
ENCODING 8608
SWIDTH 948 0
DWIDTH 9 0
BBX 8 5 0 0
BITMAP
00020200
00007260
5DDDEEF9
00007160
00020200
ENDCHAR
STARTCHAR uni21A1
ENCODING 8609
SWIDTH 523 0
DWIDTH 5 0
BBX 4 8 0 -1
BITMAP
0050
0090
0090
1091
17C5
21B2
07C5
0190
ENDCHAR
STARTCHAR uni21A2
ENCODING 8610
SWIDTH 948 0
DWIDTH 9 0
BBX 8 5 0 0
BITMAP
00200002
02500054
2EEDDDD0
03500054
00200002
ENDCHAR
STARTCHAR uni21A3
ENCODING 8611
SWIDTH 948 0
DWIDTH 9 0
BBX 8 5 0 0
BITMAP
10000200
07100160
06EDDDF9
07100160
20000200
ENDCHAR
STARTCHAR uni21A4
ENCODING 8612
SWIDTH 948 0
DWIDTH 9 0
BBX 8 4 0 0
BITMAP
01500007
2EEDDDDD
03500007
00200003
ENDCHAR
STARTCHAR uni21A5
ENCODING 8613
SWIDTH 523 0
DWIDTH 5 0
BBX 5 8 0 -2
BITMAP
004000
06E200
239500
009000
009000
009000
009000
6DED20
ENDCHAR
STARTCHAR uni21A6
ENCODING 8614
SWIDTH 948 0
DWIDTH 9 0
BBX 8 4 0 0
BITMAP
52000240
5DDDDDF8
52000160
21000200
ENDCHAR
STARTCHAR uni21A7
ENCODING 8615
SWIDTH 523 0
DWIDTH 5 0
BBX 5 8 0 -2
BITMAP
6DED20
009000
009000
009000
009000
209200
07D500
018000
ENDCHAR
STARTCHAR uni21A8
ENCODING 8616
SWIDTH 523 0
DWIDTH 5 0
BBX 5 8 0 -2
BITMAP
006000
07E400
229300
009000
009000
26B600
03C000
378710
ENDCHAR
STARTCHAR uni21A9
ENCODING 8617
SWIDTH 948 0
DWIDTH 9 0
BBX 8 5 0 0
BITMAP
000006D6
0030001A
2DEDDDD6
03500000
00200000
ENDCHAR
STARTCHAR uni21AA
ENCODING 8618
SWIDTH 948 0
DWIDTH 9 0
BBX 8 5 0 0
BITMAP
1BD00000
46000120
1BDDDDE8
00000160
00000200
ENDCHAR
STARTCHAR uni21AB
ENCODING 8619
SWIDTH 948 0
DWIDTH 9 0
BBX 8 5 0 0
BITMAP
000009D6
0030191A
2DEDDED6
03502700
00202700
ENDCHAR
STARTCHAR uni21AC
ENCODING 8620
SWIDTH 948 0
DWIDTH 9 0
BBX 8 5 0 0
BITMAP
1BD30000
46190120
1BDEDDE8
00090160
00080200
ENDCHAR
STARTCHAR uni21AD
ENCODING 8621
SWIDTH 1229 0
DWIDTH 11 0
BBX 11 5 0 0
BITMAP
002000002000
05302D302500
4FF78496FF50
0539908A2500
002000002000
ENDCHAR
STARTCHAR uni21AE
ENCODING 8622
SWIDTH 948 0
DWIDTH 9 0
BBX 9 5 0 0
BITMAP
0010110000
0430716100
5E9AC9BC10
0436206100
0012001000
ENDCHAR
STARTCHAR uni21AF
ENCODING 8623
SWIDTH 523 0
DWIDTH 5 0
BBX 4 8 0 -2
BITMAP
001A
0093
0660
2DDC
1064
4290
3D31
3831
ENDCHAR
STARTCHAR uni21B0
ENCODING 8624
SWIDTH 474 0
DWIDTH 4 0
BBX 4 9 0 -2
BITMAP
0010
0520
7FDC
0629
0019
0009
0009
0009
0004
ENDCHAR
STARTCHAR uni21B1
ENCODING 8625
SWIDTH 474 0
DWIDTH 4 0
BBX 4 9 0 -2
BITMAP
0100
0160
9DFA
9170
9100
9000
9000
9000
4000
ENDCHAR
STARTCHAR uni21B2
ENCODING 8626
SWIDTH 474 0
DWIDTH 4 0
BBX 4 9 0 -2
BITMAP
0001
0009
0009
0009
0019
0529
7FDC
0620
0010
ENDCHAR
STARTCHAR uni21B3
ENCODING 8627
SWIDTH 474 0
DWIDTH 4 0
BBX 4 9 0 -2
BITMAP
1000
9000
9000
9000
9100
9160
9DFA
0170
0100
ENDCHAR
STARTCHAR uni21B4
ENCODING 8628
SWIDTH 948 0
DWIDTH 9 0
BBX 8 8 0 -2
BITMAP
5DDDDD50
00000360
00000360
00000360
00000360
00002362
00001AB3
00000460
ENDCHAR
STARTCHAR uni21B5
ENCODING 8629
SWIDTH 948 0
DWIDTH 9 0
BBX 8 9 0 -2
BITMAP
00000001
00000009
00000009
00000009
00100009
02400009
2EEDDDDC
02500000
00200000
ENDCHAR
STARTCHAR uni21B6
ENCODING 8630
SWIDTH 948 0
DWIDTH 9 0
BBX 9 6 0 -1
BITMAP
0008EE7000
0088129600
00A0000A00
3685000610
08B0000000
0120000000
ENDCHAR
STARTCHAR uni21B7
ENCODING 8631
SWIDTH 948 0
DWIDTH 9 0
BBX 8 6 0 -1
BITMAP
02BFC300
1C514C10
65000380
510015A6
000003E1
00000030
ENDCHAR
STARTCHAR uni21B8
ENCODING 8632
SWIDTH 948 0
DWIDTH 9 0
BBX 8 9 0 -2
BITMAP
6DDDDDDC
5FF50000
2C300000
23840000
00084000
00008400
00000850
00000085
00000004
ENDCHAR
STARTCHAR uni21B9
ENCODING 8633
SWIDTH 948 0
DWIDTH 9 0
BBX 8 7 0 -2
BITMAP
70510000
7AEDDDDD
71610102
10010347
6DDDDDFB
00000357
00000203
ENDCHAR
STARTCHAR uni21BA
ENCODING 8634
SWIDTH 997 0
DWIDTH 9 0
BBX 7 8 1 -1
BITMAP
00000010
01319820
1A209A20
91002390
90000090
B10001B0
5B313C40
05CEC400
ENDCHAR
STARTCHAR uni21BB
ENCODING 8635
SWIDTH 997 0
DWIDTH 9 0
BBX 7 8 1 -1
BITMAP
10000000
28913100
2A802910
93200180
90000090
B10001B0
5B313C40
05CEC400
ENDCHAR
STARTCHAR uni21BC
ENCODING 8636
SWIDTH 978 0
DWIDTH 9 0
BBX 9 3 0 2
BITMAP
0022000000
0260000000
2CEDDDDD40
ENDCHAR
STARTCHAR uni21BD
ENCODING 8637
SWIDTH 978 0
DWIDTH 9 0
BBX 9 3 0 0
BITMAP
2CEDDDDD40
0260000000
0022000000
ENDCHAR
STARTCHAR uni21BE
ENCODING 8638
SWIDTH 523 0
DWIDTH 5 0
BBX 2 8 2 -1
BITMAP
20
B1
A5
90
90
90
90
90
ENDCHAR
STARTCHAR uni21BF
ENCODING 8639
SWIDTH 523 0
DWIDTH 5 0
BBX 3 8 0 -1
BITMAP
0020
0390
1490
0090
0090
0090
0090
0090
ENDCHAR
STARTCHAR uni21C0
ENCODING 8640
SWIDTH 978 0
DWIDTH 9 0
BBX 9 3 0 2
BITMAP
0000041000
0000007000
7DDDDDEA10
ENDCHAR
STARTCHAR uni21C1
ENCODING 8641
SWIDTH 978 0
DWIDTH 9 0
BBX 9 3 0 0
BITMAP
7DDDDDEB10
0000007100
0000041000
ENDCHAR
STARTCHAR uni21C2
ENCODING 8642
SWIDTH 523 0
DWIDTH 5 0
BBX 2 8 2 -2
BITMAP
90
90
90
90
90
A5
C1
20
ENDCHAR
STARTCHAR uni21C3
ENCODING 8643
SWIDTH 523 0
DWIDTH 5 0
BBX 3 8 0 -2
BITMAP
0090
0090
0090
0090
0090
1490
0390
0020
ENDCHAR
STARTCHAR uni21C4
ENCODING 8644
SWIDTH 948 0
DWIDTH 9 0
BBX 8 8 0 -2
BITMAP
00000100
00000160
3DDDDDF9
00100150
02500100
2EEDDDDA
02500000
00100000
ENDCHAR
STARTCHAR uni21C5
ENCODING 8645
SWIDTH 791 0
DWIDTH 7 0
BBX 7 8 0 -1
BITMAP
01202300
09B04500
46754500
04604500
04604500
04624520
0462AA30
04605600
ENDCHAR
STARTCHAR uni21C6
ENCODING 8646
SWIDTH 948 0
DWIDTH 9 0
BBX 8 8 0 -2
BITMAP
00100000
02500000
2EEDDDDA
02500100
00100160
3DDDDDF9
00000160
00000100
ENDCHAR
STARTCHAR uni21C7
ENCODING 8647
SWIDTH 948 0
DWIDTH 9 0
BBX 8 8 0 -2
BITMAP
00100000
02500000
2EEDDDDC
02500000
02500000
2EEDDDDC
02500000
00100000
ENDCHAR
STARTCHAR uni21C8
ENCODING 8648
SWIDTH 791 0
DWIDTH 7 0
BBX 7 8 0 -1
BITMAP
01201200
09B0AA00
36766640
04604500
04604500
04604500
04604500
04604500
ENDCHAR
STARTCHAR uni21C9
ENCODING 8649
SWIDTH 948 0
DWIDTH 9 0
BBX 8 8 0 -2
BITMAP
00000100
00000160
5DDDDDF9
00000250
00000250
5DDDDDF9
00000160
00000100
ENDCHAR
STARTCHAR uni21CA
ENCODING 8650
SWIDTH 791 0
DWIDTH 7 0
BBX 7 8 0 -1
BITMAP
02302300
04604500
04604500
04604500
04604500
14614510
29B5AA20
04605600
ENDCHAR
STARTCHAR uni21CB
ENCODING 8651
SWIDTH 948 0
DWIDTH 9 0
BBX 8 7 0 -1
BITMAP
00100000
01500000
1AEDDDDC
00000000
5DDDDDE5
00000140
00000100
ENDCHAR
STARTCHAR uni21CC
ENCODING 8652
SWIDTH 948 0
DWIDTH 9 0
BBX 8 7 0 -1
BITMAP
00000100
00000140
5DDDDDE4
00000000
1AEDDDDC
00500000
00100000
ENDCHAR
STARTCHAR uni21CD
ENCODING 8653
SWIDTH 948 0
DWIDTH 9 0
BBX 8 6 0 -1
BITMAP
00150043
03CDDDED
3B000350
05DEDEDD
00361700
00022100
ENDCHAR
STARTCHAR uni21CE
ENCODING 8654
SWIDTH 948 0
DWIDTH 9 0
BBX 9 7 0 -1
BITMAP
0000100000
0061753000
09EDEDD400
8600700C20
09EDEDD400
0065353000
0001000000
ENDCHAR
STARTCHAR uni21CF
ENCODING 8655
SWIDTH 948 0
DWIDTH 9 0
BBX 8 6 0 -1
BITMAP
00172400
6DEDDE81
0080003A
6EEDDEA1
07001700
03002000
ENDCHAR
STARTCHAR uni21D0
ENCODING 8656
SWIDTH 887 0
DWIDTH 8 0
BBX 8 7 0 -1
BITMAP
00020000
00360000
05DEDDDD
3B000000
05DEDDDD
00360000
00020000
ENDCHAR
STARTCHAR uni21D1
ENCODING 8657
SWIDTH 720 0
DWIDTH 6 0
BBX 6 8 0 -2
BITMAP
003900
019460
0992C4
209273
009270
009270
009270
004130
ENDCHAR
STARTCHAR uni21D2
ENCODING 8658
SWIDTH 887 0
DWIDTH 8 0
BBX 8 7 0 -1
BITMAP
00002000
00006300
DDDDED40
000000B3
DDDDED50
00006300
00002000
ENDCHAR
STARTCHAR uni21D3
ENCODING 8659
SWIDTH 720 0
DWIDTH 6 0
BBX 6 8 0 -1
BITMAP
004130
009270
009270
009270
109271
1792B5
029390
004B00
ENDCHAR
STARTCHAR uni21D4
ENCODING 8660
SWIDTH 948 0
DWIDTH 9 0
BBX 9 5 0 0
BITMAP
0061053000
09EDDDD400
8600000C20
09EDDDD400
0061053000
ENDCHAR
STARTCHAR uni21D5
ENCODING 8661
SWIDTH 720 0
DWIDTH 6 0
BBX 6 9 0 -2
BITMAP
002800
009650
0892D2
329274
009270
209273
0992C4
019370
004B00
ENDCHAR
STARTCHAR uni21D6
ENCODING 8662
SWIDTH 948 0
DWIDTH 9 0
BBX 8 9 0 -2
BITMAP
35320000
6BEFC000
44380000
2E337000
16B33800
021B2480
0001A249
00001A22
00000150
ENDCHAR
STARTCHAR uni21D7
ENCODING 8663
SWIDTH 948 0
DWIDTH 9 0
BBX 8 9 0 -2
BITMAP
00000135
0004EFBD
00002908
0002809B
00390966
03908602
39085000
10850000
01400000
ENDCHAR
STARTCHAR uni21D8
ENCODING 8664
SWIDTH 948 0
DWIDTH 9 0
BBX 8 8 0 -2
BITMAP
01A10000
451A1000
07619100
00561815
00047089
00003808
0005FFBC
00001246
ENDCHAR
STARTCHAR uni21D9
ENCODING 8665
SWIDTH 948 0
DWIDTH 9 0
BBX 8 9 0 -2
BITMAP
00000010
00000660
00006618
00056192
14551910
2B428000
35280000
6BEFC000
35320000
ENDCHAR
STARTCHAR uni21DA
ENCODING 8666
SWIDTH 872 0
DWIDTH 8 0
BBX 8 9 0 -2
BITMAP
00010000
00040000
009DDDDB
07200000
6FDDDDDB
08200000
009DDDDB
00040000
00020000
ENDCHAR
STARTCHAR uni21DB
ENCODING 8667
SWIDTH 872 0
DWIDTH 8 0
BBX 8 9 0 -2
BITMAP
00001000
00005000
DDDDD700
00000460
DDDDDDF3
00000460
DDDDD700
00005000
00001000
ENDCHAR
STARTCHAR uni21DC
ENCODING 8668
SWIDTH 948 0
DWIDTH 9 0
BBX 8 5 0 0
BITMAP
00200000
03404400
3FD9989D
04472270
00200000
ENDCHAR
STARTCHAR uni21DD
ENCODING 8669
SWIDTH 948 0
DWIDTH 9 0
BBX 8 5 0 0
BITMAP
00000200
00080060
6D777DEA
01808271
00000200
ENDCHAR
STARTCHAR uni21DE
ENCODING 8670
SWIDTH 523 0
DWIDTH 5 0
BBX 5 8 0 -2
BITMAP
004000
06E200
239400
009000
6DED20
6DED20
009000
008000
ENDCHAR
STARTCHAR uni21DF
ENCODING 8671
SWIDTH 523 0
DWIDTH 5 0
BBX 5 9 0 -2
BITMAP
001000
009000
009000
6DED20
6DED20
009000
239400
05E200
002000
ENDCHAR
STARTCHAR uni21E0
ENCODING 8672
SWIDTH 948 0
DWIDTH 9 0
BBX 8 5 0 0
BITMAP
00200000
03400000
3FD6C76D
04400000
00200000
ENDCHAR
STARTCHAR uni21E1
ENCODING 8673
SWIDTH 523 0
DWIDTH 5 0
BBX 4 8 0 -1
BITMAP
0030
06E3
2394
0000
0090
0090
0000
0090
ENDCHAR
STARTCHAR uni21E2
ENCODING 8674
SWIDTH 948 0
DWIDTH 9 0
BBX 8 5 0 0
BITMAP
00000200
00000060
67C68BEA
00000071
00000200
ENDCHAR
STARTCHAR uni21E3
ENCODING 8675
SWIDTH 523 0
DWIDTH 5 0
BBX 4 8 0 -2
BITMAP
0090
0090
0000
0090
0030
24A5
05E1
0030
ENDCHAR
STARTCHAR uni21E4
ENCODING 8676
SWIDTH 948 0
DWIDTH 9 0
BBX 8 4 0 0
BITMAP
70410000
7AEDDDDD
71700000
30020000
ENDCHAR
STARTCHAR uni21E5
ENCODING 8677
SWIDTH 948 0
DWIDTH 9 0
BBX 8 4 0 0
BITMAP
00000427
6DDDDDFA
00000347
00000203
ENDCHAR
STARTCHAR uni21E6
ENCODING 8678
SWIDTH 948 0
DWIDTH 9 0
BBX 8 7 0 -1
BITMAP
00021000
003B2000
0465DDDD
3A000007
0565DDDD
003B2000
00021000
ENDCHAR
STARTCHAR uni21E7
ENCODING 8679
SWIDTH 720 0
DWIDTH 6 0
BBX 6 8 0 -2
BITMAP
003900
006340
050042
4D70EB
007070
007070
007070
00DD70
ENDCHAR
STARTCHAR uni21E8
ENCODING 8680
SWIDTH 948 0
DWIDTH 9 0
BBX 8 7 0 -1
BITMAP
00003000
00008800
6DDDC181
7000003B
6DDDC181
00008800
00003000
ENDCHAR
STARTCHAR uni21E9
ENCODING 8681
SWIDTH 720 0
DWIDTH 6 0
BBX 6 8 0 -1
BITMAP
00DD70
007070
007070
007070
4E70EB
060042
006240
003A00
ENDCHAR
STARTCHAR uni21EA
ENCODING 8682
SWIDTH 720 0
DWIDTH 6 0
BBX 6 8 0 -2
BITMAP
003900
006340
050042
4D70EA
007070
00DD70
00DD70
00DD70
ENDCHAR
STARTCHAR uni21F4
ENCODING 8692
SWIDTH 948 0
DWIDTH 9 0
BBX 8 5 0 0
BITMAP
00000100
006E9160
5DEDFDE9
006E9170
00000200
ENDCHAR
STARTCHAR uni21F5
ENCODING 8693
SWIDTH 791 0
DWIDTH 7 0
BBX 7 8 0 -1
BITMAP
02301200
0460AB00
04646650
04604500
04604500
24624500
2AB34500
04704500
ENDCHAR
STARTCHAR uni21F6
ENCODING 8694
SWIDTH 948 0
DWIDTH 9 0
BBX 8 10 0 -3
BITMAP
00000100
00000160
6DDDDDE9
00000140
6DDDDDE9
00000160
00000160
6DDDDDEA
00000171
00000100
ENDCHAR
STARTCHAR uni21F7
ENCODING 8695
SWIDTH 948 0
DWIDTH 9 0
BBX 8 4 0 0
BITMAP
02405200
3EDDEDDD
03405200
00202100
ENDCHAR
STARTCHAR uni21F8
ENCODING 8696
SWIDTH 948 0
DWIDTH 9 0
BBX 8 4 0 0
BITMAP
00070240
7DDEDDE9
00070160
00030200
ENDCHAR
STARTCHAR uni21F9
ENCODING 8697
SWIDTH 948 0
DWIDTH 9 0
BBX 8 4 0 0
BITMAP
02307150
4FDDEDEB
04307061
00203110
ENDCHAR
STARTCHAR uni21FA
ENCODING 8698
SWIDTH 948 0
DWIDTH 9 0
BBX 8 4 0 0
BITMAP
02407700
3EDDEEDD
03407700
00203300
ENDCHAR
STARTCHAR uni21FB
ENCODING 8699
SWIDTH 948 0
DWIDTH 9 0
BBX 8 4 0 0
BITMAP
00644140
6DEEEDEA
00644061
00222200
ENDCHAR
STARTCHAR uni21FC
ENCODING 8700
SWIDTH 948 0
DWIDTH 9 0
BBX 9 4 0 0
BITMAP
0337525000
5FDEEDEC10
0527516100
0023211000
ENDCHAR
STARTCHAR uni21FD
ENCODING 8701
SWIDTH 948 0
DWIDTH 9 0
BBX 8 5 0 0
BITMAP
00200000
03C00000
3B7DDDDD
03C00000
00200000
ENDCHAR
STARTCHAR uni21FE
ENCODING 8702
SWIDTH 948 0
DWIDTH 9 0
BBX 8 5 0 0
BITMAP
00000200
00000770
6DDDDE4A
00000780
00000200
ENDCHAR
STARTCHAR uni21FF
ENCODING 8703
SWIDTH 948 0
DWIDTH 9 0
BBX 9 5 0 0
BITMAP
0020011000
069002B200
86CDDD6C20
069002B200
0020011000
ENDCHAR
STARTCHAR uni2200
ENCODING 8704
SWIDTH 573 0
DWIDTH 5 0
BBX 5 7 0 -1
BITMAP
600050
9200A0
3EDE50
090910
073800
01D300
005000
ENDCHAR
STARTCHAR uni2201
ENCODING 8705
SWIDTH 474 0
DWIDTH 4 0
BBX 4 7 0 0
BITMAP
2DE5
741A
7203
7200
7203
741A
3DE5
ENDCHAR
STARTCHAR partialdiff
ENCODING 8706
SWIDTH 478 0
DWIDTH 4 0
BBX 4 7 0 0
BITMAP
0AD2
0249
0008
1DD9
7319
7317
2CD2
ENDCHAR
STARTCHAR uni2203
ENCODING 8707
SWIDTH 573 0
DWIDTH 5 0
BBX 5 6 0 0
BITMAP
4DDD70
000270
3DDD70
000270
000270
4DDD70
ENDCHAR
STARTCHAR uni2204
ENCODING 8708
SWIDTH 573 0
DWIDTH 5 0
BBX 5 8 0 -1
BITMAP
000800
4DDE70
006470
3DED70
035270
070270
4EDD70
260000
ENDCHAR
STARTCHAR uni2205
ENCODING 8709
SWIDTH 780 0
DWIDTH 7 0
BBX 7 6 0 -1
BITMAP
04CEA730
2D413400
75000160
62000470
04303C30
37AEC400
ENDCHAR
STARTCHAR uni2206
ENCODING 8710
SWIDTH 748 0
DWIDTH 7 0
BBX 6 6 0 0
BITMAP
001900
005A20
004380
0400A1
030047
3DDDDD
ENDCHAR
STARTCHAR uni2207
ENCODING 8711
SWIDTH 748 0
DWIDTH 7 0
BBX 6 7 0 -1
BITMAP
3EDDDD
0B0004
075023
01B050
00A350
004C10
000800
ENDCHAR
STARTCHAR uni2208
ENCODING 8712
SWIDTH 720 0
DWIDTH 6 0
BBX 6 5 0 0
BITMAP
04CDDB
2A1000
4EDDDB
2A1000
04DDDB
ENDCHAR
STARTCHAR uni2209
ENCODING 8713
SWIDTH 720 0
DWIDTH 6 0
BBX 6 8 0 -1
BITMAP
000001
000072
04CDEB
2B1720
4EDEDB
1A8100
05DDDB
080000
ENDCHAR
STARTCHAR uni220A
ENCODING 8714
SWIDTH 497 0
DWIDTH 4 0
BBX 4 4 0 0
BITMAP
09DC
4700
4EDC
09DC
ENDCHAR
STARTCHAR uni220B
ENCODING 8715
SWIDTH 720 0
DWIDTH 6 0
BBX 6 5 0 0
BITMAP
4DDD90
000048
4DDDDC
000048
4DDDA0
ENDCHAR
STARTCHAR uni220C
ENCODING 8716
SWIDTH 720 0
DWIDTH 6 0
BBX 6 9 0 -2
BITMAP
000023
000081
4DDDA0
000527
4DDEDC
007249
4DEDA1
081000
010000
ENDCHAR
STARTCHAR uni220D
ENCODING 8717
SWIDTH 497 0
DWIDTH 4 0
BBX 4 4 0 0
BITMAP
6DC3
001A
6DDB
6DB3
ENDCHAR
STARTCHAR uni220E
ENCODING 8718
SWIDTH 558 0
DWIDTH 5 0
BBX 5 6 0 0
BITMAP
7FFF70
7FFF70
7FFF70
7FFF70
7FFF70
7FFF70
ENDCHAR
STARTCHAR uni220F
ENCODING 8719
SWIDTH 1135 0
DWIDTH 10 0
BBX 10 10 0 -3
BITMAP
29E8888DA4
01F0000C40
00F0000C30
00F0000C30
00F0000C30
00F0000C30
00F0000C30
00F0000D30
03F2001E50
6EEE52EEE8
ENDCHAR
STARTCHAR uni2210
ENCODING 8720
SWIDTH 1135 0
DWIDTH 10 0
BBX 10 10 0 -3
BITMAP
28A7216A83
01F1000D40
00F0000C30
00F0000C30
00F0000C30
00F0000C30
00F0000C30
00F0000C30
01F0000C40
28A7777A83
ENDCHAR
STARTCHAR uni2211
ENCODING 8721
SWIDTH 936 0
DWIDTH 8 0
BBX 8 10 0 -2
BITMAP
4EDDDEE5
09800066
01C40005
003D2000
0006B000
00046000
00180000
00910006
07300057
3EEEEEE4
ENDCHAR
STARTCHAR uni2212
ENCODING 8722
SWIDTH 720 0
DWIDTH 6 0
BBX 6 1 0 2
BITMAP
6DDDDC
ENDCHAR
STARTCHAR uni2213
ENCODING 8723
SWIDTH 720 0
DWIDTH 6 0
BBX 6 6 0 -1
BITMAP
6DDDDC
001500
001800
6DDEDC
001800
001700
ENDCHAR
STARTCHAR uni2214
ENCODING 8724
SWIDTH 720 0
DWIDTH 6 0
BBX 6 8 0 -1
BITMAP
003900
000300
001800
001800
6DDEDC
001800
001800
000300
ENDCHAR
STARTCHAR uni2215
ENCODING 8725
SWIDTH 535 0
DWIDTH 5 0
BBX 5 9 0 -2
BITMAP
000320
000910
001900
007400
00A000
037000
091000
190000
640000
ENDCHAR
STARTCHAR uni2216
ENCODING 8726
SWIDTH 535 0
DWIDTH 5 0
BBX 5 9 0 -2
BITMAP
410000
370000
0A0000
064000
019000
009100
004600
000A00
000730
ENDCHAR
STARTCHAR uni2217
ENCODING 8727
SWIDTH 536 0
DWIDTH 5 0
BBX 5 4 0 0
BITMAP
008000
376710
276710
008000
ENDCHAR
STARTCHAR uni2218
ENCODING 8728
SWIDTH 436 0
DWIDTH 4 0
BBX 4 3 0 1
BITMAP
3DD2
8456
3ED2
ENDCHAR
STARTCHAR uni2219
ENCODING 8729
SWIDTH 457 0
DWIDTH 4 0
BBX 3 3 1 1
BITMAP
1100
DE10
CD00
ENDCHAR
STARTCHAR uni221A
ENCODING 8730
SWIDTH 794 0
DWIDTH 7 0
BBX 8 11 0 -3
BITMAP
000002E6
00000640
00000900
00000900
01002700
5D106300
07608000
01C08000
00A66000
004E2000
00090000
ENDCHAR
STARTCHAR uni221B
ENCODING 8731
SWIDTH 794 0
DWIDTH 7 0
BBX 8 12 0 -3
BITMAP
39600000
085002E6
02B00640
6A700900
00000900
01002700
5D106300
07608000
01C08000
00A66000
004E2000
00090000
ENDCHAR
STARTCHAR uni221C
ENCODING 8732
SWIDTH 794 0
DWIDTH 7 0
BBX 8 12 0 -3
BITMAP
01800000
07A002E6
64B10640
35B20900
00200900
01002700
5D106300
07608000
01C08000
00A66000
004E2000
00090000
ENDCHAR
STARTCHAR uni221D
ENCODING 8733
SWIDTH 720 0
DWIDTH 6 0
BBX 6 4 0 0
BITMAP
1BE62D
633D92
7617C3
2CE54D
ENDCHAR
STARTCHAR uni221E
ENCODING 8734
SWIDTH 953 0
DWIDTH 9 0
BBX 8 4 0 0
BITMAP
09E91BE4
361BB22A
4815D619
0BE82DD4
ENDCHAR
STARTCHAR uni221F
ENCODING 8735
SWIDTH 720 0
DWIDTH 6 0
BBX 6 6 0 0
BITMAP
410000
720000
720000
720000
720000
6DDDDC
ENDCHAR
STARTCHAR uni2220
ENCODING 8736
SWIDTH 720 0
DWIDTH 6 0
BBX 7 6 0 0
BITMAP
00000200
00006600
00056000
00560000
04600000
3DDDDD10
ENDCHAR
STARTCHAR uni2221
ENCODING 8737
SWIDTH 720 0
DWIDTH 6 0
BBX 7 7 0 -1
BITMAP
00000200
00007600
000C7000
00679000
05609100
3DDDEE10
00003200
ENDCHAR
STARTCHAR uni2222
ENCODING 8738
SWIDTH 720 0
DWIDTH 6 0
BBX 6 5 0 0
BITMAP
000065
0038C5
2BA154
017AA3
0000A9
ENDCHAR
STARTCHAR uni2223
ENCODING 8739
SWIDTH 272 0
DWIDTH 2 0
BBX 2 8 0 -2
BITMAP
18
18
18
18
18
18
18
18
ENDCHAR
STARTCHAR uni2224
ENCODING 8740
SWIDTH 413 0
DWIDTH 4 0
BBX 4 8 0 -2
BITMAP
0720
0720
0720
0794
6C30
0720
0720
0720
ENDCHAR
STARTCHAR uni2225
ENCODING 8741
SWIDTH 535 0
DWIDTH 5 0
BBX 3 8 1 -2
BITMAP
9090
9090
9090
9090
9090
9090
9090
9090
ENDCHAR
STARTCHAR uni2226
ENCODING 8742
SWIDTH 623 0
DWIDTH 6 0
BBX 6 8 0 -2
BITMAP
063900
063900
063922
065C71
2B8900
473900
063900
063900
ENDCHAR
STARTCHAR uni2227
ENCODING 8743
SWIDTH 636 0
DWIDTH 6 0
BBX 6 5 0 0
BITMAP
006200
01A900
073730
190190
730073
ENDCHAR
STARTCHAR uni2228
ENCODING 8744
SWIDTH 636 0
DWIDTH 6 0
BBX 6 5 0 0
BITMAP
730073
190190
073730
019900
006300
ENDCHAR
STARTCHAR uni2229
ENCODING 8745
SWIDTH 636 0
DWIDTH 6 0
BBX 6 6 0 -1
BITMAP
08ED50
5912C1
820064
810054
810054
400022
ENDCHAR
STARTCHAR uni222A
ENCODING 8746
SWIDTH 636 0
DWIDTH 6 0
BBX 6 5 0 0
BITMAP
810054
810054
810064
6912C2
08EE50
ENDCHAR
STARTCHAR uni222B
ENCODING 8747
SWIDTH 684 0
DWIDTH 6 0
BBX 6 9 0 -2
BITMAP
0002DB
000A5A
001D00
004B00
007800
00A400
00C000
638000
561000
ENDCHAR
STARTCHAR uni222C
ENCODING 8748
SWIDTH 1016 0
DWIDTH 9 0
BBX 9 9 0 -2
BITMAP
0002DB2DA0
000A5AA5A0
001D01D000
004B04B000
0078077000
00A40A4000
00C10C0000
6396380000
5615610000
ENDCHAR
STARTCHAR uni222D
ENCODING 8749
SWIDTH 1348 0
DWIDTH 12 0
BBX 12 9 0 -2
BITMAP
0002DB2DA2DA
000A5AA5AA5A
001D01D01D00
004B04B04A00
007807708700
00A40A40A400
00C10C00C000
639638738000
561561561000
ENDCHAR
STARTCHAR uni222E
ENCODING 8750
SWIDTH 684 0
DWIDTH 6 0
BBX 6 9 0 -2
BITMAP
0002DB
000A4A
016E20
064A80
067760
079560
02D610
639000
561000
ENDCHAR
STARTCHAR uni222F
ENCODING 8751
SWIDTH 1016 0
DWIDTH 9 0
BBX 9 9 0 -2
BITMAP
0001CB2DA0
00094BA4A0
002D56D000
055A04B800
0677077600
08A5095300
00D65C0000
6396270000
5615600000
ENDCHAR
STARTCHAR uni2230
ENCODING 8752
SWIDTH 1348 0
DWIDTH 12 0
BBX 12 9 0 -2
BITMAP
0001CB1DA2DA
00094BA4AA4A
001D56D56D00
047A04904B91
157707707733
08A509409420
00C65D66C000
639629737000
561561560000
ENDCHAR
STARTCHAR uni2231
ENCODING 8753
SWIDTH 684 0
DWIDTH 6 0
BBX 6 9 0 -2
BITMAP
000066
000838
000C00
007C20
058784
02A412
00C000
738000
561000
ENDCHAR
STARTCHAR uni2232
ENCODING 8754
SWIDTH 684 0
DWIDTH 6 0
BBX 6 9 0 -2
BITMAP
000066
000738
026D30
173A85
346735
179461
02D620
738000
561000
ENDCHAR
STARTCHAR uni2233
ENCODING 8755
SWIDTH 684 0
DWIDTH 6 0
BBX 6 9 0 -2
BITMAP
0001CB
00095A
016E20
064AA2
057761
079460
02D610
639000
561000
ENDCHAR
STARTCHAR uni2234
ENCODING 8756
SWIDTH 635 0
DWIDTH 6 0
BBX 6 5 0 0
BITMAP
008400
000000
000000
000000
750093
ENDCHAR
STARTCHAR uni2235
ENCODING 8757
SWIDTH 635 0
DWIDTH 6 0
BBX 6 5 0 0
BITMAP
750093
000000
000000
000000
008400
ENDCHAR
STARTCHAR uni2236
ENCODING 8758
SWIDTH 523 0
DWIDTH 5 0
BBX 2 5 1 0
BITMAP
2B
00
00
00
2B
ENDCHAR
STARTCHAR uni2237
ENCODING 8759
SWIDTH 720 0
DWIDTH 6 0
BBX 6 5 0 0
BITMAP
1C0057
000000
000000
000000
1C0057
ENDCHAR
STARTCHAR uni2238
ENCODING 8760
SWIDTH 720 0
DWIDTH 6 0
BBX 6 3 0 2
BITMAP
003900
000000
6DDDDC
ENDCHAR
STARTCHAR uni2239
ENCODING 8761
SWIDTH 720 0
DWIDTH 6 0
BBX 6 5 0 0
BITMAP
00002B
000000
6DDD30
000000
00002B
ENDCHAR
STARTCHAR uni223A
ENCODING 8762
SWIDTH 720 0
DWIDTH 6 0
BBX 6 5 0 0
BITMAP
48002B
000000
6DDDDC
000000
48002B
ENDCHAR
STARTCHAR uni223B
ENCODING 8763
SWIDTH 720 0
DWIDTH 6 0
BBX 6 5 0 0
BITMAP
002B00
0AC103
346C26
4006E3
002B00
ENDCHAR
STARTCHAR uni223C
ENCODING 8764
SWIDTH 720 0
DWIDTH 6 0
BBX 6 2 0 1
BITMAP
1CD617
533AE5
ENDCHAR
STARTCHAR uni223D
ENCODING 8765
SWIDTH 720 0
DWIDTH 6 0
BBX 6 2 0 1
BITMAP
533AE5
1CD617
ENDCHAR
STARTCHAR uni223E
ENCODING 8766
SWIDTH 720 0
DWIDTH 6 0
BBX 6 3 0 1
BITMAP
2DB049
524A16
2B04E8
ENDCHAR
STARTCHAR uni223F
ENCODING 8767
SWIDTH 720 0
DWIDTH 6 0
BBX 6 4 0 0
BITMAP
1CD200
556800
001C1A
0008E6
ENDCHAR
STARTCHAR uni2240
ENCODING 8768
SWIDTH 293 0
DWIDTH 3 0
BBX 3 6 0 0
BITMAP
4200
0910
0910
3800
8100
2710
ENDCHAR
STARTCHAR uni2241
ENCODING 8769
SWIDTH 720 0
DWIDTH 6 0
BBX 6 4 0 0
BITMAP
000220
1CC817
5367E5
004000
ENDCHAR
STARTCHAR uni2242
ENCODING 8770
SWIDTH 720 0
DWIDTH 6 0
BBX 6 4 0 0
BITMAP
7FFFFE
000000
1CD617
533AE5
ENDCHAR
STARTCHAR uni2243
ENCODING 8771
SWIDTH 720 0
DWIDTH 6 0
BBX 6 4 0 0
BITMAP
0BC606
5229C5
000000
6DDDDD
ENDCHAR
STARTCHAR uni2244
ENCODING 8772
SWIDTH 720 0
DWIDTH 6 0
BBX 6 6 0 -1
BITMAP
000140
09B623
335E15
3039D3
6DEDDD
015000
ENDCHAR
STARTCHAR uni2245
ENCODING 8773
SWIDTH 720 0
DWIDTH 6 0
BBX 6 5 0 0
BITMAP
1BC605
412AD5
6DDDDD
000000
6DDDDD
ENDCHAR
STARTCHAR uni2246
ENCODING 8774
SWIDTH 720 0
DWIDTH 6 0
BBX 6 7 0 -1
BITMAP
1BC605
412AD5
000150
6DDEDD
002600
6DEDDD
015000
ENDCHAR
STARTCHAR uni2247
ENCODING 8775
SWIDTH 720 0
DWIDTH 6 0
BBX 6 8 0 -2
BITMAP
000071
0BC467
521BD5
6DDEDD
005200
6DEDDD
025000
030000
ENDCHAR
STARTCHAR uni2248
ENCODING 8776
SWIDTH 720 0
DWIDTH 6 0
BBX 6 4 0 0
BITMAP
1CD616
422683
1CD617
533AE5
ENDCHAR
STARTCHAR uni2249
ENCODING 8777
SWIDTH 720 0
DWIDTH 6 0
BBX 6 6 0 -1
BITMAP
000070
1CC626
420BE5
1CD606
4267E5
013000
ENDCHAR
STARTCHAR uni224A
ENCODING 8778
SWIDTH 720 0
DWIDTH 6 0
BBX 6 6 0 -1
BITMAP
0BB104
532521
100001
2CC603
100000
6DDDDD
ENDCHAR
STARTCHAR uni224B
ENCODING 8779
SWIDTH 720 0
DWIDTH 6 0
BBX 6 5 0 0
BITMAP
3ED712
1CD716
523AE6
1CD716
523AE6
ENDCHAR
STARTCHAR uni224C
ENCODING 8780
SWIDTH 720 0
DWIDTH 6 0
BBX 6 5 0 0
BITMAP
4129D5
1BC605
6DDDDD
000000
6DDDDD
ENDCHAR
STARTCHAR uni224D
ENCODING 8781
SWIDTH 720 0
DWIDTH 6 0
BBX 6 4 0 0
BITMAP
361148
05DEA1
05DEA1
361137
ENDCHAR
STARTCHAR uni224E
ENCODING 8782
SWIDTH 720 0
DWIDTH 6 0
BBX 6 4 0 0
BITMAP
00AE30
7FA3FE
7FA3FE
00AE30
ENDCHAR
STARTCHAR uni224F
ENCODING 8783
SWIDTH 720 0
DWIDTH 6 0
BBX 6 3 0 1
BITMAP
6D92DD
000000
6DDDDD
ENDCHAR
STARTCHAR uni2250
ENCODING 8784
SWIDTH 720 0
DWIDTH 6 0
BBX 6 4 0 1
BITMAP
003900
6DDDDD
000000
6DDDDD
ENDCHAR
STARTCHAR uni2251
ENCODING 8785
SWIDTH 720 0
DWIDTH 6 0
BBX 6 7 0 -1
BITMAP
003900
000000
6DDDDD
000000
6DDDDD
000000
003900
ENDCHAR
STARTCHAR uni2252
ENCODING 8786
SWIDTH 720 0
DWIDTH 6 0
BBX 6 6 0 -1
BITMAP
580000
6DDDDD
000000
6DDDDD
000000
00001B
ENDCHAR
STARTCHAR uni2253
ENCODING 8787
SWIDTH 720 0
DWIDTH 6 0
BBX 6 7 0 -1
BITMAP
00001B
000000
6DDDDD
000000
6DDDDD
000000
580000
ENDCHAR
STARTCHAR uni2254
ENCODING 8788
SWIDTH 844 0
DWIDTH 8 0
BBX 8 3 0 1
BITMAP
677DDDD2
00000000
677DDDD2
ENDCHAR
STARTCHAR uni2255
ENCODING 8789
SWIDTH 844 0
DWIDTH 8 0
BBX 8 3 0 1
BITMAP
7DDDD2C1
00000000
7DDDD2C1
ENDCHAR
STARTCHAR uni2256
ENCODING 8790
SWIDTH 720 0
DWIDTH 6 0
BBX 6 3 0 1
BITMAP
49BC99
008640
49BC99
ENDCHAR
STARTCHAR uni2257
ENCODING 8791
SWIDTH 720 0
DWIDTH 6 0
BBX 6 6 0 1
BITMAP
007D10
009540
007D10
6DDDDD
000000
6DDDDD
ENDCHAR
STARTCHAR uni2258
ENCODING 8792
SWIDTH 720 0
DWIDTH 6 0
BBX 6 6 0 1
BITMAP
02BD70
061044
000000
6DDDDD
000000
6DDDDD
ENDCHAR
STARTCHAR uni2259
ENCODING 8793
SWIDTH 720 0
DWIDTH 6 0
BBX 6 7 0 1
BITMAP
001700
008920
037190
040031
6DDDDD
000000
6DDDDD
ENDCHAR
STARTCHAR uni225A
ENCODING 8794
SWIDTH 720 0
DWIDTH 6 0
BBX 6 8 0 1
BITMAP
010000
073090
00A640
004900
000000
6DDDDD
000000
6DDDDD
ENDCHAR
STARTCHAR uni225B
ENCODING 8795
SWIDTH 720 0
DWIDTH 6 0
BBX 6 6 0 1
BITMAP
002700
00AF40
005800
6DDDDD
000000
6DDDDD
ENDCHAR
STARTCHAR uni225C
ENCODING 8796
SWIDTH 720 0
DWIDTH 6 0
BBX 6 7 0 1
BITMAP
000500
006A10
017270
07DDD1
6DDDDD
000000
6DDDDD
ENDCHAR
STARTCHAR uni225D
ENCODING 8797
SWIDTH 720 0
DWIDTH 6 0
BBX 7 7 0 1
BITMAP
04200A30
6C4C9E00
858D7600
8B6EBC00
6DDDDD00
00000000
6DDDDD00
ENDCHAR
STARTCHAR uni225E
ENCODING 8798
SWIDTH 720 0
DWIDTH 6 0
BBX 6 6 0 1
BITMAP
05A8A0
052760
09ABD2
6DDDDC
000000
6DDDDC
ENDCHAR
STARTCHAR uni225F
ENCODING 8799
SWIDTH 720 0
DWIDTH 6 0
BBX 6 7 0 1
BITMAP
009E20
005810
000400
001700
6DDDDC
000000
6DDDDC
ENDCHAR
STARTCHAR uni2260
ENCODING 8800
SWIDTH 720 0
DWIDTH 6 0
BBX 6 8 0 -2
BITMAP
000070
000350
6DDEDC
001600
6DEDDC
007000
044000
030000
ENDCHAR
STARTCHAR uni2261
ENCODING 8801
SWIDTH 720 0
DWIDTH 6 0
BBX 6 4 0 0
BITMAP
6DDDDC
6DDDDC
000000
6DDDDC
ENDCHAR
STARTCHAR uni2262
ENCODING 8802
SWIDTH 720 0
DWIDTH 6 0
BBX 6 8 0 -2
BITMAP
000070
000070
6DDEEC
6DDEDC
006200
6DEDDC
034000
030000
ENDCHAR
STARTCHAR uni2263
ENCODING 8803
SWIDTH 720 0
DWIDTH 6 0
BBX 6 6 0 -1
BITMAP
6DDDDC
000000
6DDDDC
000000
6DDDDC
6DDDDC
ENDCHAR
STARTCHAR uni2264
ENCODING 8804
SWIDTH 720 0
DWIDTH 6 0
BBX 6 7 0 -1
BITMAP
000037
004960
1B7000
039710
000286
000001
5DDDDB
ENDCHAR
STARTCHAR uni2265
ENCODING 8805
SWIDTH 720 0
DWIDTH 6 0
BBX 6 7 0 -1
BITMAP
371000
029710
0002B6
004960
295000
100000
5DDDDB
ENDCHAR
STARTCHAR uni2266
ENCODING 8806
SWIDTH 720 0
DWIDTH 6 0
BBX 6 9 0 -2
BITMAP
000068
006930
1C6000
017920
000177
000000
5DDDDB
000000
5DDDDB
ENDCHAR
STARTCHAR uni2267
ENCODING 8807
SWIDTH 720 0
DWIDTH 6 0
BBX 6 9 0 -2
BITMAP
382000
017930
0001C6
006930
393000
000000
5DDDDB
000000
5DDDDB
ENDCHAR
STARTCHAR uni2268
ENCODING 8808
SWIDTH 720 0
DWIDTH 6 0
BBX 6 10 0 -3
BITMAP
000068
016930
1C6000
017930
000167
000140
5DDEDB
002600
5DEDDB
014000
ENDCHAR
STARTCHAR uni2269
ENCODING 8809
SWIDTH 720 0
DWIDTH 6 0
BBX 6 10 0 -3
BITMAP
382000
017930
0001C6
006930
383000
000050
5DDEDB
001700
5DEDDB
005000
ENDCHAR
STARTCHAR uni226A
ENCODING 8810
SWIDTH 955 0
DWIDTH 9 0
BBX 9 6 0 -1
BITMAP
0001741730
0179479200
5C26C20000
0595694000
0005935920
0000010010
ENDCHAR
STARTCHAR uni226B
ENCODING 8811
SWIDTH 955 0
DWIDTH 9 0
BBX 9 6 0 -1
BITMAP
7408400000
0595694000
0006C26C20
0179478200
6827820000
1001000000
ENDCHAR
STARTCHAR uni226C
ENCODING 8812
SWIDTH 477 0
DWIDTH 4 0
BBX 4 9 0 -2
BITMAP
1202
0570
0680
0963
1836
0954
0880
0480
1322
ENDCHAR
STARTCHAR uni226D
ENCODING 8813
SWIDTH 720 0
DWIDTH 6 0
BBX 6 6 0 -1
BITMAP
100071
371565
05D910
003EA1
249147
116001
ENDCHAR
STARTCHAR uni226E
ENCODING 8814
SWIDTH 720 0
DWIDTH 6 0
BBX 6 8 0 -1
BITMAP
000031
000081
0003C7
029C10
1B7700
008960
007037
052000
ENDCHAR
STARTCHAR uni226F
ENCODING 8815
SWIDTH 720 0
DWIDTH 6 0
BBX 6 8 0 -1
BITMAP
000040
100070
295530
004D50
0037B6
02A710
387000
071000
ENDCHAR
STARTCHAR uni2270
ENCODING 8816
SWIDTH 720 0
DWIDTH 6 0
BBX 6 10 0 -3
BITMAP
000040
000084
0017A3
188900
069900
006685
008002
5DEDDB
061000
010000
ENDCHAR
STARTCHAR uni2271
ENCODING 8817
SWIDTH 720 0
DWIDTH 6 0
BBX 6 10 0 -3
BITMAP
000040
220070
178730
000A94
002C82
28C100
117000
5EEDDB
070000
010000
ENDCHAR
STARTCHAR uni2272
ENCODING 8818
SWIDTH 720 0
DWIDTH 6 0
BBX 6 8 0 -2
BITMAP
000016
001882
188200
069400
000694
000004
1CD617
533AE5
ENDCHAR
STARTCHAR uni2273
ENCODING 8819
SWIDTH 720 0
DWIDTH 6 0
BBX 6 8 0 -2
BITMAP
340000
059400
0005A5
001792
178200
220000
1CD617
533AE5
ENDCHAR
STARTCHAR uni2274
ENCODING 8820
SWIDTH 720 0
DWIDTH 6 0
BBX 6 9 0 -3
BITMAP
000173
0007A4
069A00
188800
004983
007104
0CE517
5479E5
022000
ENDCHAR
STARTCHAR uni2275
ENCODING 8821
SWIDTH 720 0
DWIDTH 6 0
BBX 6 9 0 -3
BITMAP
210340
188800
001B82
002A94
17C300
228000
0CD617
574AE5
040000
ENDCHAR
STARTCHAR uni2276
ENCODING 8822
SWIDTH 720 0
DWIDTH 6 0
BBX 6 9 0 -2
BITMAP
000004
001794
198200
038710
350177
049710
0002C6
017830
371000
ENDCHAR
STARTCHAR uni2277
ENCODING 8823
SWIDTH 720 0
DWIDTH 6 0
BBX 6 9 0 -2
BITMAP
220000
179400
0005A5
005961
394026
004971
1B7000
016840
000057
ENDCHAR
STARTCHAR uni2278
ENCODING 8824
SWIDTH 720 0
DWIDTH 6 0
BBX 6 9 0 -2
BITMAP
000255
002A94
2B7800
028B30
461758
029A30
0064C7
05B610
447000
ENDCHAR
STARTCHAR uni2279
ENCODING 8825
SWIDTH 720 0
DWIDTH 6 0
BBX 6 9 0 -2
BITMAP
320250
179920
0009B6
016B50
472738
017B50
2CB200
008882
007016
ENDCHAR
STARTCHAR uni227A
ENCODING 8826
SWIDTH 720 0
DWIDTH 6 0
BBX 6 5 0 0
BITMAP
000006
0004A3
3BE700
015981
000028
ENDCHAR
STARTCHAR uni227B
ENCODING 8827
SWIDTH 720 0
DWIDTH 6 0
BBX 6 5 0 0
BITMAP
330000
087200
003CD8
04A730
370000
ENDCHAR
STARTCHAR uni227C
ENCODING 8828
SWIDTH 720 0
DWIDTH 6 0
BBX 6 7 0 -1
BITMAP
000017
002791
3DF600
003891
5DA439
015AB2
000028
ENDCHAR
STARTCHAR uni227D
ENCODING 8829
SWIDTH 720 0
DWIDTH 6 0
BBX 6 7 0 -1
BITMAP
450000
069410
002CF9
05B510
3828CC
15C731
370000
ENDCHAR
STARTCHAR uni227E
ENCODING 8830
SWIDTH 720 0
DWIDTH 6 0
BBX 6 8 0 -2
BITMAP
000004
000186
28B920
158A50
000067
000002
1CD617
533AE5
ENDCHAR
STARTCHAR uni227F
ENCODING 8831
SWIDTH 720 0
DWIDTH 6 0
BBX 6 8 0 -2
BITMAP
210000
1A4000
006B96
019A63
292000
200000
1CD617
533AE5
ENDCHAR
STARTCHAR uni2280
ENCODING 8832
SWIDTH 720 0
DWIDTH 6 0
BBX 6 8 0 -1
BITMAP
000013
000062
0000A8
025A91
3BDC10
0018A4
007106
007000
ENDCHAR
STARTCHAR uni2281
ENCODING 8833
SWIDTH 720 0
DWIDTH 6 0
BBX 6 8 0 -1
BITMAP
000040
000430
370800
04AA31
008DC8
09A100
373000
080000
ENDCHAR
STARTCHAR uni2282
ENCODING 8834
SWIDTH 720 0
DWIDTH 6 0
BBX 6 5 0 0
BITMAP
04CDDB
2B1000
460000
2B1000
04DDDB
ENDCHAR
STARTCHAR uni2283
ENCODING 8835
SWIDTH 720 0
DWIDTH 6 0
BBX 6 5 0 0
BITMAP
4DDD90
000068
00000B
000068
4DDDA0
ENDCHAR
STARTCHAR uni2284
ENCODING 8836
SWIDTH 720 0
DWIDTH 6 0
BBX 6 8 0 -1
BITMAP
000010
000070
04CDEB
2B1520
471700
1B7100
04EDDB
052000
ENDCHAR
STARTCHAR uni2285
ENCODING 8837
SWIDTH 720 0
DWIDTH 6 0
BBX 6 9 0 -2
BITMAP
000040
000080
4DDDA0
000778
00260B
007168
4DED91
061000
010000
ENDCHAR
STARTCHAR uni2286
ENCODING 8838
SWIDTH 720 0
DWIDTH 6 0
BBX 6 7 0 -1
BITMAP
04CDDB
1C1000
470000
470000
1B1000
03CDDB
3DDDDB
ENDCHAR
STARTCHAR uni2287
ENCODING 8839
SWIDTH 720 0
DWIDTH 6 0
BBX 6 7 0 -1
BITMAP
4DDD90
000077
00000B
00000B
000076
4DDD90
4DDDD9
ENDCHAR
STARTCHAR uni2288
ENCODING 8840
SWIDTH 720 0
DWIDTH 6 0
BBX 6 10 0 -3
BITMAP
000071
03CDEB
1C1250
470700
470700
1B5400
03DDDB
3DEDDB
062000
010000
ENDCHAR
STARTCHAR uni2289
ENCODING 8841
SWIDTH 720 0
DWIDTH 6 0
BBX 6 10 0 -3
BITMAP
000040
4DDDB0
0003C6
00081B
00080B
004477
4DED90
4DEDD9
061000
010000
ENDCHAR
STARTCHAR uni228A
ENCODING 8842
SWIDTH 720 0
DWIDTH 6 0
BBX 6 8 0 -2
BITMAP
039997
2A0000
460000
1A0000
03A997
000500
29AB97
005000
ENDCHAR
STARTCHAR uni228B
ENCODING 8843
SWIDTH 720 0
DWIDTH 6 0
BBX 6 8 0 -2
BITMAP
399A80
000048
00000B
000048
399A80
000500
39AB97
005000
ENDCHAR
STARTCHAR uni228C
ENCODING 8844
SWIDTH 636 0
DWIDTH 6 0
BBX 6 5 0 0
BITMAP
810154
815254
84ED64
6923C2
08EE50
ENDCHAR
STARTCHAR uni228D
ENCODING 8845
SWIDTH 636 0
DWIDTH 6 0
BBX 6 5 0 0
BITMAP
810054
810054
818464
6912C2
08EE50
ENDCHAR
STARTCHAR uni228E
ENCODING 8846
SWIDTH 636 0
DWIDTH 6 0
BBX 6 5 0 0
BITMAP
813154
817254
88ED94
6943C2
08EE50
ENDCHAR
STARTCHAR uni228F
ENCODING 8847
SWIDTH 720 0
DWIDTH 6 0
BBX 6 5 0 0
BITMAP
5DDDDB
540000
540000
540000
5DDDDB
ENDCHAR
STARTCHAR uni2290
ENCODING 8848
SWIDTH 720 0
DWIDTH 6 0
BBX 6 5 0 0
BITMAP
4DDDDB
000009
000009
000009
4DDDDB
ENDCHAR
STARTCHAR uni2291
ENCODING 8849
SWIDTH 720 0
DWIDTH 6 0
BBX 6 7 0 -1
BITMAP
5DDDDB
540000
540000
540000
540000
5DDDDB
4DDDDB
ENDCHAR
STARTCHAR uni2292
ENCODING 8850
SWIDTH 720 0
DWIDTH 6 0
BBX 6 7 0 -1
BITMAP
4DDDDB
000009
000009
000009
000009
4DDDDB
4DDDDB
ENDCHAR
STARTCHAR uni2293
ENCODING 8851
SWIDTH 635 0
DWIDTH 6 0
BBX 6 6 0 -1
BITMAP
8DDDD4
810054
810054
810054
810054
400022
ENDCHAR
STARTCHAR uni2294
ENCODING 8852
SWIDTH 635 0
DWIDTH 6 0
BBX 6 6 0 0
BITMAP
100000
810054
810054
810054
810054
8DDDD4
ENDCHAR
ENDFONT
